<svg xmlns="http://www.w3.org/2000/svg" viewBox="0 0 255 255">
    <path  style="fill: none; stroke: rgb(0, 0, 0); stroke-width: 2.0;" d="M174.00000,174.00000 L128.00000,174.00000 "/>
    <path  style="fill: none; stroke: rgb(0, 0, 0); stroke-width: 2.0;" d="M147.00000,147.00000 L144.00000,147.00000 "/>
    <path  style="fill: none; stroke: rgb(0, 0, 0); stroke-width: 2.0;" d="M47.00000,47.00000 L41.00000,47.00000 "/>
    <path  style="fill: none; stroke: rgb(0, 0, 0); stroke-width: 2.0;" d="M237.00000,237.00000 L228.00000,237.00000 "/>
    <path  style="fill: none; stroke: rgb(0, 0, 0); stroke-width: 2.0;" d="M51.00000,51.00000 L2.00000,51.00000 "/>
    <path  style="fill: none; stroke: rgb(0, 0, 0); stroke-width: 2.0;" d="M208.00000,208.00000 L0.00000,208.00000 "/>
    <path  style="fill: none; stroke: rgb(0, 0, 0); stroke-width: 2.0;" d="M254.00000,254.00000 L118.00000,254.00000 "/>
    <path  style="fill: none; stroke: rgb(0, 0, 0); stroke-width: 2.0;" d="M129.00000,129.00000 L1.00000,129.00000 "/>
    <path  style="fill: none; stroke: rgb(0, 0, 0); stroke-width: 2.0;" d="M221.00000,221.00000 L5.00000,221.00000 "/>
    <path  style="fill: none; stroke: rgb(0, 0, 0); stroke-width: 2.0;" d="M45.00000,45.00000 L41.00000,45.00000 "/>
    <path  style="fill: none; stroke: rgb(0, 0, 0); stroke-width: 2.0;" d="M54.00000,54.00000 L22.00000,54.00000 "/>
    <path  style="fill: none; stroke: rgb(0, 0, 0); stroke-width: 2.0;" d="M97.00000,97.00000 L65.00000,97.00000 "/>
    <path  style="fill: none; stroke: rgb(0, 0, 0); stroke-width: 2.0;" d="M70.00000,70.00000 L4.00000,70.00000 "/>
    <path  style="fill: none; stroke: rgb(0, 0, 0); stroke-width: 2.0;" d="M250.00000,250.00000 L176.00000,250.00000 "/>
    <path  style="fill: none; stroke: rgb(0, 0, 0); stroke-width: 2.0;" d="M21.00000,21.00000 L16.00000,21.00000 "/>
    <path  style="fill: none; stroke: rgb(0, 0, 0); stroke-width: 2.0;" d="M34.00000,34.00000 L0.00000,34.00000 "/>
    <path  style="fill: none; stroke: rgb(0, 0, 0); stroke-width: 2.0;" d="M73.00000,73.00000 L72.00000,73.00000 "/>
    <path  style="fill: none; stroke: rgb(0, 0, 0); stroke-width: 2.0;" d="M45.00000,45.00000 L37.00000,45.00000 "/>
    <path  style="fill: none; stroke: rgb(0, 0, 0); stroke-width: 2.0;" d="M155.00000,155.00000 L26.00000,155.00000 "/>
    <path  style="fill: none; stroke: rgb(0, 0, 0); stroke-width: 2.0;" d="M140.00000,140.00000 L128.00000,140.00000 "/>
    <path  style="fill: none; stroke: rgb(0, 0, 0); stroke-width: 2.0;" d="M113.00000,113.00000 L17.00000,113.00000 "/>
    <path  style="fill: none; stroke: rgb(0, 0, 0); stroke-width: 2.0;" d="M82.00000,82.00000 L2.00000,82.00000 "/>
    <path  style="fill: none; stroke: rgb(0, 0, 0); stroke-width: 2.0;" d="M195.00000,195.00000 L130.00000,195.00000 "/>
    <path  style="fill: none; stroke: rgb(0, 0, 0); stroke-width: 2.0;" d="M131.00000,131.00000 L131.00000,131.00000 "/>
    <path  style="fill: none; stroke: rgb(0, 0, 0); stroke-width: 2.0;" d="M126.00000,126.00000 L78.00000,126.00000 "/>
    <path  style="fill: none; stroke: rgb(0, 0, 0); stroke-width: 2.0;" d="M146.00000,146.00000 L146.00000,146.00000 "/>
    <path  style="fill: none; stroke: rgb(0, 0, 0); stroke-width: 2.0;" d="M248.00000,248.00000 L88.00000,248.00000 "/>
    <path  style="fill: none; stroke: rgb(0, 0, 0); stroke-width: 2.0;" d="M44.00000,44.00000 L4.00000,44.00000 "/>
    <path  style="fill: none; stroke: rgb(0, 0, 0); stroke-width: 2.0;" d="M84.00000,84.00000 L84.00000,84.00000 "/>
    <path  style="fill: none; stroke: rgb(0, 0, 0); stroke-width: 2.0;" d="M120.00000,120.00000 L24.00000,120.00000 "/>
    <path  style="fill: none; stroke: rgb(0, 0, 0); stroke-width: 2.0;" d="M98.00000,98.00000 L98.00000,98.00000 "/>
    <path  style="fill: none; stroke: rgb(0, 0, 0); stroke-width: 2.0;" d="M221.00000,221.00000 L217.00000,221.00000 "/>
    <path  style="fill: none; stroke: rgb(0, 0, 0); stroke-width: 2.0;" d="M209.00000,209.00000 L129.00000,209.00000 "/>
    <path  style="fill: none; stroke: rgb(0, 0, 0); stroke-width: 2.0;" d="M251.00000,251.00000 L115.00000,251.00000 "/>
    <path  style="fill: none; stroke: rgb(0, 0, 0); stroke-width: 2.0;" d="M163.00000,163.00000 L162.00000,163.00000 "/>
    <path  style="fill: none; stroke: rgb(0, 0, 0); stroke-width: 2.0;" d="M215.00000,215.00000 L214.00000,215.00000 "/>
    <path  style="fill: none; stroke: rgb(0, 0, 0); stroke-width: 2.0;" d="M71.00000,71.00000 L64.00000,71.00000 "/>
    <path  style="fill: none; stroke: rgb(0, 0, 0); stroke-width: 2.0;" d="M32.00000,32.00000 L32.00000,32.00000 "/>
    <path  style="fill: none; stroke: rgb(0, 0, 0); stroke-width: 2.0;" d="M216.00000,216.00000 L64.00000,216.00000 "/>
    <path  style="fill: none; stroke: rgb(0, 0, 0); stroke-width: 2.0;" d="M40.00000,40.00000 L0.00000,40.00000 "/>
    <path  style="fill: none; stroke: rgb(0, 0, 0); stroke-width: 2.0;" d="M86.00000,86.00000 L82.00000,86.00000 "/>
    <path  style="fill: none; stroke: rgb(0, 0, 0); stroke-width: 2.0;" d="M135.00000,135.00000 L129.00000,135.00000 "/>
    <path  style="fill: none; stroke: rgb(0, 0, 0); stroke-width: 2.0;" d="M217.00000,217.00000 L129.00000,217.00000 "/>
    <path  style="fill: none; stroke: rgb(0, 0, 0); stroke-width: 2.0;" d="M254.00000,254.00000 L242.00000,254.00000 "/>
    <path  style="fill: none; stroke: rgb(0, 0, 0); stroke-width: 2.0;" d="M147.00000,147.00000 L17.00000,147.00000 "/>
    <path  style="fill: none; stroke: rgb(0, 0, 0); stroke-width: 2.0;" d="M59.00000,59.00000 L43.00000,59.00000 "/>
    <path  style="fill: none; stroke: rgb(0, 0, 0); stroke-width: 2.0;" d="M43.00000,43.00000 L35.00000,43.00000 "/>
    <path  style="fill: none; stroke: rgb(0, 0, 0); stroke-width: 2.0;" d="M182.00000,182.00000 L36.00000,182.00000 "/>
    <path  style="fill: none; stroke: rgb(0, 0, 0); stroke-width: 2.0;" d="M133.00000,133.00000 L0.00000,133.00000 "/>
    <path  style="fill: none; stroke: rgb(0, 0, 0); stroke-width: 2.0;" d="M241.00000,241.00000 L208.00000,241.00000 "/>
    <path  style="fill: none; stroke: rgb(0, 0, 0); stroke-width: 2.0;" d="M136.00000,136.00000 L136.00000,136.00000 "/>
    <path  style="fill: none; stroke: rgb(0, 0, 0); stroke-width: 2.0;" d="M214.00000,214.00000 L82.00000,214.00000 "/>
    <path  style="fill: none; stroke: rgb(0, 0, 0); stroke-width: 2.0;" d="M30.00000,30.00000 L16.00000,30.00000 "/>
    <path  style="fill: none; stroke: rgb(0, 0, 0); stroke-width: 2.0;" d="M246.00000,246.00000 L230.00000,246.00000 "/>
    <path  style="fill: none; stroke: rgb(0, 0, 0); stroke-width: 2.0;" d="M82.00000,82.00000 L18.00000,82.00000 "/>
    <path  style="fill: none; stroke: rgb(0, 0, 0); stroke-width: 2.0;" d="M185.00000,185.00000 L41.00000,185.00000 "/>
    <path  style="fill: none; stroke: rgb(0, 0, 0); stroke-width: 2.0;" d="M166.00000,166.00000 L6.00000,166.00000 "/>
    <path  style="fill: none; stroke: rgb(0, 0, 0); stroke-width: 2.0;" d="M6.00000,6.00000 L6.00000,6.00000 "/>
    <path  style="fill: none; stroke: rgb(0, 0, 0); stroke-width: 2.0;" d="M181.00000,181.00000 L132.00000,181.00000 "/>
    <path  style="fill: none; stroke: rgb(0, 0, 0); stroke-width: 2.0;" d="M90.00000,90.00000 L16.00000,90.00000 "/>
    <path  style="fill: none; stroke: rgb(0, 0, 0); stroke-width: 2.0;" d="M148.00000,148.00000 L0.00000,148.00000 "/>
    <path  style="fill: none; stroke: rgb(0, 0, 0); stroke-width: 2.0;" d="M107.00000,107.00000 L41.00000,107.00000 "/>
    <path  style="fill: none; stroke: rgb(0, 0, 0); stroke-width: 2.0;" d="M215.00000,215.00000 L70.00000,215.00000 "/>
    <path  style="fill: none; stroke: rgb(0, 0, 0); stroke-width: 2.0;" d="M71.00000,71.00000 L68.00000,71.00000 "/>
    <path  style="fill: none; stroke: rgb(0, 0, 0); stroke-width: 2.0;" d="M30.00000,30.00000 L6.00000,30.00000 "/>
    <path  style="fill: none; stroke: rgb(0, 0, 0); stroke-width: 2.0;" d="M16.00000,16.00000 L0.00000,16.00000 "/>
    <path  style="fill: none; stroke: rgb(0, 0, 0); stroke-width: 2.0;" d="M211.00000,211.00000 L16.00000,211.00000 "/>
    <path  style="fill: none; stroke: rgb(0, 0, 0); stroke-width: 2.0;" d="M191.00000,191.00000 L2.00000,191.00000 "/>
    <path  style="fill: none; stroke: rgb(0, 0, 0); stroke-width: 2.0;" d="M157.00000,157.00000 L4.00000,157.00000 "/>
    <path  style="fill: none; stroke: rgb(0, 0, 0); stroke-width: 2.0;" d="M52.00000,52.00000 L36.00000,52.00000 "/>
    <path  style="fill: none; stroke: rgb(0, 0, 0); stroke-width: 2.0;" d="M207.00000,207.00000 L70.00000,207.00000 "/>
    <path  style="fill: none; stroke: rgb(0, 0, 0); stroke-width: 2.0;" d="M214.00000,214.00000 L144.00000,214.00000 "/>
    <path  style="fill: none; stroke: rgb(0, 0, 0); stroke-width: 2.0;" d="M26.00000,26.00000 L24.00000,26.00000 "/>
    <path  style="fill: none; stroke: rgb(0, 0, 0); stroke-width: 2.0;" d="M26.00000,26.00000 L0.00000,26.00000 "/>
    <path  style="fill: none; stroke: rgb(0, 0, 0); stroke-width: 2.0;" d="M190.00000,190.00000 L146.00000,190.00000 "/>
    <path  style="fill: none; stroke: rgb(0, 0, 0); stroke-width: 2.0;" d="M229.00000,229.00000 L101.00000,229.00000 "/>
    <path  style="fill: none; stroke: rgb(0, 0, 0); stroke-width: 2.0;" d="M156.00000,156.00000 L148.00000,156.00000 "/>
    <path  style="fill: none; stroke: rgb(0, 0, 0); stroke-width: 2.0;" d="M133.00000,133.00000 L1.00000,133.00000 "/>
    <path  style="fill: none; stroke: rgb(0, 0, 0); stroke-width: 2.0;" d="M109.00000,109.00000 L101.00000,109.00000 "/>
    <path  style="fill: none; stroke: rgb(0, 0, 0); stroke-width: 2.0;" d="M3.00000,3.00000 L2.00000,3.00000 "/>
    <path  style="fill: none; stroke: rgb(0, 0, 0); stroke-width: 2.0;" d="M201.00000,201.00000 L64.00000,201.00000 "/>
    <path  style="fill: none; stroke: rgb(0, 0, 0); stroke-width: 2.0;" d="M220.00000,220.00000 L8.00000,220.00000 "/>
    <path  style="fill: none; stroke: rgb(0, 0, 0); stroke-width: 2.0;" d="M52.00000,52.00000 L0.00000,52.00000 "/>
    <path  style="fill: none; stroke: rgb(0, 0, 0); stroke-width: 2.0;" d="M221.00000,221.00000 L148.00000,221.00000 "/>
    <path  style="fill: none; stroke: rgb(0, 0, 0); stroke-width: 2.0;" d="M103.00000,103.00000 L1.00000,103.00000 "/>
    <path  style="fill: none; stroke: rgb(0, 0, 0); stroke-width: 2.0;" d="M68.00000,68.00000 L4.00000,68.00000 "/>
    <path  style="fill: none; stroke: rgb(0, 0, 0); stroke-width: 2.0;" d="M14.00000,14.00000 L8.00000,14.00000 "/>
    <path  style="fill: none; stroke: rgb(0, 0, 0); stroke-width: 2.0;" d="M136.00000,136.00000 L8.00000,136.00000 "/>
    <path  style="fill: none; stroke: rgb(0, 0, 0); stroke-width: 2.0;" d="M142.00000,142.00000 L132.00000,142.00000 "/>
    <path  style="fill: none; stroke: rgb(0, 0, 0); stroke-width: 2.0;" d="M70.00000,70.00000 L6.00000,70.00000 "/>
    <path  style="fill: none; stroke: rgb(0, 0, 0); stroke-width: 2.0;" d="M250.00000,250.00000 L248.00000,250.00000 "/>
    <path  style="fill: none; stroke: rgb(0, 0, 0); stroke-width: 2.0;" d="M154.00000,154.00000 L144.00000,154.00000 "/>
    <path  style="fill: none; stroke: rgb(0, 0, 0); stroke-width: 2.0;" d="M35.00000,35.00000 L0.00000,35.00000 "/>
    <path  style="fill: none; stroke: rgb(0, 0, 0); stroke-width: 2.0;" d="M131.00000,131.00000 L2.00000,131.00000 "/>
    <path  style="fill: none; stroke: rgb(0, 0, 0); stroke-width: 2.0;" d="M214.00000,214.00000 L150.00000,214.00000 "/>
    <path  style="fill: none; stroke: rgb(0, 0, 0); stroke-width: 2.0;" d="M147.00000,147.00000 L130.00000,147.00000 "/>
    <path  style="fill: none; stroke: rgb(0, 0, 0); stroke-width: 2.0;" d="M53.00000,53.00000 L48.00000,53.00000 "/>
    <path  style="fill: none; stroke: rgb(0, 0, 0); stroke-width: 2.0;" d="M9.00000,9.00000 L0.00000,9.00000 "/>
    <path  style="fill: none; stroke: rgb(0, 0, 0); stroke-width: 2.0;" d="M250.00000,250.00000 L162.00000,250.00000 "/>
    <path  style="fill: none; stroke: rgb(0, 0, 0); stroke-width: 2.0;" d="M154.00000,154.00000 L138.00000,154.00000 "/>
    <path  style="fill: none; stroke: rgb(0, 0, 0); stroke-width: 2.0;" d="M229.00000,229.00000 L97.00000,229.00000 "/>
    <path  style="fill: none; stroke: rgb(0, 0, 0); stroke-width: 2.0;" d="M235.00000,235.00000 L193.00000,235.00000 "/>
    <path  style="fill: none; stroke: rgb(0, 0, 0); stroke-width: 2.0;" d="M2.00000,2.00000 L0.00000,2.00000 "/>
    <path  style="fill: none; stroke: rgb(0, 0, 0); stroke-width: 2.0;" d="M13.00000,13.00000 L13.00000,13.00000 "/>
    <path  style="fill: none; stroke: rgb(0, 0, 0); stroke-width: 2.0;" d="M158.00000,158.00000 L6.00000,158.00000 "/>
    <path  style="fill: none; stroke: rgb(0, 0, 0); stroke-width: 2.0;" d="M45.00000,45.00000 L4.00000,45.00000 "/>
    <path  style="fill: none; stroke: rgb(0, 0, 0); stroke-width: 2.0;" d="M249.00000,249.00000 L169.00000,249.00000 "/>
    <path  style="fill: none; stroke: rgb(0, 0, 0); stroke-width: 2.0;" d="M187.00000,187.00000 L129.00000,187.00000 "/>
    <path  style="fill: none; stroke: rgb(0, 0, 0); stroke-width: 2.0;" d="M50.00000,50.00000 L2.00000,50.00000 "/>
    <path  style="fill: none; stroke: rgb(0, 0, 0); stroke-width: 2.0;" d="M212.00000,212.00000 L68.00000,212.00000 "/>
    <path  style="fill: none; stroke: rgb(0, 0, 0); stroke-width: 2.0;" d="M186.00000,186.00000 L16.00000,186.00000 "/>
    <path  style="fill: none; stroke: rgb(0, 0, 0); stroke-width: 2.0;" d="M22.00000,22.00000 L22.00000,22.00000 "/>
    <path  style="fill: none; stroke: rgb(0, 0, 0); stroke-width: 2.0;" d="M53.00000,53.00000 L48.00000,53.00000 "/>
    <path  style="fill: none; stroke: rgb(0, 0, 0); stroke-width: 2.0;" d="M123.00000,123.00000 L42.00000,123.00000 "/>
    <path  style="fill: none; stroke: rgb(0, 0, 0); stroke-width: 2.0;" d="M228.00000,228.00000 L228.00000,228.00000 "/>
    <path  style="fill: none; stroke: rgb(0, 0, 0); stroke-width: 2.0;" d="M206.00000,206.00000 L64.00000,206.00000 "/>
    <path  style="fill: none; stroke: rgb(0, 0, 0); stroke-width: 2.0;" d="M63.00000,63.00000 L15.00000,63.00000 "/>
    <path  style="fill: none; stroke: rgb(0, 0, 0); stroke-width: 2.0;" d="M60.00000,60.00000 L16.00000,60.00000 "/>
    <path  style="fill: none; stroke: rgb(0, 0, 0); stroke-width: 2.0;" d="M114.00000,114.00000 L16.00000,114.00000 "/>
    <path  style="fill: none; stroke: rgb(0, 0, 0); stroke-width: 2.0;" d="M153.00000,153.00000 L129.00000,153.00000 "/>
    <path  style="fill: none; stroke: rgb(0, 0, 0); stroke-width: 2.0;" d="M0.00000,0.00000 L0.00000,0.00000 "/>
    <path  style="fill: none; stroke: rgb(0, 0, 0); stroke-width: 2.0;" d="M134.00000,134.00000 L130.00000,134.00000 "/>
    <path  style="fill: none; stroke: rgb(0, 0, 0); stroke-width: 2.0;" d="M63.00000,63.00000 L50.00000,63.00000 "/>
    <path  style="fill: none; stroke: rgb(0, 0, 0); stroke-width: 2.0;" d="M190.00000,190.00000 L142.00000,190.00000 "/>
    <path  style="fill: none; stroke: rgb(0, 0, 0); stroke-width: 2.0;" d="M217.00000,217.00000 L209.00000,217.00000 "/>
    <path  style="fill: none; stroke: rgb(0, 0, 0); stroke-width: 2.0;" d="M98.00000,98.00000 L96.00000,98.00000 "/>
    <path  style="fill: none; stroke: rgb(0, 0, 0); stroke-width: 2.0;" d="M248.00000,248.00000 L184.00000,248.00000 "/>
    <path  style="fill: none; stroke: rgb(0, 0, 0); stroke-width: 2.0;" d="M145.00000,145.00000 L128.00000,145.00000 "/>
    <path  style="fill: none; stroke: rgb(0, 0, 0); stroke-width: 2.0;" d="M232.00000,232.00000 L96.00000,232.00000 "/>
    <path  style="fill: none; stroke: rgb(0, 0, 0); stroke-width: 2.0;" d="M173.00000,173.00000 L41.00000,173.00000 "/>
    <path  style="fill: none; stroke: rgb(0, 0, 0); stroke-width: 2.0;" d="M222.00000,222.00000 L4.00000,222.00000 "/>
    <path  style="fill: none; stroke: rgb(0, 0, 0); stroke-width: 2.0;" d="M134.00000,134.00000 L2.00000,134.00000 "/>
    <path  style="fill: none; stroke: rgb(0, 0, 0); stroke-width: 2.0;" d="M7.00000,7.00000 L3.00000,7.00000 "/>
    <path  style="fill: none; stroke: rgb(0, 0, 0); stroke-width: 2.0;" d="M149.00000,149.00000 L4.00000,149.00000 "/>
    <path  style="fill: none; stroke: rgb(0, 0, 0); stroke-width: 2.0;" d="M24.00000,24.00000 L0.00000,24.00000 "/>
    <path  style="fill: none; stroke: rgb(0, 0, 0); stroke-width: 2.0;" d="M235.00000,235.00000 L34.00000,235.00000 "/>
    <path  style="fill: none; stroke: rgb(0, 0, 0); stroke-width: 2.0;" d="M236.00000,236.00000 L168.00000,236.00000 "/>
    <path  style="fill: none; stroke: rgb(0, 0, 0); stroke-width: 2.0;" d="M176.00000,176.00000 L16.00000,176.00000 "/>
    <path  style="fill: none; stroke: rgb(0, 0, 0); stroke-width: 2.0;" d="M214.00000,214.00000 L82.00000,214.00000 "/>
    <path  style="fill: none; stroke: rgb(0, 0, 0); stroke-width: 2.0;" d="M166.00000,166.00000 L32.00000,166.00000 "/>
    <path  style="fill: none; stroke: rgb(0, 0, 0); stroke-width: 2.0;" d="M123.00000,123.00000 L3.00000,123.00000 "/>
    <path  style="fill: none; stroke: rgb(0, 0, 0); stroke-width: 2.0;" d="M192.00000,192.00000 L128.00000,192.00000 "/>
    <path  style="fill: none; stroke: rgb(0, 0, 0); stroke-width: 2.0;" d="M210.00000,210.00000 L208.00000,210.00000 "/>
    <path  style="fill: none; stroke: rgb(0, 0, 0); stroke-width: 2.0;" d="M61.00000,61.00000 L33.00000,61.00000 "/>
    <path  style="fill: none; stroke: rgb(0, 0, 0); stroke-width: 2.0;" d="M54.00000,54.00000 L4.00000,54.00000 "/>
    <path  style="fill: none; stroke: rgb(0, 0, 0); stroke-width: 2.0;" d="M122.00000,122.00000 L26.00000,122.00000 "/>
    <path  style="fill: none; stroke: rgb(0, 0, 0); stroke-width: 2.0;" d="M132.00000,132.00000 L0.00000,132.00000 "/>
    <path  style="fill: none; stroke: rgb(0, 0, 0); stroke-width: 2.0;" d="M205.00000,205.00000 L205.00000,205.00000 "/>
    <path  style="fill: none; stroke: rgb(0, 0, 0); stroke-width: 2.0;" d="M3.00000,3.00000 L1.00000,3.00000 "/>
    <path  style="fill: none; stroke: rgb(0, 0, 0); stroke-width: 2.0;" d="M124.00000,124.00000 L52.00000,124.00000 "/>
    <path  style="fill: none; stroke: rgb(0, 0, 0); stroke-width: 2.0;" d="M96.00000,96.00000 L64.00000,96.00000 "/>
    <path  style="fill: none; stroke: rgb(0, 0, 0); stroke-width: 2.0;" d="M80.00000,80.00000 L80.00000,80.00000 "/>
    <path  style="fill: none; stroke: rgb(0, 0, 0); stroke-width: 2.0;" d="M219.00000,219.00000 L195.00000,219.00000 "/>
    <path  style="fill: none; stroke: rgb(0, 0, 0); stroke-width: 2.0;" d="M15.00000,15.00000 L5.00000,15.00000 "/>
    <path  style="fill: none; stroke: rgb(0, 0, 0); stroke-width: 2.0;" d="M30.00000,30.00000 L20.00000,30.00000 "/>
    <path  style="fill: none; stroke: rgb(0, 0, 0); stroke-width: 2.0;" d="M16.00000,16.00000 L16.00000,16.00000 "/>
    <path  style="fill: none; stroke: rgb(0, 0, 0); stroke-width: 2.0;" d="M225.00000,225.00000 L160.00000,225.00000 "/>
    <path  style="fill: none; stroke: rgb(0, 0, 0); stroke-width: 2.0;" d="M166.00000,166.00000 L128.00000,166.00000 "/>
    <path  style="fill: none; stroke: rgb(0, 0, 0); stroke-width: 2.0;" d="M232.00000,232.00000 L128.00000,232.00000 "/>
    <path  style="fill: none; stroke: rgb(0, 0, 0); stroke-width: 2.0;" d="M46.00000,46.00000 L2.00000,46.00000 "/>
    <path  style="fill: none; stroke: rgb(0, 0, 0); stroke-width: 2.0;" d="M130.00000,130.00000 L0.00000,130.00000 "/>
    <path  style="fill: none; stroke: rgb(0, 0, 0); stroke-width: 2.0;" d="M142.00000,142.00000 L132.00000,142.00000 "/>
    <path  style="fill: none; stroke: rgb(0, 0, 0); stroke-width: 2.0;" d="M130.00000,130.00000 L0.00000,130.00000 "/>
    <path  style="fill: none; stroke: rgb(0, 0, 0); stroke-width: 2.0;" d="M64.00000,64.00000 L64.00000,64.00000 "/>
    <path  style="fill: none; stroke: rgb(0, 0, 0); stroke-width: 2.0;" d="M162.00000,162.00000 L2.00000,162.00000 "/>
    <path  style="fill: none; stroke: rgb(0, 0, 0); stroke-width: 2.0;" d="M130.00000,130.00000 L0.00000,130.00000 "/>
    <path  style="fill: none; stroke: rgb(0, 0, 0); stroke-width: 2.0;" d="M124.00000,124.00000 L28.00000,124.00000 "/>
    <path  style="fill: none; stroke: rgb(0, 0, 0); stroke-width: 2.0;" d="M106.00000,106.00000 L42.00000,106.00000 "/>
    <path  style="fill: none; stroke: rgb(0, 0, 0); stroke-width: 2.0;" d="M182.00000,182.00000 L50.00000,182.00000 "/>
    <path  style="fill: none; stroke: rgb(0, 0, 0); stroke-width: 2.0;" d="M135.00000,135.00000 L5.00000,135.00000 "/>
    <path  style="fill: none; stroke: rgb(0, 0, 0); stroke-width: 2.0;" d="M204.00000,204.00000 L8.00000,204.00000 "/>
    <path  style="fill: none; stroke: rgb(0, 0, 0); stroke-width: 2.0;" d="M241.00000,241.00000 L193.00000,241.00000 "/>
    <path  style="fill: none; stroke: rgb(0, 0, 0); stroke-width: 2.0;" d="M98.00000,98.00000 L2.00000,98.00000 "/>
    <path  style="fill: none; stroke: rgb(0, 0, 0); stroke-width: 2.0;" d="M180.00000,180.00000 L36.00000,180.00000 "/>
    <path  style="fill: none; stroke: rgb(0, 0, 0); stroke-width: 2.0;" d="M50.00000,50.00000 L48.00000,50.00000 "/>
    <path  style="fill: none; stroke: rgb(0, 0, 0); stroke-width: 2.0;" d="M215.00000,215.00000 L131.00000,215.00000 "/>
    <path  style="fill: none; stroke: rgb(0, 0, 0); stroke-width: 2.0;" d="M190.00000,190.00000 L10.00000,190.00000 "/>
    <path  style="fill: none; stroke: rgb(0, 0, 0); stroke-width: 2.0;" d="M97.00000,97.00000 L1.00000,97.00000 "/>
    <path  style="fill: none; stroke: rgb(0, 0, 0); stroke-width: 2.0;" d="M104.00000,104.00000 L64.00000,104.00000 "/>
    <path  style="fill: none; stroke: rgb(0, 0, 0); stroke-width: 2.0;" d="M59.00000,59.00000 L35.00000,59.00000 "/>
    <path  style="fill: none; stroke: rgb(0, 0, 0); stroke-width: 2.0;" d="M98.00000,98.00000 L0.00000,98.00000 "/>
    <path  style="fill: none; stroke: rgb(0, 0, 0); stroke-width: 2.0;" d="M251.00000,251.00000 L184.00000,251.00000 "/>
    <path  style="fill: none; stroke: rgb(0, 0, 0); stroke-width: 2.0;" d="M208.00000,208.00000 L208.00000,208.00000 "/>
    <path  style="fill: none; stroke: rgb(0, 0, 0); stroke-width: 2.0;" d="M186.00000,186.00000 L50.00000,186.00000 "/>
    <path  style="fill: none; stroke: rgb(0, 0, 0); stroke-width: 2.0;" d="M106.00000,106.00000 L8.00000,106.00000 "/>
    <path  style="fill: none; stroke: rgb(0, 0, 0); stroke-width: 2.0;" d="M217.00000,217.00000 L128.00000,217.00000 "/>
    <path  style="fill: none; stroke: rgb(0, 0, 0); stroke-width: 2.0;" d="M159.00000,159.00000 L4.00000,159.00000 "/>
    <path  style="fill: none; stroke: rgb(0, 0, 0); stroke-width: 2.0;" d="M156.00000,156.00000 L148.00000,156.00000 "/>
    <path  style="fill: none; stroke: rgb(0, 0, 0); stroke-width: 2.0;" d="M202.00000,202.00000 L136.00000,202.00000 "/>
    <path  style="fill: none; stroke: rgb(0, 0, 0); stroke-width: 2.0;" d="M149.00000,149.00000 L0.00000,149.00000 "/>
    <path  style="fill: none; stroke: rgb(0, 0, 0); stroke-width: 2.0;" d="M237.00000,237.00000 L0.00000,237.00000 "/>
    <path  style="fill: none; stroke: rgb(0, 0, 0); stroke-width: 2.0;" d="M48.00000,48.00000 L16.00000,48.00000 "/>
    <path  style="fill: none; stroke: rgb(0, 0, 0); stroke-width: 2.0;" d="M46.00000,46.00000 L40.00000,46.00000 "/>
    <path  style="fill: none; stroke: rgb(0, 0, 0); stroke-width: 2.0;" d="M83.00000,83.00000 L65.00000,83.00000 "/>
    <path  style="fill: none; stroke: rgb(0, 0, 0); stroke-width: 2.0;" d="M109.00000,109.00000 L4.00000,109.00000 "/>
    <path  style="fill: none; stroke: rgb(0, 0, 0); stroke-width: 2.0;" d="M187.00000,187.00000 L169.00000,187.00000 "/>
    <path  style="fill: none; stroke: rgb(0, 0, 0); stroke-width: 2.0;" d="M238.00000,238.00000 L32.00000,238.00000 "/>
    <path  style="fill: none; stroke: rgb(0, 0, 0); stroke-width: 2.0;" d="M127.00000,127.00000 L30.00000,127.00000 "/>
    <path  style="fill: none; stroke: rgb(0, 0, 0); stroke-width: 2.0;" d="M130.00000,130.00000 L2.00000,130.00000 "/>
    <path  style="fill: none; stroke: rgb(0, 0, 0); stroke-width: 2.0;" d="M9.00000,9.00000 L0.00000,9.00000 "/>
    <path  style="fill: none; stroke: rgb(0, 0, 0); stroke-width: 2.0;" d="M238.00000,238.00000 L202.00000,238.00000 "/>
    <path  style="fill: none; stroke: rgb(0, 0, 0); stroke-width: 2.0;" d="M181.00000,181.00000 L49.00000,181.00000 "/>
    <path  style="fill: none; stroke: rgb(0, 0, 0); stroke-width: 2.0;" d="M131.00000,131.00000 L0.00000,131.00000 "/>
    <path  style="fill: none; stroke: rgb(0, 0, 0); stroke-width: 2.0;" d="M71.00000,71.00000 L6.00000,71.00000 "/>
    <path  style="fill: none; stroke: rgb(0, 0, 0); stroke-width: 2.0;" d="M51.00000,51.00000 L34.00000,51.00000 "/>
    <path  style="fill: none; stroke: rgb(0, 0, 0); stroke-width: 2.0;" d="M134.00000,134.00000 L134.00000,134.00000 "/>
    <path  style="fill: none; stroke: rgb(0, 0, 0); stroke-width: 2.0;" d="M200.00000,200.00000 L64.00000,200.00000 "/>
    <path  style="fill: none; stroke: rgb(0, 0, 0); stroke-width: 2.0;" d="M211.00000,211.00000 L130.00000,211.00000 "/>
    <path  style="fill: none; stroke: rgb(0, 0, 0); stroke-width: 2.0;" d="M171.00000,171.00000 L137.00000,171.00000 "/>
    <path  style="fill: none; stroke: rgb(0, 0, 0); stroke-width: 2.0;" d="M209.00000,209.00000 L80.00000,209.00000 "/>
    <path  style="fill: none; stroke: rgb(0, 0, 0); stroke-width: 2.0;" d="M128.00000,128.00000 L128.00000,128.00000 "/>
    <path  style="fill: none; stroke: rgb(0, 0, 0); stroke-width: 2.0;" d="M82.00000,82.00000 L16.00000,82.00000 "/>
    <path  style="fill: none; stroke: rgb(0, 0, 0); stroke-width: 2.0;" d="M205.00000,205.00000 L196.00000,205.00000 "/>
    <path  style="fill: none; stroke: rgb(0, 0, 0); stroke-width: 2.0;" d="M13.00000,13.00000 L13.00000,13.00000 "/>
    <path  style="fill: none; stroke: rgb(0, 0, 0); stroke-width: 2.0;" d="M187.00000,187.00000 L9.00000,187.00000 "/>
    <path  style="fill: none; stroke: rgb(0, 0, 0); stroke-width: 2.0;" d="M169.00000,169.00000 L160.00000,169.00000 "/>
    <path  style="fill: none; stroke: rgb(0, 0, 0); stroke-width: 2.0;" d="M187.00000,187.00000 L177.00000,187.00000 "/>
    <path  style="fill: none; stroke: rgb(0, 0, 0); stroke-width: 2.0;" d="M158.00000,158.00000 L148.00000,158.00000 "/>
    <path  style="fill: none; stroke: rgb(0, 0, 0); stroke-width: 2.0;" d="M68.00000,68.00000 L0.00000,68.00000 "/>
    <path  style="fill: none; stroke: rgb(0, 0, 0); stroke-width: 2.0;" d="M118.00000,118.00000 L54.00000,118.00000 "/>
    <path  style="fill: none; stroke: rgb(0, 0, 0); stroke-width: 2.0;" d="M126.00000,126.00000 L84.00000,126.00000 "/>
    <path  style="fill: none; stroke: rgb(0, 0, 0); stroke-width: 2.0;" d="M152.00000,152.00000 L152.00000,152.00000 "/>
    <path  style="fill: none; stroke: rgb(0, 0, 0); stroke-width: 2.0;" d="M12.00000,12.00000 L12.00000,12.00000 "/>
    <path  style="fill: none; stroke: rgb(0, 0, 0); stroke-width: 2.0;" d="M0.00000,0.00000 L0.00000,0.00000 "/>
    <path  style="fill: none; stroke: rgb(0, 0, 0); stroke-width: 2.0;" d="M20.00000,20.00000 L16.00000,20.00000 "/>
    <path  style="fill: none; stroke: rgb(0, 0, 0); stroke-width: 2.0;" d="M203.00000,203.00000 L67.00000,203.00000 "/>
    <path  style="fill: none; stroke: rgb(0, 0, 0); stroke-width: 2.0;" d="M62.00000,62.00000 L46.00000,62.00000 "/>
    <path  style="fill: none; stroke: rgb(0, 0, 0); stroke-width: 2.0;" d="M40.00000,40.00000 L0.00000,40.00000 "/>
    <path  style="fill: none; stroke: rgb(0, 0, 0); stroke-width: 2.0;" d="M104.00000,104.00000 L8.00000,104.00000 "/>
    <path  style="fill: none; stroke: rgb(0, 0, 0); stroke-width: 2.0;" d="M13.00000,13.00000 L1.00000,13.00000 "/>
    <path  style="fill: none; stroke: rgb(0, 0, 0); stroke-width: 2.0;" d="M32.00000,32.00000 L0.00000,32.00000 "/>
    <path  style="fill: none; stroke: rgb(0, 0, 0); stroke-width: 2.0;" d="M230.00000,230.00000 L162.00000,230.00000 "/>
    <path  style="fill: none; stroke: rgb(0, 0, 0); stroke-width: 2.0;" d="M245.00000,245.00000 L128.00000,245.00000 "/>
    <path  style="fill: none; stroke: rgb(0, 0, 0); stroke-width: 2.0;" d="M151.00000,151.00000 L150.00000,151.00000 "/>
    <path  style="fill: none; stroke: rgb(0, 0, 0); stroke-width: 2.0;" d="M126.00000,126.00000 L54.00000,126.00000 "/>
    <path  style="fill: none; stroke: rgb(0, 0, 0); stroke-width: 2.0;" d="M102.00000,102.00000 L32.00000,102.00000 "/>
    <path  style="fill: none; stroke: rgb(0, 0, 0); stroke-width: 2.0;" d="M75.00000,75.00000 L10.00000,75.00000 "/>
    <path  style="fill: none; stroke: rgb(0, 0, 0); stroke-width: 2.0;" d="M20.00000,20.00000 L0.00000,20.00000 "/>
    <path  style="fill: none; stroke: rgb(0, 0, 0); stroke-width: 2.0;" d="M183.00000,183.00000 L151.00000,183.00000 "/>
    <path  style="fill: none; stroke: rgb(0, 0, 0); stroke-width: 2.0;" d="M245.00000,245.00000 L84.00000,245.00000 "/>
    <path  style="fill: none; stroke: rgb(0, 0, 0); stroke-width: 2.0;" d="M174.00000,174.00000 L142.00000,174.00000 "/>
    <path  style="fill: none; stroke: rgb(0, 0, 0); stroke-width: 2.0;" d="M221.00000,221.00000 L88.00000,221.00000 "/>
    <path  style="fill: none; stroke: rgb(0, 0, 0); stroke-width: 2.0;" d="M23.00000,23.00000 L7.00000,23.00000 "/>
    <path  style="fill: none; stroke: rgb(0, 0, 0); stroke-width: 2.0;" d="M94.00000,94.00000 L78.00000,94.00000 "/>
    <path  style="fill: none; stroke: rgb(0, 0, 0); stroke-width: 2.0;" d="M66.00000,66.00000 L2.00000,66.00000 "/>
    <path  style="fill: none; stroke: rgb(0, 0, 0); stroke-width: 2.0;" d="M240.00000,240.00000 L32.00000,240.00000 "/>
    <path  style="fill: none; stroke: rgb(0, 0, 0); stroke-width: 2.0;" d="M84.00000,84.00000 L4.00000,84.00000 "/>
    <path  style="fill: none; stroke: rgb(0, 0, 0); stroke-width: 2.0;" d="M219.00000,219.00000 L2.00000,219.00000 "/>
    <path  style="fill: none; stroke: rgb(0, 0, 0); stroke-width: 2.0;" d="M195.00000,195.00000 L129.00000,195.00000 "/>
    <path  style="fill: none; stroke: rgb(0, 0, 0); stroke-width: 2.0;" d="M238.00000,238.00000 L72.00000,238.00000 "/>
    <path  style="fill: none; stroke: rgb(0, 0, 0); stroke-width: 2.0;" d="M92.00000,92.00000 L64.00000,92.00000 "/>
    <path  style="fill: none; stroke: rgb(0, 0, 0); stroke-width: 2.0;" d="M68.00000,68.00000 L4.00000,68.00000 "/>
    <path  style="fill: none; stroke: rgb(0, 0, 0); stroke-width: 2.0;" d="M22.00000,22.00000 L18.00000,22.00000 "/>
    <path  style="fill: none; stroke: rgb(0, 0, 0); stroke-width: 2.0;" d="M41.00000,41.00000 L0.00000,41.00000 "/>
    <path  style="fill: none; stroke: rgb(0, 0, 0); stroke-width: 2.0;" d="M206.00000,206.00000 L140.00000,206.00000 "/>

<script>
let svgs = document.children[0];
let paths = Array.from(svgs.children).filter(function(c) {
    var orig = c.style.stroke;
    c.onmouseover = function() {
        c.style.stroke = "rgb(0, 0, 255)";
    };
    c.onmouseout = function () {
        c.style.stroke = orig;
    };
    c.onclick = function () {
        svgs.removeChild()
    }
});

for (let path of paths) {
    console.log(path);
}
</script></svg>