<svg xmlns="http://www.w3.org/2000/svg" viewBox="0 0 255 255">
    <path  style="fill: none; stroke: rgb(0, 0, 0); stroke-width: 2.0;" d="M75.00000,125.00000 L0.00000,61.00000 "/>
    <path  style="fill: none; stroke: rgb(0, 0, 0); stroke-width: 2.0;" d="M18.00000,121.00000 L0.00000,199.00000 "/>
    <path  style="fill: none; stroke: rgb(0, 0, 0); stroke-width: 2.0;" d="M177.00000,229.00000 L0.00000,170.00000 "/>
    <path  style="fill: none; stroke: rgb(0, 0, 0); stroke-width: 2.0;" d="M225.00000,243.00000 L0.00000,169.00000 "/>
    <path  style="fill: none; stroke: rgb(0, 0, 0); stroke-width: 2.0;" d="M93.00000,57.00000 L0.00000,253.00000 "/>
    <path  style="fill: none; stroke: rgb(0, 0, 0); stroke-width: 2.0;" d="M168.00000,41.00000 L0.00000,156.00000 "/>
    <path  style="fill: none; stroke: rgb(0, 0, 0); stroke-width: 2.0;" d="M126.00000,170.00000 L0.00000,2.00000 "/>
    <path  style="fill: none; stroke: rgb(0, 0, 0); stroke-width: 2.0;" d="M30.00000,146.00000 L0.00000,83.00000 "/>
    <path  style="fill: none; stroke: rgb(0, 0, 0); stroke-width: 2.0;" d="M159.00000,125.00000 L0.00000,130.00000 "/>
    <path  style="fill: none; stroke: rgb(0, 0, 0); stroke-width: 2.0;" d="M72.00000,105.00000 L0.00000,219.00000 "/>
    <path  style="fill: none; stroke: rgb(0, 0, 0); stroke-width: 2.0;" d="M123.00000,165.00000 L0.00000,69.00000 "/>
    <path  style="fill: none; stroke: rgb(0, 0, 0); stroke-width: 2.0;" d="M57.00000,89.00000 L0.00000,216.00000 "/>
    <path  style="fill: none; stroke: rgb(0, 0, 0); stroke-width: 2.0;" d="M159.00000,144.00000 L0.00000,4.00000 "/>
    <path  style="fill: none; stroke: rgb(0, 0, 0); stroke-width: 2.0;" d="M51.00000,118.00000 L0.00000,136.00000 "/>
    <path  style="fill: none; stroke: rgb(0, 0, 0); stroke-width: 2.0;" d="M180.00000,92.00000 L0.00000,251.00000 "/>
    <path  style="fill: none; stroke: rgb(0, 0, 0); stroke-width: 2.0;" d="M21.00000,0.00000 L0.00000,192.00000 "/>
    <path  style="fill: none; stroke: rgb(0, 0, 0); stroke-width: 2.0;" d="M39.00000,71.00000 L0.00000,71.00000 "/>
    <path  style="fill: none; stroke: rgb(0, 0, 0); stroke-width: 2.0;" d="M42.00000,73.00000 L0.00000,231.00000 "/>
    <path  style="fill: none; stroke: rgb(0, 0, 0); stroke-width: 2.0;" d="M225.00000,175.00000 L0.00000,140.00000 "/>
    <path  style="fill: none; stroke: rgb(0, 0, 0); stroke-width: 2.0;" d="M126.00000,174.00000 L0.00000,8.00000 "/>
    <path  style="fill: none; stroke: rgb(0, 0, 0); stroke-width: 2.0;" d="M48.00000,251.00000 L0.00000,10.00000 "/>
    <path  style="fill: none; stroke: rgb(0, 0, 0); stroke-width: 2.0;" d="M192.00000,193.00000 L0.00000,191.00000 "/>
    <path  style="fill: none; stroke: rgb(0, 0, 0); stroke-width: 2.0;" d="M219.00000,110.00000 L0.00000,228.00000 "/>
    <path  style="fill: none; stroke: rgb(0, 0, 0); stroke-width: 2.0;" d="M225.00000,102.00000 L0.00000,212.00000 "/>
    <path  style="fill: none; stroke: rgb(0, 0, 0); stroke-width: 2.0;" d="M180.00000,217.00000 L0.00000,205.00000 "/>
    <path  style="fill: none; stroke: rgb(0, 0, 0); stroke-width: 2.0;" d="M246.00000,60.00000 L0.00000,230.00000 "/>
    <path  style="fill: none; stroke: rgb(0, 0, 0); stroke-width: 2.0;" d="M201.00000,68.00000 L0.00000,107.00000 "/>
    <path  style="fill: none; stroke: rgb(0, 0, 0); stroke-width: 2.0;" d="M6.00000,188.00000 L0.00000,1.00000 "/>
    <path  style="fill: none; stroke: rgb(0, 0, 0); stroke-width: 2.0;" d="M12.00000,29.00000 L0.00000,140.00000 "/>
    <path  style="fill: none; stroke: rgb(0, 0, 0); stroke-width: 2.0;" d="M231.00000,187.00000 L0.00000,194.00000 "/>
    <path  style="fill: none; stroke: rgb(0, 0, 0); stroke-width: 2.0;" d="M39.00000,70.00000 L0.00000,236.00000 "/>
    <path  style="fill: none; stroke: rgb(0, 0, 0); stroke-width: 2.0;" d="M42.00000,253.00000 L0.00000,179.00000 "/>
    <path  style="fill: none; stroke: rgb(0, 0, 0); stroke-width: 2.0;" d="M168.00000,79.00000 L0.00000,103.00000 "/>
    <path  style="fill: none; stroke: rgb(0, 0, 0); stroke-width: 2.0;" d="M210.00000,116.00000 L0.00000,100.00000 "/>
    <path  style="fill: none; stroke: rgb(0, 0, 0); stroke-width: 2.0;" d="M147.00000,143.00000 L0.00000,144.00000 "/>
    <path  style="fill: none; stroke: rgb(0, 0, 0); stroke-width: 2.0;" d="M117.00000,227.00000 L0.00000,100.00000 "/>
    <path  style="fill: none; stroke: rgb(0, 0, 0); stroke-width: 2.0;" d="M183.00000,38.00000 L0.00000,89.00000 "/>
    <path  style="fill: none; stroke: rgb(0, 0, 0); stroke-width: 2.0;" d="M3.00000,61.00000 L0.00000,18.00000 "/>
    <path  style="fill: none; stroke: rgb(0, 0, 0); stroke-width: 2.0;" d="M243.00000,148.00000 L0.00000,213.00000 "/>
    <path  style="fill: none; stroke: rgb(0, 0, 0); stroke-width: 2.0;" d="M228.00000,171.00000 L0.00000,151.00000 "/>
    <path  style="fill: none; stroke: rgb(0, 0, 0); stroke-width: 2.0;" d="M246.00000,94.00000 L0.00000,8.00000 "/>
    <path  style="fill: none; stroke: rgb(0, 0, 0); stroke-width: 2.0;" d="M162.00000,29.00000 L0.00000,173.00000 "/>
    <path  style="fill: none; stroke: rgb(0, 0, 0); stroke-width: 2.0;" d="M171.00000,240.00000 L0.00000,207.00000 "/>
    <path  style="fill: none; stroke: rgb(0, 0, 0); stroke-width: 2.0;" d="M213.00000,135.00000 L0.00000,138.00000 "/>
    <path  style="fill: none; stroke: rgb(0, 0, 0); stroke-width: 2.0;" d="M93.00000,189.00000 L0.00000,62.00000 "/>
    <path  style="fill: none; stroke: rgb(0, 0, 0); stroke-width: 2.0;" d="M225.00000,22.00000 L0.00000,53.00000 "/>
    <path  style="fill: none; stroke: rgb(0, 0, 0); stroke-width: 2.0;" d="M39.00000,205.00000 L0.00000,109.00000 "/>
    <path  style="fill: none; stroke: rgb(0, 0, 0); stroke-width: 2.0;" d="M45.00000,177.00000 L0.00000,114.00000 "/>
    <path  style="fill: none; stroke: rgb(0, 0, 0); stroke-width: 2.0;" d="M75.00000,13.00000 L0.00000,58.00000 "/>
    <path  style="fill: none; stroke: rgb(0, 0, 0); stroke-width: 2.0;" d="M195.00000,229.00000 L0.00000,180.00000 "/>
    <path  style="fill: none; stroke: rgb(0, 0, 0); stroke-width: 2.0;" d="M39.00000,26.00000 L0.00000,37.00000 "/>
    <path  style="fill: none; stroke: rgb(0, 0, 0); stroke-width: 2.0;" d="M102.00000,141.00000 L0.00000,155.00000 "/>
    <path  style="fill: none; stroke: rgb(0, 0, 0); stroke-width: 2.0;" d="M117.00000,182.00000 L0.00000,101.00000 "/>
    <path  style="fill: none; stroke: rgb(0, 0, 0); stroke-width: 2.0;" d="M99.00000,10.00000 L0.00000,220.00000 "/>
    <path  style="fill: none; stroke: rgb(0, 0, 0); stroke-width: 2.0;" d="M27.00000,10.00000 L0.00000,140.00000 "/>
    <path  style="fill: none; stroke: rgb(0, 0, 0); stroke-width: 2.0;" d="M24.00000,27.00000 L0.00000,42.00000 "/>
    <path  style="fill: none; stroke: rgb(0, 0, 0); stroke-width: 2.0;" d="M252.00000,112.00000 L0.00000,100.00000 "/>
    <path  style="fill: none; stroke: rgb(0, 0, 0); stroke-width: 2.0;" d="M150.00000,187.00000 L0.00000,43.00000 "/>
    <path  style="fill: none; stroke: rgb(0, 0, 0); stroke-width: 2.0;" d="M207.00000,228.00000 L0.00000,27.00000 "/>
    <path  style="fill: none; stroke: rgb(0, 0, 0); stroke-width: 2.0;" d="M108.00000,225.00000 L0.00000,227.00000 "/>
    <path  style="fill: none; stroke: rgb(0, 0, 0); stroke-width: 2.0;" d="M171.00000,94.00000 L0.00000,49.00000 "/>
    <path  style="fill: none; stroke: rgb(0, 0, 0); stroke-width: 2.0;" d="M84.00000,90.00000 L0.00000,51.00000 "/>
    <path  style="fill: none; stroke: rgb(0, 0, 0); stroke-width: 2.0;" d="M24.00000,21.00000 L0.00000,154.00000 "/>
    <path  style="fill: none; stroke: rgb(0, 0, 0); stroke-width: 2.0;" d="M132.00000,98.00000 L0.00000,127.00000 "/>
    <path  style="fill: none; stroke: rgb(0, 0, 0); stroke-width: 2.0;" d="M177.00000,252.00000 L0.00000,242.00000 "/>
    <path  style="fill: none; stroke: rgb(0, 0, 0); stroke-width: 2.0;" d="M222.00000,199.00000 L0.00000,181.00000 "/>
    <path  style="fill: none; stroke: rgb(0, 0, 0); stroke-width: 2.0;" d="M252.00000,253.00000 L0.00000,92.00000 "/>
    <path  style="fill: none; stroke: rgb(0, 0, 0); stroke-width: 2.0;" d="M66.00000,205.00000 L0.00000,155.00000 "/>
    <path  style="fill: none; stroke: rgb(0, 0, 0); stroke-width: 2.0;" d="M99.00000,154.00000 L0.00000,125.00000 "/>
    <path  style="fill: none; stroke: rgb(0, 0, 0); stroke-width: 2.0;" d="M93.00000,123.00000 L0.00000,163.00000 "/>
    <path  style="fill: none; stroke: rgb(0, 0, 0); stroke-width: 2.0;" d="M3.00000,29.00000 L0.00000,249.00000 "/>
    <path  style="fill: none; stroke: rgb(0, 0, 0); stroke-width: 2.0;" d="M45.00000,80.00000 L0.00000,211.00000 "/>
    <path  style="fill: none; stroke: rgb(0, 0, 0); stroke-width: 2.0;" d="M156.00000,246.00000 L0.00000,1.00000 "/>
    <path  style="fill: none; stroke: rgb(0, 0, 0); stroke-width: 2.0;" d="M9.00000,26.00000 L0.00000,166.00000 "/>
    <path  style="fill: none; stroke: rgb(0, 0, 0); stroke-width: 2.0;" d="M81.00000,146.00000 L0.00000,122.00000 "/>
    <path  style="fill: none; stroke: rgb(0, 0, 0); stroke-width: 2.0;" d="M177.00000,221.00000 L0.00000,200.00000 "/>
    <path  style="fill: none; stroke: rgb(0, 0, 0); stroke-width: 2.0;" d="M51.00000,230.00000 L0.00000,13.00000 "/>
    <path  style="fill: none; stroke: rgb(0, 0, 0); stroke-width: 2.0;" d="M21.00000,135.00000 L0.00000,76.00000 "/>
    <path  style="fill: none; stroke: rgb(0, 0, 0); stroke-width: 2.0;" d="M30.00000,35.00000 L0.00000,247.00000 "/>
    <path  style="fill: none; stroke: rgb(0, 0, 0); stroke-width: 2.0;" d="M78.00000,126.00000 L0.00000,63.00000 "/>
    <path  style="fill: none; stroke: rgb(0, 0, 0); stroke-width: 2.0;" d="M45.00000,158.00000 L0.00000,107.00000 "/>
    <path  style="fill: none; stroke: rgb(0, 0, 0); stroke-width: 2.0;" d="M51.00000,42.00000 L0.00000,53.00000 "/>
    <path  style="fill: none; stroke: rgb(0, 0, 0); stroke-width: 2.0;" d="M6.00000,231.00000 L0.00000,213.00000 "/>
    <path  style="fill: none; stroke: rgb(0, 0, 0); stroke-width: 2.0;" d="M138.00000,193.00000 L0.00000,127.00000 "/>
    <path  style="fill: none; stroke: rgb(0, 0, 0); stroke-width: 2.0;" d="M105.00000,207.00000 L0.00000,61.00000 "/>
    <path  style="fill: none; stroke: rgb(0, 0, 0); stroke-width: 2.0;" d="M159.00000,108.00000 L0.00000,193.00000 "/>
    <path  style="fill: none; stroke: rgb(0, 0, 0); stroke-width: 2.0;" d="M210.00000,228.00000 L0.00000,171.00000 "/>
    <path  style="fill: none; stroke: rgb(0, 0, 0); stroke-width: 2.0;" d="M48.00000,114.00000 L0.00000,38.00000 "/>
    <path  style="fill: none; stroke: rgb(0, 0, 0); stroke-width: 2.0;" d="M18.00000,148.00000 L0.00000,68.00000 "/>
    <path  style="fill: none; stroke: rgb(0, 0, 0); stroke-width: 2.0;" d="M39.00000,54.00000 L0.00000,183.00000 "/>
    <path  style="fill: none; stroke: rgb(0, 0, 0); stroke-width: 2.0;" d="M24.00000,234.00000 L0.00000,65.00000 "/>
    <path  style="fill: none; stroke: rgb(0, 0, 0); stroke-width: 2.0;" d="M237.00000,115.00000 L0.00000,84.00000 "/>
    <path  style="fill: none; stroke: rgb(0, 0, 0); stroke-width: 2.0;" d="M51.00000,130.00000 L0.00000,142.00000 "/>
    <path  style="fill: none; stroke: rgb(0, 0, 0); stroke-width: 2.0;" d="M222.00000,145.00000 L0.00000,237.00000 "/>
    <path  style="fill: none; stroke: rgb(0, 0, 0); stroke-width: 2.0;" d="M54.00000,249.00000 L0.00000,167.00000 "/>
    <path  style="fill: none; stroke: rgb(0, 0, 0); stroke-width: 2.0;" d="M123.00000,210.00000 L0.00000,207.00000 "/>
    <path  style="fill: none; stroke: rgb(0, 0, 0); stroke-width: 2.0;" d="M204.00000,223.00000 L0.00000,205.00000 "/>
    <path  style="fill: none; stroke: rgb(0, 0, 0); stroke-width: 2.0;" d="M204.00000,180.00000 L0.00000,4.00000 "/>
    <path  style="fill: none; stroke: rgb(0, 0, 0); stroke-width: 2.0;" d="M147.00000,127.00000 L0.00000,224.00000 "/>
    <path  style="fill: none; stroke: rgb(0, 0, 0); stroke-width: 2.0;" d="M228.00000,197.00000 L0.00000,200.00000 "/>
    <path  style="fill: none; stroke: rgb(0, 0, 0); stroke-width: 2.0;" d="M210.00000,195.00000 L0.00000,165.00000 "/>
    <path  style="fill: none; stroke: rgb(0, 0, 0); stroke-width: 2.0;" d="M252.00000,162.00000 L0.00000,7.00000 "/>
    <path  style="fill: none; stroke: rgb(0, 0, 0); stroke-width: 2.0;" d="M150.00000,253.00000 L0.00000,13.00000 "/>
    <path  style="fill: none; stroke: rgb(0, 0, 0); stroke-width: 2.0;" d="M21.00000,6.00000 L0.00000,197.00000 "/>
    <path  style="fill: none; stroke: rgb(0, 0, 0); stroke-width: 2.0;" d="M174.00000,68.00000 L0.00000,100.00000 "/>
    <path  style="fill: none; stroke: rgb(0, 0, 0); stroke-width: 2.0;" d="M96.00000,247.00000 L0.00000,229.00000 "/>
    <path  style="fill: none; stroke: rgb(0, 0, 0); stroke-width: 2.0;" d="M15.00000,193.00000 L0.00000,161.00000 "/>
    <path  style="fill: none; stroke: rgb(0, 0, 0); stroke-width: 2.0;" d="M30.00000,3.00000 L0.00000,196.00000 "/>
    <path  style="fill: none; stroke: rgb(0, 0, 0); stroke-width: 2.0;" d="M42.00000,3.00000 L0.00000,190.00000 "/>
    <path  style="fill: none; stroke: rgb(0, 0, 0); stroke-width: 2.0;" d="M189.00000,76.00000 L0.00000,85.00000 "/>
    <path  style="fill: none; stroke: rgb(0, 0, 0); stroke-width: 2.0;" d="M210.00000,100.00000 L0.00000,19.00000 "/>
    <path  style="fill: none; stroke: rgb(0, 0, 0); stroke-width: 2.0;" d="M210.00000,150.00000 L0.00000,134.00000 "/>
    <path  style="fill: none; stroke: rgb(0, 0, 0); stroke-width: 2.0;" d="M183.00000,212.00000 L0.00000,160.00000 "/>
    <path  style="fill: none; stroke: rgb(0, 0, 0); stroke-width: 2.0;" d="M21.00000,248.00000 L0.00000,15.00000 "/>
    <path  style="fill: none; stroke: rgb(0, 0, 0); stroke-width: 2.0;" d="M213.00000,250.00000 L0.00000,174.00000 "/>
    <path  style="fill: none; stroke: rgb(0, 0, 0); stroke-width: 2.0;" d="M237.00000,130.00000 L0.00000,225.00000 "/>
    <path  style="fill: none; stroke: rgb(0, 0, 0); stroke-width: 2.0;" d="M90.00000,223.00000 L0.00000,160.00000 "/>
    <path  style="fill: none; stroke: rgb(0, 0, 0); stroke-width: 2.0;" d="M219.00000,247.00000 L0.00000,94.00000 "/>
    <path  style="fill: none; stroke: rgb(0, 0, 0); stroke-width: 2.0;" d="M96.00000,225.00000 L0.00000,208.00000 "/>
    <path  style="fill: none; stroke: rgb(0, 0, 0); stroke-width: 2.0;" d="M66.00000,191.00000 L0.00000,112.00000 "/>
    <path  style="fill: none; stroke: rgb(0, 0, 0); stroke-width: 2.0;" d="M72.00000,14.00000 L0.00000,7.00000 "/>
    <path  style="fill: none; stroke: rgb(0, 0, 0); stroke-width: 2.0;" d="M69.00000,89.00000 L0.00000,241.00000 "/>
    <path  style="fill: none; stroke: rgb(0, 0, 0); stroke-width: 2.0;" d="M234.00000,128.00000 L0.00000,31.00000 "/>
    <path  style="fill: none; stroke: rgb(0, 0, 0); stroke-width: 2.0;" d="M159.00000,238.00000 L0.00000,13.00000 "/>
    <path  style="fill: none; stroke: rgb(0, 0, 0); stroke-width: 2.0;" d="M216.00000,7.00000 L0.00000,44.00000 "/>
    <path  style="fill: none; stroke: rgb(0, 0, 0); stroke-width: 2.0;" d="M75.00000,254.00000 L0.00000,4.00000 "/>
    <path  style="fill: none; stroke: rgb(0, 0, 0); stroke-width: 2.0;" d="M159.00000,187.00000 L0.00000,151.00000 "/>
    <path  style="fill: none; stroke: rgb(0, 0, 0); stroke-width: 2.0;" d="M168.00000,77.00000 L0.00000,229.00000 "/>
    <path  style="fill: none; stroke: rgb(0, 0, 0); stroke-width: 2.0;" d="M171.00000,239.00000 L0.00000,16.00000 "/>
    <path  style="fill: none; stroke: rgb(0, 0, 0); stroke-width: 2.0;" d="M57.00000,106.00000 L0.00000,135.00000 "/>
    <path  style="fill: none; stroke: rgb(0, 0, 0); stroke-width: 2.0;" d="M39.00000,235.00000 L0.00000,18.00000 "/>
    <path  style="fill: none; stroke: rgb(0, 0, 0); stroke-width: 2.0;" d="M6.00000,4.00000 L0.00000,76.00000 "/>
    <path  style="fill: none; stroke: rgb(0, 0, 0); stroke-width: 2.0;" d="M162.00000,37.00000 L0.00000,109.00000 "/>
    <path  style="fill: none; stroke: rgb(0, 0, 0); stroke-width: 2.0;" d="M69.00000,44.00000 L0.00000,252.00000 "/>
    <path  style="fill: none; stroke: rgb(0, 0, 0); stroke-width: 2.0;" d="M150.00000,46.00000 L0.00000,30.00000 "/>
    <path  style="fill: none; stroke: rgb(0, 0, 0); stroke-width: 2.0;" d="M189.00000,116.00000 L0.00000,137.00000 "/>
    <path  style="fill: none; stroke: rgb(0, 0, 0); stroke-width: 2.0;" d="M93.00000,31.00000 L0.00000,32.00000 "/>
    <path  style="fill: none; stroke: rgb(0, 0, 0); stroke-width: 2.0;" d="M252.00000,221.00000 L0.00000,143.00000 "/>
    <path  style="fill: none; stroke: rgb(0, 0, 0); stroke-width: 2.0;" d="M6.00000,126.00000 L0.00000,15.00000 "/>
    <path  style="fill: none; stroke: rgb(0, 0, 0); stroke-width: 2.0;" d="M117.00000,228.00000 L0.00000,132.00000 "/>
    <path  style="fill: none; stroke: rgb(0, 0, 0); stroke-width: 2.0;" d="M93.00000,57.00000 L0.00000,248.00000 "/>
    <path  style="fill: none; stroke: rgb(0, 0, 0); stroke-width: 2.0;" d="M3.00000,162.00000 L0.00000,90.00000 "/>
    <path  style="fill: none; stroke: rgb(0, 0, 0); stroke-width: 2.0;" d="M252.00000,75.00000 L0.00000,143.00000 "/>
    <path  style="fill: none; stroke: rgb(0, 0, 0); stroke-width: 2.0;" d="M129.00000,207.00000 L0.00000,171.00000 "/>
    <path  style="fill: none; stroke: rgb(0, 0, 0); stroke-width: 2.0;" d="M51.00000,79.00000 L0.00000,87.00000 "/>
    <path  style="fill: none; stroke: rgb(0, 0, 0); stroke-width: 2.0;" d="M27.00000,151.00000 L0.00000,20.00000 "/>
    <path  style="fill: none; stroke: rgb(0, 0, 0); stroke-width: 2.0;" d="M33.00000,192.00000 L0.00000,151.00000 "/>
    <path  style="fill: none; stroke: rgb(0, 0, 0); stroke-width: 2.0;" d="M186.00000,230.00000 L0.00000,105.00000 "/>
    <path  style="fill: none; stroke: rgb(0, 0, 0); stroke-width: 2.0;" d="M228.00000,135.00000 L0.00000,168.00000 "/>
    <path  style="fill: none; stroke: rgb(0, 0, 0); stroke-width: 2.0;" d="M63.00000,32.00000 L0.00000,6.00000 "/>
    <path  style="fill: none; stroke: rgb(0, 0, 0); stroke-width: 2.0;" d="M27.00000,62.00000 L0.00000,197.00000 "/>
    <path  style="fill: none; stroke: rgb(0, 0, 0); stroke-width: 2.0;" d="M216.00000,231.00000 L0.00000,188.00000 "/>
    <path  style="fill: none; stroke: rgb(0, 0, 0); stroke-width: 2.0;" d="M69.00000,201.00000 L0.00000,10.00000 "/>
    <path  style="fill: none; stroke: rgb(0, 0, 0); stroke-width: 2.0;" d="M138.00000,142.00000 L0.00000,200.00000 "/>
    <path  style="fill: none; stroke: rgb(0, 0, 0); stroke-width: 2.0;" d="M123.00000,19.00000 L0.00000,92.00000 "/>
    <path  style="fill: none; stroke: rgb(0, 0, 0); stroke-width: 2.0;" d="M15.00000,245.00000 L0.00000,32.00000 "/>
    <path  style="fill: none; stroke: rgb(0, 0, 0); stroke-width: 2.0;" d="M132.00000,129.00000 L0.00000,73.00000 "/>
    <path  style="fill: none; stroke: rgb(0, 0, 0); stroke-width: 2.0;" d="M120.00000,149.00000 L0.00000,224.00000 "/>
    <path  style="fill: none; stroke: rgb(0, 0, 0); stroke-width: 2.0;" d="M144.00000,167.00000 L0.00000,59.00000 "/>
    <path  style="fill: none; stroke: rgb(0, 0, 0); stroke-width: 2.0;" d="M222.00000,154.00000 L0.00000,154.00000 "/>
    <path  style="fill: none; stroke: rgb(0, 0, 0); stroke-width: 2.0;" d="M141.00000,143.00000 L0.00000,205.00000 "/>
    <path  style="fill: none; stroke: rgb(0, 0, 0); stroke-width: 2.0;" d="M99.00000,165.00000 L0.00000,52.00000 "/>
    <path  style="fill: none; stroke: rgb(0, 0, 0); stroke-width: 2.0;" d="M87.00000,254.00000 L0.00000,210.00000 "/>
    <path  style="fill: none; stroke: rgb(0, 0, 0); stroke-width: 2.0;" d="M102.00000,68.00000 L0.00000,192.00000 "/>
    <path  style="fill: none; stroke: rgb(0, 0, 0); stroke-width: 2.0;" d="M141.00000,147.00000 L0.00000,147.00000 "/>
    <path  style="fill: none; stroke: rgb(0, 0, 0); stroke-width: 2.0;" d="M66.00000,98.00000 L0.00000,68.00000 "/>
    <path  style="fill: none; stroke: rgb(0, 0, 0); stroke-width: 2.0;" d="M165.00000,0.00000 L0.00000,16.00000 "/>
    <path  style="fill: none; stroke: rgb(0, 0, 0); stroke-width: 2.0;" d="M120.00000,145.00000 L0.00000,143.00000 "/>
    <path  style="fill: none; stroke: rgb(0, 0, 0); stroke-width: 2.0;" d="M201.00000,86.00000 L0.00000,31.00000 "/>
    <path  style="fill: none; stroke: rgb(0, 0, 0); stroke-width: 2.0;" d="M144.00000,36.00000 L0.00000,238.00000 "/>
    <path  style="fill: none; stroke: rgb(0, 0, 0); stroke-width: 2.0;" d="M243.00000,0.00000 L0.00000,8.00000 "/>
    <path  style="fill: none; stroke: rgb(0, 0, 0); stroke-width: 2.0;" d="M84.00000,16.00000 L0.00000,0.00000 "/>
    <path  style="fill: none; stroke: rgb(0, 0, 0); stroke-width: 2.0;" d="M177.00000,87.00000 L0.00000,64.00000 "/>
    <path  style="fill: none; stroke: rgb(0, 0, 0); stroke-width: 2.0;" d="M42.00000,55.00000 L0.00000,184.00000 "/>
    <path  style="fill: none; stroke: rgb(0, 0, 0); stroke-width: 2.0;" d="M144.00000,10.00000 L0.00000,21.00000 "/>
    <path  style="fill: none; stroke: rgb(0, 0, 0); stroke-width: 2.0;" d="M102.00000,159.00000 L0.00000,142.00000 "/>
    <path  style="fill: none; stroke: rgb(0, 0, 0); stroke-width: 2.0;" d="M171.00000,188.00000 L0.00000,212.00000 "/>
    <path  style="fill: none; stroke: rgb(0, 0, 0); stroke-width: 2.0;" d="M198.00000,17.00000 L0.00000,189.00000 "/>
    <path  style="fill: none; stroke: rgb(0, 0, 0); stroke-width: 2.0;" d="M21.00000,6.00000 L0.00000,252.00000 "/>
    <path  style="fill: none; stroke: rgb(0, 0, 0); stroke-width: 2.0;" d="M225.00000,31.00000 L0.00000,179.00000 "/>
    <path  style="fill: none; stroke: rgb(0, 0, 0); stroke-width: 2.0;" d="M216.00000,185.00000 L0.00000,189.00000 "/>
    <path  style="fill: none; stroke: rgb(0, 0, 0); stroke-width: 2.0;" d="M252.00000,89.00000 L0.00000,233.00000 "/>
    <path  style="fill: none; stroke: rgb(0, 0, 0); stroke-width: 2.0;" d="M252.00000,140.00000 L0.00000,58.00000 "/>
    <path  style="fill: none; stroke: rgb(0, 0, 0); stroke-width: 2.0;" d="M246.00000,239.00000 L0.00000,127.00000 "/>
    <path  style="fill: none; stroke: rgb(0, 0, 0); stroke-width: 2.0;" d="M9.00000,3.00000 L0.00000,17.00000 "/>
    <path  style="fill: none; stroke: rgb(0, 0, 0); stroke-width: 2.0;" d="M24.00000,49.00000 L0.00000,167.00000 "/>
    <path  style="fill: none; stroke: rgb(0, 0, 0); stroke-width: 2.0;" d="M126.00000,52.00000 L0.00000,52.00000 "/>
    <path  style="fill: none; stroke: rgb(0, 0, 0); stroke-width: 2.0;" d="M21.00000,119.00000 L0.00000,72.00000 "/>
    <path  style="fill: none; stroke: rgb(0, 0, 0); stroke-width: 2.0;" d="M42.00000,127.00000 L0.00000,232.00000 "/>
    <path  style="fill: none; stroke: rgb(0, 0, 0); stroke-width: 2.0;" d="M204.00000,16.00000 L0.00000,84.00000 "/>
    <path  style="fill: none; stroke: rgb(0, 0, 0); stroke-width: 2.0;" d="M63.00000,33.00000 L0.00000,161.00000 "/>
    <path  style="fill: none; stroke: rgb(0, 0, 0); stroke-width: 2.0;" d="M195.00000,197.00000 L0.00000,164.00000 "/>
    <path  style="fill: none; stroke: rgb(0, 0, 0); stroke-width: 2.0;" d="M240.00000,49.00000 L0.00000,169.00000 "/>
    <path  style="fill: none; stroke: rgb(0, 0, 0); stroke-width: 2.0;" d="M0.00000,134.00000 L0.00000,67.00000 "/>
    <path  style="fill: none; stroke: rgb(0, 0, 0); stroke-width: 2.0;" d="M42.00000,95.00000 L0.00000,204.00000 "/>
    <path  style="fill: none; stroke: rgb(0, 0, 0); stroke-width: 2.0;" d="M78.00000,92.00000 L0.00000,144.00000 "/>
    <path  style="fill: none; stroke: rgb(0, 0, 0); stroke-width: 2.0;" d="M111.00000,71.00000 L0.00000,86.00000 "/>
    <path  style="fill: none; stroke: rgb(0, 0, 0); stroke-width: 2.0;" d="M177.00000,245.00000 L0.00000,227.00000 "/>
    <path  style="fill: none; stroke: rgb(0, 0, 0); stroke-width: 2.0;" d="M87.00000,190.00000 L0.00000,194.00000 "/>
    <path  style="fill: none; stroke: rgb(0, 0, 0); stroke-width: 2.0;" d="M75.00000,82.00000 L0.00000,236.00000 "/>
    <path  style="fill: none; stroke: rgb(0, 0, 0); stroke-width: 2.0;" d="M198.00000,79.00000 L0.00000,222.00000 "/>
    <path  style="fill: none; stroke: rgb(0, 0, 0); stroke-width: 2.0;" d="M177.00000,84.00000 L0.00000,83.00000 "/>
    <path  style="fill: none; stroke: rgb(0, 0, 0); stroke-width: 2.0;" d="M243.00000,142.00000 L0.00000,33.00000 "/>
    <path  style="fill: none; stroke: rgb(0, 0, 0); stroke-width: 2.0;" d="M108.00000,145.00000 L0.00000,151.00000 "/>
    <path  style="fill: none; stroke: rgb(0, 0, 0); stroke-width: 2.0;" d="M240.00000,50.00000 L0.00000,47.00000 "/>
    <path  style="fill: none; stroke: rgb(0, 0, 0); stroke-width: 2.0;" d="M30.00000,17.00000 L0.00000,131.00000 "/>
    <path  style="fill: none; stroke: rgb(0, 0, 0); stroke-width: 2.0;" d="M234.00000,79.00000 L0.00000,190.00000 "/>
    <path  style="fill: none; stroke: rgb(0, 0, 0); stroke-width: 2.0;" d="M21.00000,151.00000 L0.00000,88.00000 "/>
    <path  style="fill: none; stroke: rgb(0, 0, 0); stroke-width: 2.0;" d="M210.00000,236.00000 L0.00000,13.00000 "/>
    <path  style="fill: none; stroke: rgb(0, 0, 0); stroke-width: 2.0;" d="M27.00000,254.00000 L0.00000,193.00000 "/>
    <path  style="fill: none; stroke: rgb(0, 0, 0); stroke-width: 2.0;" d="M210.00000,223.00000 L0.00000,154.00000 "/>
    <path  style="fill: none; stroke: rgb(0, 0, 0); stroke-width: 2.0;" d="M36.00000,31.00000 L0.00000,177.00000 "/>
    <path  style="fill: none; stroke: rgb(0, 0, 0); stroke-width: 2.0;" d="M210.00000,152.00000 L0.00000,15.00000 "/>
    <path  style="fill: none; stroke: rgb(0, 0, 0); stroke-width: 2.0;" d="M222.00000,113.00000 L0.00000,14.00000 "/>
    <path  style="fill: none; stroke: rgb(0, 0, 0); stroke-width: 2.0;" d="M93.00000,227.00000 L0.00000,33.00000 "/>
    <path  style="fill: none; stroke: rgb(0, 0, 0); stroke-width: 2.0;" d="M21.00000,49.00000 L0.00000,153.00000 "/>
    <path  style="fill: none; stroke: rgb(0, 0, 0); stroke-width: 2.0;" d="M225.00000,54.00000 L0.00000,85.00000 "/>
    <path  style="fill: none; stroke: rgb(0, 0, 0); stroke-width: 2.0;" d="M69.00000,222.00000 L0.00000,117.00000 "/>
    <path  style="fill: none; stroke: rgb(0, 0, 0); stroke-width: 2.0;" d="M201.00000,156.00000 L0.00000,139.00000 "/>
    <path  style="fill: none; stroke: rgb(0, 0, 0); stroke-width: 2.0;" d="M81.00000,22.00000 L0.00000,240.00000 "/>
    <path  style="fill: none; stroke: rgb(0, 0, 0); stroke-width: 2.0;" d="M0.00000,129.00000 L0.00000,193.00000 "/>
    <path  style="fill: none; stroke: rgb(0, 0, 0); stroke-width: 2.0;" d="M18.00000,237.00000 L0.00000,141.00000 "/>
    <path  style="fill: none; stroke: rgb(0, 0, 0); stroke-width: 2.0;" d="M132.00000,198.00000 L0.00000,9.00000 "/>
    <path  style="fill: none; stroke: rgb(0, 0, 0); stroke-width: 2.0;" d="M69.00000,183.00000 L0.00000,254.00000 "/>
    <path  style="fill: none; stroke: rgb(0, 0, 0); stroke-width: 2.0;" d="M159.00000,150.00000 L0.00000,35.00000 "/>
    <path  style="fill: none; stroke: rgb(0, 0, 0); stroke-width: 2.0;" d="M219.00000,111.00000 L0.00000,241.00000 "/>
    <path  style="fill: none; stroke: rgb(0, 0, 0); stroke-width: 2.0;" d="M33.00000,50.00000 L0.00000,74.00000 "/>
    <path  style="fill: none; stroke: rgb(0, 0, 0); stroke-width: 2.0;" d="M147.00000,205.00000 L0.00000,184.00000 "/>
    <path  style="fill: none; stroke: rgb(0, 0, 0); stroke-width: 2.0;" d="M126.00000,30.00000 L0.00000,86.00000 "/>
    <path  style="fill: none; stroke: rgb(0, 0, 0); stroke-width: 2.0;" d="M216.00000,233.00000 L0.00000,100.00000 "/>
    <path  style="fill: none; stroke: rgb(0, 0, 0); stroke-width: 2.0;" d="M9.00000,210.00000 L0.00000,233.00000 "/>
    <path  style="fill: none; stroke: rgb(0, 0, 0); stroke-width: 2.0;" d="M228.00000,195.00000 L0.00000,196.00000 "/>
    <path  style="fill: none; stroke: rgb(0, 0, 0); stroke-width: 2.0;" d="M63.00000,118.00000 L0.00000,133.00000 "/>
    <path  style="fill: none; stroke: rgb(0, 0, 0); stroke-width: 2.0;" d="M21.00000,25.00000 L0.00000,253.00000 "/>
    <path  style="fill: none; stroke: rgb(0, 0, 0); stroke-width: 2.0;" d="M69.00000,128.00000 L0.00000,176.00000 "/>
    <path  style="fill: none; stroke: rgb(0, 0, 0); stroke-width: 2.0;" d="M243.00000,159.00000 L0.00000,162.00000 "/>
    <path  style="fill: none; stroke: rgb(0, 0, 0); stroke-width: 2.0;" d="M54.00000,80.00000 L0.00000,82.00000 "/>
    <path  style="fill: none; stroke: rgb(0, 0, 0); stroke-width: 2.0;" d="M159.00000,181.00000 L0.00000,196.00000 "/>
    <path  style="fill: none; stroke: rgb(0, 0, 0); stroke-width: 2.0;" d="M15.00000,22.00000 L0.00000,130.00000 "/>
    <path  style="fill: none; stroke: rgb(0, 0, 0); stroke-width: 2.0;" d="M240.00000,114.00000 L0.00000,111.00000 "/>
    <path  style="fill: none; stroke: rgb(0, 0, 0); stroke-width: 2.0;" d="M87.00000,57.00000 L0.00000,229.00000 "/>
    <path  style="fill: none; stroke: rgb(0, 0, 0); stroke-width: 2.0;" d="M168.00000,129.00000 L0.00000,129.00000 "/>
    <path  style="fill: none; stroke: rgb(0, 0, 0); stroke-width: 2.0;" d="M69.00000,228.00000 L0.00000,4.00000 "/>
    <path  style="fill: none; stroke: rgb(0, 0, 0); stroke-width: 2.0;" d="M96.00000,88.00000 L0.00000,113.00000 "/>
    <path  style="fill: none; stroke: rgb(0, 0, 0); stroke-width: 2.0;" d="M174.00000,119.00000 L0.00000,114.00000 "/>
    <path  style="fill: none; stroke: rgb(0, 0, 0); stroke-width: 2.0;" d="M24.00000,57.00000 L0.00000,177.00000 "/>
    <path  style="fill: none; stroke: rgb(0, 0, 0); stroke-width: 2.0;" d="M6.00000,0.00000 L0.00000,192.00000 "/>
    <path  style="fill: none; stroke: rgb(0, 0, 0); stroke-width: 2.0;" d="M15.00000,35.00000 L0.00000,250.00000 "/>
    <path  style="fill: none; stroke: rgb(0, 0, 0); stroke-width: 2.0;" d="M231.00000,207.00000 L0.00000,25.00000 "/>
    <path  style="fill: none; stroke: rgb(0, 0, 0); stroke-width: 2.0;" d="M39.00000,239.00000 L0.00000,6.00000 "/>
    <path  style="fill: none; stroke: rgb(0, 0, 0); stroke-width: 2.0;" d="M186.00000,113.00000 L0.00000,49.00000 "/>
    <path  style="fill: none; stroke: rgb(0, 0, 0); stroke-width: 2.0;" d="M180.00000,22.00000 L0.00000,25.00000 "/>
    <path  style="fill: none; stroke: rgb(0, 0, 0); stroke-width: 2.0;" d="M57.00000,123.00000 L0.00000,212.00000 "/>
    <path  style="fill: none; stroke: rgb(0, 0, 0); stroke-width: 2.0;" d="M120.00000,217.00000 L0.00000,177.00000 "/>
    <path  style="fill: none; stroke: rgb(0, 0, 0); stroke-width: 2.0;" d="M189.00000,235.00000 L0.00000,28.00000 "/>

<script>
let svgs = document.children[0];
let paths = Array.from(svgs.children).filter(function(c) {
    var orig = c.style.stroke;
    c.onmouseover = function() {
        c.style.stroke = "rgb(0, 0, 255)";
    };
    c.onmouseout = function () {
        c.style.stroke = orig;
    };
    c.onclick = function () {
        svgs.removeChild()
    }
});

for (let path of paths) {
    console.log(path);
}
</script></svg>