<svg xmlns="http://www.w3.org/2000/svg" viewBox="0 0 255 255">
    <path  style="fill: none; stroke: rgb(0, 0, 0); stroke-width: 2.0;" d="M0.00000,160.00000 L240.00000,48.00000 "/>
    <path  style="fill: none; stroke: rgb(0, 0, 0); stroke-width: 2.0;" d="M0.00000,63.00000 L192.00000,91.00000 "/>
    <path  style="fill: none; stroke: rgb(0, 0, 0); stroke-width: 2.0;" d="M0.00000,31.00000 L64.00000,192.00000 "/>
    <path  style="fill: none; stroke: rgb(0, 0, 0); stroke-width: 2.0;" d="M0.00000,43.00000 L64.00000,227.00000 "/>
    <path  style="fill: none; stroke: rgb(0, 0, 0); stroke-width: 2.0;" d="M0.00000,29.00000 L94.00000,191.00000 "/>
    <path  style="fill: none; stroke: rgb(0, 0, 0); stroke-width: 2.0;" d="M0.00000,141.00000 L190.00000,198.00000 "/>
    <path  style="fill: none; stroke: rgb(0, 0, 0); stroke-width: 2.0;" d="M0.00000,51.00000 L52.00000,206.00000 "/>
    <path  style="fill: none; stroke: rgb(0, 0, 0); stroke-width: 2.0;" d="M0.00000,236.00000 L240.00000,56.00000 "/>
    <path  style="fill: none; stroke: rgb(0, 0, 0); stroke-width: 2.0;" d="M0.00000,204.00000 L254.00000,198.00000 "/>
    <path  style="fill: none; stroke: rgb(0, 0, 0); stroke-width: 2.0;" d="M0.00000,184.00000 L191.00000,105.00000 "/>
    <path  style="fill: none; stroke: rgb(0, 0, 0); stroke-width: 2.0;" d="M0.00000,160.00000 L191.00000,97.00000 "/>
    <path  style="fill: none; stroke: rgb(0, 0, 0); stroke-width: 2.0;" d="M0.00000,90.00000 L124.00000,140.00000 "/>
    <path  style="fill: none; stroke: rgb(0, 0, 0); stroke-width: 2.0;" d="M0.00000,240.00000 L242.00000,206.00000 "/>
    <path  style="fill: none; stroke: rgb(0, 0, 0); stroke-width: 2.0;" d="M0.00000,12.00000 L222.00000,34.00000 "/>
    <path  style="fill: none; stroke: rgb(0, 0, 0); stroke-width: 2.0;" d="M0.00000,90.00000 L219.00000,53.00000 "/>
    <path  style="fill: none; stroke: rgb(0, 0, 0); stroke-width: 2.0;" d="M0.00000,157.00000 L224.00000,169.00000 "/>
    <path  style="fill: none; stroke: rgb(0, 0, 0); stroke-width: 2.0;" d="M0.00000,206.00000 L0.00000,14.00000 "/>
    <path  style="fill: none; stroke: rgb(0, 0, 0); stroke-width: 2.0;" d="M0.00000,76.00000 L110.00000,214.00000 "/>
    <path  style="fill: none; stroke: rgb(0, 0, 0); stroke-width: 2.0;" d="M0.00000,129.00000 L132.00000,253.00000 "/>
    <path  style="fill: none; stroke: rgb(0, 0, 0); stroke-width: 2.0;" d="M0.00000,84.00000 L0.00000,84.00000 "/>
    <path  style="fill: none; stroke: rgb(0, 0, 0); stroke-width: 2.0;" d="M0.00000,162.00000 L0.00000,35.00000 "/>
    <path  style="fill: none; stroke: rgb(0, 0, 0); stroke-width: 2.0;" d="M0.00000,200.00000 L219.00000,101.00000 "/>
    <path  style="fill: none; stroke: rgb(0, 0, 0); stroke-width: 2.0;" d="M0.00000,117.00000 L120.00000,189.00000 "/>
    <path  style="fill: none; stroke: rgb(0, 0, 0); stroke-width: 2.0;" d="M0.00000,233.00000 L236.00000,53.00000 "/>
    <path  style="fill: none; stroke: rgb(0, 0, 0); stroke-width: 2.0;" d="M0.00000,220.00000 L221.00000,235.00000 "/>
    <path  style="fill: none; stroke: rgb(0, 0, 0); stroke-width: 2.0;" d="M0.00000,212.00000 L245.00000,203.00000 "/>
    <path  style="fill: none; stroke: rgb(0, 0, 0); stroke-width: 2.0;" d="M0.00000,203.00000 L0.00000,73.00000 "/>
    <path  style="fill: none; stroke: rgb(0, 0, 0); stroke-width: 2.0;" d="M0.00000,235.00000 L240.00000,210.00000 "/>
    <path  style="fill: none; stroke: rgb(0, 0, 0); stroke-width: 2.0;" d="M0.00000,13.00000 L176.00000,92.00000 "/>
    <path  style="fill: none; stroke: rgb(0, 0, 0); stroke-width: 2.0;" d="M0.00000,6.00000 L127.00000,133.00000 "/>
    <path  style="fill: none; stroke: rgb(0, 0, 0); stroke-width: 2.0;" d="M0.00000,48.00000 L54.00000,218.00000 "/>
    <path  style="fill: none; stroke: rgb(0, 0, 0); stroke-width: 2.0;" d="M0.00000,149.00000 L246.00000,14.00000 "/>
    <path  style="fill: none; stroke: rgb(0, 0, 0); stroke-width: 2.0;" d="M0.00000,188.00000 L0.00000,189.00000 "/>
    <path  style="fill: none; stroke: rgb(0, 0, 0); stroke-width: 2.0;" d="M0.00000,33.00000 L162.00000,127.00000 "/>
    <path  style="fill: none; stroke: rgb(0, 0, 0); stroke-width: 2.0;" d="M0.00000,247.00000 L248.00000,200.00000 "/>
    <path  style="fill: none; stroke: rgb(0, 0, 0); stroke-width: 2.0;" d="M0.00000,252.00000 L254.00000,74.00000 "/>
    <path  style="fill: none; stroke: rgb(0, 0, 0); stroke-width: 2.0;" d="M0.00000,43.00000 L108.00000,159.00000 "/>
    <path  style="fill: none; stroke: rgb(0, 0, 0); stroke-width: 2.0;" d="M0.00000,23.00000 L24.00000,251.00000 "/>
    <path  style="fill: none; stroke: rgb(0, 0, 0); stroke-width: 2.0;" d="M0.00000,218.00000 L251.00000,71.00000 "/>
    <path  style="fill: none; stroke: rgb(0, 0, 0); stroke-width: 2.0;" d="M0.00000,239.00000 L0.00000,37.00000 "/>
    <path  style="fill: none; stroke: rgb(0, 0, 0); stroke-width: 2.0;" d="M0.00000,243.00000 L244.00000,124.00000 "/>
    <path  style="fill: none; stroke: rgb(0, 0, 0); stroke-width: 2.0;" d="M0.00000,57.00000 L190.00000,99.00000 "/>
    <path  style="fill: none; stroke: rgb(0, 0, 0); stroke-width: 2.0;" d="M0.00000,171.00000 L252.00000,38.00000 "/>
    <path  style="fill: none; stroke: rgb(0, 0, 0); stroke-width: 2.0;" d="M0.00000,89.00000 L124.00000,221.00000 "/>
    <path  style="fill: none; stroke: rgb(0, 0, 0); stroke-width: 2.0;" d="M0.00000,49.00000 L128.00000,129.00000 "/>
    <path  style="fill: none; stroke: rgb(0, 0, 0); stroke-width: 2.0;" d="M0.00000,169.00000 L176.00000,89.00000 "/>
    <path  style="fill: none; stroke: rgb(0, 0, 0); stroke-width: 2.0;" d="M0.00000,2.00000 L123.00000,133.00000 "/>
    <path  style="fill: none; stroke: rgb(0, 0, 0); stroke-width: 2.0;" d="M0.00000,236.00000 L0.00000,129.00000 "/>
    <path  style="fill: none; stroke: rgb(0, 0, 0); stroke-width: 2.0;" d="M0.00000,164.00000 L253.00000,35.00000 "/>
    <path  style="fill: none; stroke: rgb(0, 0, 0); stroke-width: 2.0;" d="M0.00000,67.00000 L104.00000,155.00000 "/>
    <path  style="fill: none; stroke: rgb(0, 0, 0); stroke-width: 2.0;" d="M0.00000,156.00000 L254.00000,154.00000 "/>
    <path  style="fill: none; stroke: rgb(0, 0, 0); stroke-width: 2.0;" d="M0.00000,41.00000 L0.00000,33.00000 "/>
    <path  style="fill: none; stroke: rgb(0, 0, 0); stroke-width: 2.0;" d="M0.00000,119.00000 L120.00000,188.00000 "/>
    <path  style="fill: none; stroke: rgb(0, 0, 0); stroke-width: 2.0;" d="M0.00000,174.00000 L176.00000,242.00000 "/>
    <path  style="fill: none; stroke: rgb(0, 0, 0); stroke-width: 2.0;" d="M0.00000,189.00000 L0.00000,165.00000 "/>
    <path  style="fill: none; stroke: rgb(0, 0, 0); stroke-width: 2.0;" d="M0.00000,41.00000 L42.00000,254.00000 "/>
    <path  style="fill: none; stroke: rgb(0, 0, 0); stroke-width: 2.0;" d="M0.00000,158.00000 L159.00000,227.00000 "/>
    <path  style="fill: none; stroke: rgb(0, 0, 0); stroke-width: 2.0;" d="M0.00000,121.00000 L128.00000,241.00000 "/>
    <path  style="fill: none; stroke: rgb(0, 0, 0); stroke-width: 2.0;" d="M0.00000,118.00000 L248.00000,76.00000 "/>
    <path  style="fill: none; stroke: rgb(0, 0, 0); stroke-width: 2.0;" d="M0.00000,238.00000 L0.00000,32.00000 "/>
    <path  style="fill: none; stroke: rgb(0, 0, 0); stroke-width: 2.0;" d="M0.00000,135.00000 L136.00000,253.00000 "/>
    <path  style="fill: none; stroke: rgb(0, 0, 0); stroke-width: 2.0;" d="M0.00000,85.00000 L88.00000,237.00000 "/>
    <path  style="fill: none; stroke: rgb(0, 0, 0); stroke-width: 2.0;" d="M0.00000,248.00000 L252.00000,76.00000 "/>
    <path  style="fill: none; stroke: rgb(0, 0, 0); stroke-width: 2.0;" d="M0.00000,103.00000 L120.00000,170.00000 "/>
    <path  style="fill: none; stroke: rgb(0, 0, 0); stroke-width: 2.0;" d="M0.00000,234.00000 L252.00000,36.00000 "/>
    <path  style="fill: none; stroke: rgb(0, 0, 0); stroke-width: 2.0;" d="M0.00000,193.00000 L0.00000,192.00000 "/>
    <path  style="fill: none; stroke: rgb(0, 0, 0); stroke-width: 2.0;" d="M0.00000,92.00000 L128.00000,192.00000 "/>
    <path  style="fill: none; stroke: rgb(0, 0, 0); stroke-width: 2.0;" d="M0.00000,207.00000 L240.00000,17.00000 "/>
    <path  style="fill: none; stroke: rgb(0, 0, 0); stroke-width: 2.0;" d="M0.00000,86.00000 L224.00000,34.00000 "/>
    <path  style="fill: none; stroke: rgb(0, 0, 0); stroke-width: 2.0;" d="M0.00000,58.00000 L192.00000,120.00000 "/>
    <path  style="fill: none; stroke: rgb(0, 0, 0); stroke-width: 2.0;" d="M0.00000,165.00000 L184.00000,233.00000 "/>
    <path  style="fill: none; stroke: rgb(0, 0, 0); stroke-width: 2.0;" d="M0.00000,211.00000 L248.00000,10.00000 "/>
    <path  style="fill: none; stroke: rgb(0, 0, 0); stroke-width: 2.0;" d="M0.00000,129.00000 L182.00000,74.00000 "/>
    <path  style="fill: none; stroke: rgb(0, 0, 0); stroke-width: 2.0;" d="M0.00000,13.00000 L30.00000,235.00000 "/>
    <path  style="fill: none; stroke: rgb(0, 0, 0); stroke-width: 2.0;" d="M0.00000,140.00000 L222.00000,162.00000 "/>
    <path  style="fill: none; stroke: rgb(0, 0, 0); stroke-width: 2.0;" d="M0.00000,178.00000 L179.00000,207.00000 "/>
    <path  style="fill: none; stroke: rgb(0, 0, 0); stroke-width: 2.0;" d="M0.00000,221.00000 L0.00000,204.00000 "/>
    <path  style="fill: none; stroke: rgb(0, 0, 0); stroke-width: 2.0;" d="M0.00000,96.00000 L227.00000,125.00000 "/>
    <path  style="fill: none; stroke: rgb(0, 0, 0); stroke-width: 2.0;" d="M0.00000,140.00000 L224.00000,32.00000 "/>
    <path  style="fill: none; stroke: rgb(0, 0, 0); stroke-width: 2.0;" d="M0.00000,121.00000 L128.00000,225.00000 "/>
    <path  style="fill: none; stroke: rgb(0, 0, 0); stroke-width: 2.0;" d="M0.00000,217.00000 L252.00000,76.00000 "/>
    <path  style="fill: none; stroke: rgb(0, 0, 0); stroke-width: 2.0;" d="M0.00000,140.00000 L176.00000,84.00000 "/>
    <path  style="fill: none; stroke: rgb(0, 0, 0); stroke-width: 2.0;" d="M0.00000,24.00000 L26.00000,246.00000 "/>
    <path  style="fill: none; stroke: rgb(0, 0, 0); stroke-width: 2.0;" d="M0.00000,140.00000 L173.00000,87.00000 "/>
    <path  style="fill: none; stroke: rgb(0, 0, 0); stroke-width: 2.0;" d="M0.00000,166.00000 L0.00000,0.00000 "/>
    <path  style="fill: none; stroke: rgb(0, 0, 0); stroke-width: 2.0;" d="M0.00000,136.00000 L139.00000,253.00000 "/>
    <path  style="fill: none; stroke: rgb(0, 0, 0); stroke-width: 2.0;" d="M0.00000,60.00000 L190.00000,122.00000 "/>
    <path  style="fill: none; stroke: rgb(0, 0, 0); stroke-width: 2.0;" d="M0.00000,0.00000 L215.00000,41.00000 "/>
    <path  style="fill: none; stroke: rgb(0, 0, 0); stroke-width: 2.0;" d="M0.00000,154.00000 L187.00000,207.00000 "/>
    <path  style="fill: none; stroke: rgb(0, 0, 0); stroke-width: 2.0;" d="M0.00000,165.00000 L182.00000,203.00000 "/>
    <path  style="fill: none; stroke: rgb(0, 0, 0); stroke-width: 2.0;" d="M0.00000,116.00000 L119.00000,233.00000 "/>
    <path  style="fill: none; stroke: rgb(0, 0, 0); stroke-width: 2.0;" d="M0.00000,82.00000 L92.00000,244.00000 "/>
    <path  style="fill: none; stroke: rgb(0, 0, 0); stroke-width: 2.0;" d="M0.00000,105.00000 L128.00000,200.00000 "/>
    <path  style="fill: none; stroke: rgb(0, 0, 0); stroke-width: 2.0;" d="M0.00000,93.00000 L126.00000,198.00000 "/>
    <path  style="fill: none; stroke: rgb(0, 0, 0); stroke-width: 2.0;" d="M0.00000,129.00000 L198.00000,186.00000 "/>
    <path  style="fill: none; stroke: rgb(0, 0, 0); stroke-width: 2.0;" d="M0.00000,49.00000 L124.00000,165.00000 "/>
    <path  style="fill: none; stroke: rgb(0, 0, 0); stroke-width: 2.0;" d="M0.00000,199.00000 L0.00000,134.00000 "/>
    <path  style="fill: none; stroke: rgb(0, 0, 0); stroke-width: 2.0;" d="M0.00000,243.00000 L248.00000,123.00000 "/>
    <path  style="fill: none; stroke: rgb(0, 0, 0); stroke-width: 2.0;" d="M0.00000,113.00000 L128.00000,128.00000 "/>
    <path  style="fill: none; stroke: rgb(0, 0, 0); stroke-width: 2.0;" d="M0.00000,1.00000 L4.00000,252.00000 "/>
    <path  style="fill: none; stroke: rgb(0, 0, 0); stroke-width: 2.0;" d="M0.00000,23.00000 L160.00000,103.00000 "/>
    <path  style="fill: none; stroke: rgb(0, 0, 0); stroke-width: 2.0;" d="M0.00000,138.00000 L204.00000,190.00000 "/>
    <path  style="fill: none; stroke: rgb(0, 0, 0); stroke-width: 2.0;" d="M0.00000,193.00000 L206.00000,115.00000 "/>
    <path  style="fill: none; stroke: rgb(0, 0, 0); stroke-width: 2.0;" d="M0.00000,104.00000 L250.00000,14.00000 "/>
    <path  style="fill: none; stroke: rgb(0, 0, 0); stroke-width: 2.0;" d="M0.00000,15.00000 L128.00000,129.00000 "/>
    <path  style="fill: none; stroke: rgb(0, 0, 0); stroke-width: 2.0;" d="M0.00000,22.00000 L223.00000,53.00000 "/>
    <path  style="fill: none; stroke: rgb(0, 0, 0); stroke-width: 2.0;" d="M0.00000,233.00000 L250.00000,174.00000 "/>
    <path  style="fill: none; stroke: rgb(0, 0, 0); stroke-width: 2.0;" d="M0.00000,44.00000 L125.00000,163.00000 "/>
    <path  style="fill: none; stroke: rgb(0, 0, 0); stroke-width: 2.0;" d="M0.00000,78.00000 L95.00000,163.00000 "/>
    <path  style="fill: none; stroke: rgb(0, 0, 0); stroke-width: 2.0;" d="M0.00000,159.00000 L0.00000,16.00000 "/>
    <path  style="fill: none; stroke: rgb(0, 0, 0); stroke-width: 2.0;" d="M0.00000,101.00000 L104.00000,157.00000 "/>
    <path  style="fill: none; stroke: rgb(0, 0, 0); stroke-width: 2.0;" d="M0.00000,37.00000 L0.00000,33.00000 "/>
    <path  style="fill: none; stroke: rgb(0, 0, 0); stroke-width: 2.0;" d="M0.00000,4.00000 L175.00000,81.00000 "/>
    <path  style="fill: none; stroke: rgb(0, 0, 0); stroke-width: 2.0;" d="M0.00000,202.00000 L240.00000,88.00000 "/>
    <path  style="fill: none; stroke: rgb(0, 0, 0); stroke-width: 2.0;" d="M0.00000,131.00000 L212.00000,47.00000 "/>
    <path  style="fill: none; stroke: rgb(0, 0, 0); stroke-width: 2.0;" d="M0.00000,136.00000 L159.00000,233.00000 "/>
    <path  style="fill: none; stroke: rgb(0, 0, 0); stroke-width: 2.0;" d="M0.00000,34.00000 L183.00000,107.00000 "/>
    <path  style="fill: none; stroke: rgb(0, 0, 0); stroke-width: 2.0;" d="M0.00000,166.00000 L240.00000,22.00000 "/>
    <path  style="fill: none; stroke: rgb(0, 0, 0); stroke-width: 2.0;" d="M0.00000,41.00000 L110.00000,147.00000 "/>
    <path  style="fill: none; stroke: rgb(0, 0, 0); stroke-width: 2.0;" d="M0.00000,102.00000 L240.00000,52.00000 "/>
    <path  style="fill: none; stroke: rgb(0, 0, 0); stroke-width: 2.0;" d="M0.00000,76.00000 L0.00000,77.00000 "/>
    <path  style="fill: none; stroke: rgb(0, 0, 0); stroke-width: 2.0;" d="M0.00000,135.00000 L136.00000,252.00000 "/>
    <path  style="fill: none; stroke: rgb(0, 0, 0); stroke-width: 2.0;" d="M0.00000,30.00000 L64.00000,222.00000 "/>
    <path  style="fill: none; stroke: rgb(0, 0, 0); stroke-width: 2.0;" d="M0.00000,109.00000 L110.00000,242.00000 "/>
    <path  style="fill: none; stroke: rgb(0, 0, 0); stroke-width: 2.0;" d="M0.00000,93.00000 L96.00000,224.00000 "/>
    <path  style="fill: none; stroke: rgb(0, 0, 0); stroke-width: 2.0;" d="M0.00000,51.00000 L60.00000,247.00000 "/>
    <path  style="fill: none; stroke: rgb(0, 0, 0); stroke-width: 2.0;" d="M0.00000,176.00000 L0.00000,33.00000 "/>
    <path  style="fill: none; stroke: rgb(0, 0, 0); stroke-width: 2.0;" d="M0.00000,184.00000 L251.00000,189.00000 "/>
    <path  style="fill: none; stroke: rgb(0, 0, 0); stroke-width: 2.0;" d="M0.00000,196.00000 L237.00000,211.00000 "/>
    <path  style="fill: none; stroke: rgb(0, 0, 0); stroke-width: 2.0;" d="M0.00000,15.00000 L64.00000,196.00000 "/>
    <path  style="fill: none; stroke: rgb(0, 0, 0); stroke-width: 2.0;" d="M0.00000,182.00000 L191.00000,115.00000 "/>
    <path  style="fill: none; stroke: rgb(0, 0, 0); stroke-width: 2.0;" d="M0.00000,131.00000 L160.00000,99.00000 "/>
    <path  style="fill: none; stroke: rgb(0, 0, 0); stroke-width: 2.0;" d="M0.00000,228.00000 L238.00000,114.00000 "/>
    <path  style="fill: none; stroke: rgb(0, 0, 0); stroke-width: 2.0;" d="M0.00000,17.00000 L118.00000,155.00000 "/>
    <path  style="fill: none; stroke: rgb(0, 0, 0); stroke-width: 2.0;" d="M0.00000,2.00000 L132.00000,124.00000 "/>
    <path  style="fill: none; stroke: rgb(0, 0, 0); stroke-width: 2.0;" d="M0.00000,45.00000 L190.00000,74.00000 "/>
    <path  style="fill: none; stroke: rgb(0, 0, 0); stroke-width: 2.0;" d="M0.00000,147.00000 L0.00000,131.00000 "/>
    <path  style="fill: none; stroke: rgb(0, 0, 0); stroke-width: 2.0;" d="M0.00000,68.00000 L245.00000,75.00000 "/>
    <path  style="fill: none; stroke: rgb(0, 0, 0); stroke-width: 2.0;" d="M0.00000,196.00000 L214.00000,234.00000 "/>
    <path  style="fill: none; stroke: rgb(0, 0, 0); stroke-width: 2.0;" d="M0.00000,91.00000 L224.00000,106.00000 "/>
    <path  style="fill: none; stroke: rgb(0, 0, 0); stroke-width: 2.0;" d="M0.00000,157.00000 L158.00000,239.00000 "/>
    <path  style="fill: none; stroke: rgb(0, 0, 0); stroke-width: 2.0;" d="M0.00000,78.00000 L128.00000,136.00000 "/>
    <path  style="fill: none; stroke: rgb(0, 0, 0); stroke-width: 2.0;" d="M0.00000,210.00000 L251.00000,71.00000 "/>
    <path  style="fill: none; stroke: rgb(0, 0, 0); stroke-width: 2.0;" d="M0.00000,69.00000 L80.00000,177.00000 "/>
    <path  style="fill: none; stroke: rgb(0, 0, 0); stroke-width: 2.0;" d="M0.00000,66.00000 L232.00000,26.00000 "/>
    <path  style="fill: none; stroke: rgb(0, 0, 0); stroke-width: 2.0;" d="M0.00000,73.00000 L80.00000,249.00000 "/>
    <path  style="fill: none; stroke: rgb(0, 0, 0); stroke-width: 2.0;" d="M0.00000,246.00000 L248.00000,10.00000 "/>
    <path  style="fill: none; stroke: rgb(0, 0, 0); stroke-width: 2.0;" d="M0.00000,53.00000 L184.00000,105.00000 "/>
    <path  style="fill: none; stroke: rgb(0, 0, 0); stroke-width: 2.0;" d="M0.00000,83.00000 L0.00000,18.00000 "/>
    <path  style="fill: none; stroke: rgb(0, 0, 0); stroke-width: 2.0;" d="M0.00000,149.00000 L160.00000,100.00000 "/>
    <path  style="fill: none; stroke: rgb(0, 0, 0); stroke-width: 2.0;" d="M0.00000,150.00000 L247.00000,25.00000 "/>
    <path  style="fill: none; stroke: rgb(0, 0, 0); stroke-width: 2.0;" d="M0.00000,254.00000 L0.00000,169.00000 "/>
    <path  style="fill: none; stroke: rgb(0, 0, 0); stroke-width: 2.0;" d="M0.00000,151.00000 L184.00000,74.00000 "/>
    <path  style="fill: none; stroke: rgb(0, 0, 0); stroke-width: 2.0;" d="M0.00000,182.00000 L248.00000,190.00000 "/>
    <path  style="fill: none; stroke: rgb(0, 0, 0); stroke-width: 2.0;" d="M0.00000,108.00000 L254.00000,6.00000 "/>
    <path  style="fill: none; stroke: rgb(0, 0, 0); stroke-width: 2.0;" d="M0.00000,25.00000 L218.00000,47.00000 "/>
    <path  style="fill: none; stroke: rgb(0, 0, 0); stroke-width: 2.0;" d="M0.00000,30.00000 L31.00000,247.00000 "/>
    <path  style="fill: none; stroke: rgb(0, 0, 0); stroke-width: 2.0;" d="M0.00000,183.00000 L248.00000,157.00000 "/>
    <path  style="fill: none; stroke: rgb(0, 0, 0); stroke-width: 2.0;" d="M0.00000,239.00000 L0.00000,103.00000 "/>
    <path  style="fill: none; stroke: rgb(0, 0, 0); stroke-width: 2.0;" d="M0.00000,190.00000 L0.00000,162.00000 "/>
    <path  style="fill: none; stroke: rgb(0, 0, 0); stroke-width: 2.0;" d="M0.00000,122.00000 L127.00000,169.00000 "/>
    <path  style="fill: none; stroke: rgb(0, 0, 0); stroke-width: 2.0;" d="M0.00000,136.00000 L221.00000,171.00000 "/>
    <path  style="fill: none; stroke: rgb(0, 0, 0); stroke-width: 2.0;" d="M0.00000,171.00000 L188.00000,196.00000 "/>
    <path  style="fill: none; stroke: rgb(0, 0, 0); stroke-width: 2.0;" d="M0.00000,16.00000 L64.00000,208.00000 "/>
    <path  style="fill: none; stroke: rgb(0, 0, 0); stroke-width: 2.0;" d="M0.00000,122.00000 L128.00000,248.00000 "/>
    <path  style="fill: none; stroke: rgb(0, 0, 0); stroke-width: 2.0;" d="M0.00000,127.00000 L128.00000,229.00000 "/>
    <path  style="fill: none; stroke: rgb(0, 0, 0); stroke-width: 2.0;" d="M0.00000,118.00000 L248.00000,46.00000 "/>
    <path  style="fill: none; stroke: rgb(0, 0, 0); stroke-width: 2.0;" d="M0.00000,124.00000 L253.00000,95.00000 "/>
    <path  style="fill: none; stroke: rgb(0, 0, 0); stroke-width: 2.0;" d="M0.00000,210.00000 L244.00000,94.00000 "/>
    <path  style="fill: none; stroke: rgb(0, 0, 0); stroke-width: 2.0;" d="M0.00000,58.00000 L251.00000,53.00000 "/>
    <path  style="fill: none; stroke: rgb(0, 0, 0); stroke-width: 2.0;" d="M0.00000,45.00000 L126.00000,130.00000 "/>
    <path  style="fill: none; stroke: rgb(0, 0, 0); stroke-width: 2.0;" d="M0.00000,238.00000 L0.00000,33.00000 "/>
    <path  style="fill: none; stroke: rgb(0, 0, 0); stroke-width: 2.0;" d="M0.00000,4.00000 L69.00000,191.00000 "/>
    <path  style="fill: none; stroke: rgb(0, 0, 0); stroke-width: 2.0;" d="M0.00000,45.00000 L46.00000,210.00000 "/>
    <path  style="fill: none; stroke: rgb(0, 0, 0); stroke-width: 2.0;" d="M0.00000,35.00000 L60.00000,228.00000 "/>
    <path  style="fill: none; stroke: rgb(0, 0, 0); stroke-width: 2.0;" d="M0.00000,175.00000 L240.00000,180.00000 "/>
    <path  style="fill: none; stroke: rgb(0, 0, 0); stroke-width: 2.0;" d="M0.00000,92.00000 L95.00000,229.00000 "/>
    <path  style="fill: none; stroke: rgb(0, 0, 0); stroke-width: 2.0;" d="M0.00000,32.00000 L171.00000,85.00000 "/>
    <path  style="fill: none; stroke: rgb(0, 0, 0); stroke-width: 2.0;" d="M0.00000,66.00000 L244.00000,14.00000 "/>
    <path  style="fill: none; stroke: rgb(0, 0, 0); stroke-width: 2.0;" d="M0.00000,171.00000 L240.00000,185.00000 "/>
    <path  style="fill: none; stroke: rgb(0, 0, 0); stroke-width: 2.0;" d="M0.00000,121.00000 L128.00000,169.00000 "/>
    <path  style="fill: none; stroke: rgb(0, 0, 0); stroke-width: 2.0;" d="M0.00000,90.00000 L220.00000,46.00000 "/>
    <path  style="fill: none; stroke: rgb(0, 0, 0); stroke-width: 2.0;" d="M0.00000,76.00000 L80.00000,180.00000 "/>
    <path  style="fill: none; stroke: rgb(0, 0, 0); stroke-width: 2.0;" d="M0.00000,182.00000 L191.00000,241.00000 "/>
    <path  style="fill: none; stroke: rgb(0, 0, 0); stroke-width: 2.0;" d="M0.00000,91.00000 L96.00000,251.00000 "/>
    <path  style="fill: none; stroke: rgb(0, 0, 0); stroke-width: 2.0;" d="M0.00000,29.00000 L96.00000,176.00000 "/>
    <path  style="fill: none; stroke: rgb(0, 0, 0); stroke-width: 2.0;" d="M0.00000,60.00000 L253.00000,51.00000 "/>
    <path  style="fill: none; stroke: rgb(0, 0, 0); stroke-width: 2.0;" d="M0.00000,82.00000 L251.00000,87.00000 "/>
    <path  style="fill: none; stroke: rgb(0, 0, 0); stroke-width: 2.0;" d="M0.00000,103.00000 L120.00000,173.00000 "/>
    <path  style="fill: none; stroke: rgb(0, 0, 0); stroke-width: 2.0;" d="M0.00000,48.00000 L115.00000,189.00000 "/>
    <path  style="fill: none; stroke: rgb(0, 0, 0); stroke-width: 2.0;" d="M0.00000,53.00000 L64.00000,192.00000 "/>
    <path  style="fill: none; stroke: rgb(0, 0, 0); stroke-width: 2.0;" d="M0.00000,50.00000 L179.00000,77.00000 "/>
    <path  style="fill: none; stroke: rgb(0, 0, 0); stroke-width: 2.0;" d="M0.00000,108.00000 L112.00000,212.00000 "/>
    <path  style="fill: none; stroke: rgb(0, 0, 0); stroke-width: 2.0;" d="M0.00000,202.00000 L208.00000,184.00000 "/>
    <path  style="fill: none; stroke: rgb(0, 0, 0); stroke-width: 2.0;" d="M0.00000,43.00000 L176.00000,123.00000 "/>
    <path  style="fill: none; stroke: rgb(0, 0, 0); stroke-width: 2.0;" d="M0.00000,195.00000 L216.00000,43.00000 "/>
    <path  style="fill: none; stroke: rgb(0, 0, 0); stroke-width: 2.0;" d="M0.00000,129.00000 L172.00000,84.00000 "/>
    <path  style="fill: none; stroke: rgb(0, 0, 0); stroke-width: 2.0;" d="M0.00000,135.00000 L200.00000,184.00000 "/>
    <path  style="fill: none; stroke: rgb(0, 0, 0); stroke-width: 2.0;" d="M0.00000,55.00000 L56.00000,252.00000 "/>
    <path  style="fill: none; stroke: rgb(0, 0, 0); stroke-width: 2.0;" d="M0.00000,213.00000 L224.00000,53.00000 "/>
    <path  style="fill: none; stroke: rgb(0, 0, 0); stroke-width: 2.0;" d="M0.00000,74.00000 L124.00000,142.00000 "/>
    <path  style="fill: none; stroke: rgb(0, 0, 0); stroke-width: 2.0;" d="M0.00000,30.00000 L160.00000,100.00000 "/>
    <path  style="fill: none; stroke: rgb(0, 0, 0); stroke-width: 2.0;" d="M0.00000,250.00000 L0.00000,43.00000 "/>
    <path  style="fill: none; stroke: rgb(0, 0, 0); stroke-width: 2.0;" d="M0.00000,122.00000 L0.00000,42.00000 "/>
    <path  style="fill: none; stroke: rgb(0, 0, 0); stroke-width: 2.0;" d="M0.00000,47.00000 L0.00000,46.00000 "/>
    <path  style="fill: none; stroke: rgb(0, 0, 0); stroke-width: 2.0;" d="M0.00000,111.00000 L112.00000,251.00000 "/>
    <path  style="fill: none; stroke: rgb(0, 0, 0); stroke-width: 2.0;" d="M0.00000,97.00000 L118.00000,203.00000 "/>
    <path  style="fill: none; stroke: rgb(0, 0, 0); stroke-width: 2.0;" d="M0.00000,169.00000 L192.00000,72.00000 "/>
    <path  style="fill: none; stroke: rgb(0, 0, 0); stroke-width: 2.0;" d="M0.00000,203.00000 L236.00000,86.00000 "/>
    <path  style="fill: none; stroke: rgb(0, 0, 0); stroke-width: 2.0;" d="M0.00000,160.00000 L234.00000,22.00000 "/>
    <path  style="fill: none; stroke: rgb(0, 0, 0); stroke-width: 2.0;" d="M0.00000,119.00000 L248.00000,110.00000 "/>
    <path  style="fill: none; stroke: rgb(0, 0, 0); stroke-width: 2.0;" d="M0.00000,137.00000 L170.00000,214.00000 "/>
    <path  style="fill: none; stroke: rgb(0, 0, 0); stroke-width: 2.0;" d="M0.00000,148.00000 L216.00000,60.00000 "/>
    <path  style="fill: none; stroke: rgb(0, 0, 0); stroke-width: 2.0;" d="M0.00000,125.00000 L254.00000,11.00000 "/>
    <path  style="fill: none; stroke: rgb(0, 0, 0); stroke-width: 2.0;" d="M0.00000,182.00000 L0.00000,148.00000 "/>
    <path  style="fill: none; stroke: rgb(0, 0, 0); stroke-width: 2.0;" d="M0.00000,22.00000 L216.00000,60.00000 "/>
    <path  style="fill: none; stroke: rgb(0, 0, 0); stroke-width: 2.0;" d="M0.00000,138.00000 L187.00000,205.00000 "/>
    <path  style="fill: none; stroke: rgb(0, 0, 0); stroke-width: 2.0;" d="M0.00000,227.00000 L252.00000,135.00000 "/>
    <path  style="fill: none; stroke: rgb(0, 0, 0); stroke-width: 2.0;" d="M0.00000,19.00000 L212.00000,63.00000 "/>
    <path  style="fill: none; stroke: rgb(0, 0, 0); stroke-width: 2.0;" d="M0.00000,222.00000 L224.00000,168.00000 "/>
    <path  style="fill: none; stroke: rgb(0, 0, 0); stroke-width: 2.0;" d="M0.00000,220.00000 L253.00000,67.00000 "/>
    <path  style="fill: none; stroke: rgb(0, 0, 0); stroke-width: 2.0;" d="M0.00000,8.00000 L28.00000,228.00000 "/>
    <path  style="fill: none; stroke: rgb(0, 0, 0); stroke-width: 2.0;" d="M0.00000,147.00000 L220.00000,180.00000 "/>
    <path  style="fill: none; stroke: rgb(0, 0, 0); stroke-width: 2.0;" d="M0.00000,248.00000 L0.00000,104.00000 "/>
    <path  style="fill: none; stroke: rgb(0, 0, 0); stroke-width: 2.0;" d="M0.00000,187.00000 L0.00000,49.00000 "/>
    <path  style="fill: none; stroke: rgb(0, 0, 0); stroke-width: 2.0;" d="M0.00000,0.00000 L40.00000,216.00000 "/>
    <path  style="fill: none; stroke: rgb(0, 0, 0); stroke-width: 2.0;" d="M0.00000,83.00000 L212.00000,63.00000 "/>
    <path  style="fill: none; stroke: rgb(0, 0, 0); stroke-width: 2.0;" d="M0.00000,233.00000 L252.00000,77.00000 "/>
    <path  style="fill: none; stroke: rgb(0, 0, 0); stroke-width: 2.0;" d="M0.00000,190.00000 L0.00000,47.00000 "/>
    <path  style="fill: none; stroke: rgb(0, 0, 0); stroke-width: 2.0;" d="M0.00000,153.00000 L158.00000,107.00000 "/>
    <path  style="fill: none; stroke: rgb(0, 0, 0); stroke-width: 2.0;" d="M0.00000,148.00000 L248.00000,24.00000 "/>
    <path  style="fill: none; stroke: rgb(0, 0, 0); stroke-width: 2.0;" d="M0.00000,33.00000 L52.00000,237.00000 "/>
    <path  style="fill: none; stroke: rgb(0, 0, 0); stroke-width: 2.0;" d="M0.00000,88.00000 L127.00000,145.00000 "/>
    <path  style="fill: none; stroke: rgb(0, 0, 0); stroke-width: 2.0;" d="M0.00000,118.00000 L127.00000,241.00000 "/>
    <path  style="fill: none; stroke: rgb(0, 0, 0); stroke-width: 2.0;" d="M0.00000,0.00000 L106.00000,150.00000 "/>
    <path  style="fill: none; stroke: rgb(0, 0, 0); stroke-width: 2.0;" d="M0.00000,34.00000 L36.00000,220.00000 "/>
    <path  style="fill: none; stroke: rgb(0, 0, 0); stroke-width: 2.0;" d="M0.00000,175.00000 L0.00000,143.00000 "/>
    <path  style="fill: none; stroke: rgb(0, 0, 0); stroke-width: 2.0;" d="M0.00000,187.00000 L192.00000,218.00000 "/>
    <path  style="fill: none; stroke: rgb(0, 0, 0); stroke-width: 2.0;" d="M0.00000,73.00000 L220.00000,44.00000 "/>
    <path  style="fill: none; stroke: rgb(0, 0, 0); stroke-width: 2.0;" d="M0.00000,47.00000 L48.00000,240.00000 "/>
    <path  style="fill: none; stroke: rgb(0, 0, 0); stroke-width: 2.0;" d="M0.00000,123.00000 L124.00000,165.00000 "/>
    <path  style="fill: none; stroke: rgb(0, 0, 0); stroke-width: 2.0;" d="M0.00000,153.00000 L190.00000,195.00000 "/>
    <path  style="fill: none; stroke: rgb(0, 0, 0); stroke-width: 2.0;" d="M0.00000,74.00000 L204.00000,62.00000 "/>
    <path  style="fill: none; stroke: rgb(0, 0, 0); stroke-width: 2.0;" d="M0.00000,141.00000 L224.00000,37.00000 "/>
    <path  style="fill: none; stroke: rgb(0, 0, 0); stroke-width: 2.0;" d="M0.00000,158.00000 L192.00000,94.00000 "/>
    <path  style="fill: none; stroke: rgb(0, 0, 0); stroke-width: 2.0;" d="M0.00000,249.00000 L252.00000,197.00000 "/>
    <path  style="fill: none; stroke: rgb(0, 0, 0); stroke-width: 2.0;" d="M0.00000,214.00000 L247.00000,143.00000 "/>
    <path  style="fill: none; stroke: rgb(0, 0, 0); stroke-width: 2.0;" d="M0.00000,168.00000 L174.00000,90.00000 "/>
    <path  style="fill: none; stroke: rgb(0, 0, 0); stroke-width: 2.0;" d="M0.00000,86.00000 L0.00000,4.00000 "/>
    <path  style="fill: none; stroke: rgb(0, 0, 0); stroke-width: 2.0;" d="M0.00000,25.00000 L160.00000,105.00000 "/>
    <path  style="fill: none; stroke: rgb(0, 0, 0); stroke-width: 2.0;" d="M0.00000,40.00000 L0.00000,40.00000 "/>
    <path  style="fill: none; stroke: rgb(0, 0, 0); stroke-width: 2.0;" d="M0.00000,117.00000 L126.00000,163.00000 "/>
    <path  style="fill: none; stroke: rgb(0, 0, 0); stroke-width: 2.0;" d="M0.00000,251.00000 L252.00000,92.00000 "/>
    <path  style="fill: none; stroke: rgb(0, 0, 0); stroke-width: 2.0;" d="M0.00000,148.00000 L0.00000,21.00000 "/>
    <path  style="fill: none; stroke: rgb(0, 0, 0); stroke-width: 2.0;" d="M0.00000,7.00000 L232.00000,31.00000 "/>

<script>
let svgs = document.children[0];
let paths = Array.from(svgs.children).filter(function(c) {
    var orig = c.style.stroke;
    c.onmouseover = function() {
        c.style.stroke = "rgb(0, 0, 255)";
    };
    c.onmouseout = function () {
        c.style.stroke = orig;
    };
    c.onclick = function () {
        svgs.removeChild()
    }
});

for (let path of paths) {
    console.log(path);
}
</script></svg>