<svg xmlns="http://www.w3.org/2000/svg" viewBox="0 0 255 255">
    <path  style="fill: none; stroke: rgb(0, 0, 0); stroke-width: 2.0;" d="M114.00000,164.00000 L114.00000,114.00000 "/>
    <path  style="fill: none; stroke: rgb(0, 0, 0); stroke-width: 2.0;" d="M211.00000,110.00000 L211.00000,211.00000 "/>
    <path  style="fill: none; stroke: rgb(0, 0, 0); stroke-width: 2.0;" d="M109.00000,134.00000 L109.00000,109.00000 "/>
    <path  style="fill: none; stroke: rgb(0, 0, 0); stroke-width: 2.0;" d="M230.00000,98.00000 L230.00000,230.00000 "/>
    <path  style="fill: none; stroke: rgb(0, 0, 0); stroke-width: 2.0;" d="M93.00000,180.00000 L93.00000,93.00000 "/>
    <path  style="fill: none; stroke: rgb(0, 0, 0); stroke-width: 2.0;" d="M114.00000,234.00000 L114.00000,114.00000 "/>
    <path  style="fill: none; stroke: rgb(0, 0, 0); stroke-width: 2.0;" d="M236.00000,157.00000 L236.00000,236.00000 "/>
    <path  style="fill: none; stroke: rgb(0, 0, 0); stroke-width: 2.0;" d="M0.00000,44.00000 L0.00000,0.00000 "/>
    <path  style="fill: none; stroke: rgb(0, 0, 0); stroke-width: 2.0;" d="M253.00000,72.00000 L253.00000,253.00000 "/>
    <path  style="fill: none; stroke: rgb(0, 0, 0); stroke-width: 2.0;" d="M197.00000,113.00000 L197.00000,197.00000 "/>
    <path  style="fill: none; stroke: rgb(0, 0, 0); stroke-width: 2.0;" d="M56.00000,64.00000 L56.00000,56.00000 "/>
    <path  style="fill: none; stroke: rgb(0, 0, 0); stroke-width: 2.0;" d="M147.00000,84.00000 L147.00000,147.00000 "/>
    <path  style="fill: none; stroke: rgb(0, 0, 0); stroke-width: 2.0;" d="M112.00000,148.00000 L112.00000,112.00000 "/>
    <path  style="fill: none; stroke: rgb(0, 0, 0); stroke-width: 2.0;" d="M67.00000,48.00000 L67.00000,67.00000 "/>
    <path  style="fill: none; stroke: rgb(0, 0, 0); stroke-width: 2.0;" d="M168.00000,211.00000 L168.00000,168.00000 "/>
    <path  style="fill: none; stroke: rgb(0, 0, 0); stroke-width: 2.0;" d="M195.00000,43.00000 L195.00000,195.00000 "/>
    <path  style="fill: none; stroke: rgb(0, 0, 0); stroke-width: 2.0;" d="M34.00000,252.00000 L34.00000,34.00000 "/>
    <path  style="fill: none; stroke: rgb(0, 0, 0); stroke-width: 2.0;" d="M119.00000,218.00000 L119.00000,119.00000 "/>
    <path  style="fill: none; stroke: rgb(0, 0, 0); stroke-width: 2.0;" d="M17.00000,159.00000 L17.00000,17.00000 "/>
    <path  style="fill: none; stroke: rgb(0, 0, 0); stroke-width: 2.0;" d="M161.00000,172.00000 L161.00000,161.00000 "/>
    <path  style="fill: none; stroke: rgb(0, 0, 0); stroke-width: 2.0;" d="M166.00000,11.00000 L166.00000,166.00000 "/>
    <path  style="fill: none; stroke: rgb(0, 0, 0); stroke-width: 2.0;" d="M252.00000,14.00000 L252.00000,252.00000 "/>
    <path  style="fill: none; stroke: rgb(0, 0, 0); stroke-width: 2.0;" d="M129.00000,181.00000 L129.00000,129.00000 "/>
    <path  style="fill: none; stroke: rgb(0, 0, 0); stroke-width: 2.0;" d="M221.00000,182.00000 L221.00000,221.00000 "/>
    <path  style="fill: none; stroke: rgb(0, 0, 0); stroke-width: 2.0;" d="M36.00000,177.00000 L36.00000,36.00000 "/>
    <path  style="fill: none; stroke: rgb(0, 0, 0); stroke-width: 2.0;" d="M226.00000,117.00000 L226.00000,226.00000 "/>
    <path  style="fill: none; stroke: rgb(0, 0, 0); stroke-width: 2.0;" d="M0.00000,204.00000 L0.00000,0.00000 "/>
    <path  style="fill: none; stroke: rgb(0, 0, 0); stroke-width: 2.0;" d="M187.00000,7.00000 L187.00000,187.00000 "/>
    <path  style="fill: none; stroke: rgb(0, 0, 0); stroke-width: 2.0;" d="M158.00000,176.00000 L158.00000,158.00000 "/>
    <path  style="fill: none; stroke: rgb(0, 0, 0); stroke-width: 2.0;" d="M58.00000,69.00000 L58.00000,58.00000 "/>
    <path  style="fill: none; stroke: rgb(0, 0, 0); stroke-width: 2.0;" d="M227.00000,120.00000 L227.00000,227.00000 "/>
    <path  style="fill: none; stroke: rgb(0, 0, 0); stroke-width: 2.0;" d="M21.00000,0.00000 L21.00000,21.00000 "/>
    <path  style="fill: none; stroke: rgb(0, 0, 0); stroke-width: 2.0;" d="M13.00000,137.00000 L13.00000,13.00000 "/>
    <path  style="fill: none; stroke: rgb(0, 0, 0); stroke-width: 2.0;" d="M58.00000,145.00000 L58.00000,58.00000 "/>
    <path  style="fill: none; stroke: rgb(0, 0, 0); stroke-width: 2.0;" d="M176.00000,215.00000 L176.00000,176.00000 "/>
    <path  style="fill: none; stroke: rgb(0, 0, 0); stroke-width: 2.0;" d="M136.00000,205.00000 L136.00000,136.00000 "/>
    <path  style="fill: none; stroke: rgb(0, 0, 0); stroke-width: 2.0;" d="M69.00000,150.00000 L69.00000,69.00000 "/>
    <path  style="fill: none; stroke: rgb(0, 0, 0); stroke-width: 2.0;" d="M0.00000,21.00000 L0.00000,0.00000 "/>
    <path  style="fill: none; stroke: rgb(0, 0, 0); stroke-width: 2.0;" d="M163.00000,27.00000 L163.00000,163.00000 "/>
    <path  style="fill: none; stroke: rgb(0, 0, 0); stroke-width: 2.0;" d="M154.00000,196.00000 L154.00000,154.00000 "/>
    <path  style="fill: none; stroke: rgb(0, 0, 0); stroke-width: 2.0;" d="M236.00000,223.00000 L236.00000,236.00000 "/>
    <path  style="fill: none; stroke: rgb(0, 0, 0); stroke-width: 2.0;" d="M61.00000,73.00000 L61.00000,61.00000 "/>
    <path  style="fill: none; stroke: rgb(0, 0, 0); stroke-width: 2.0;" d="M76.00000,133.00000 L76.00000,76.00000 "/>
    <path  style="fill: none; stroke: rgb(0, 0, 0); stroke-width: 2.0;" d="M250.00000,91.00000 L250.00000,250.00000 "/>
    <path  style="fill: none; stroke: rgb(0, 0, 0); stroke-width: 2.0;" d="M249.00000,155.00000 L249.00000,249.00000 "/>
    <path  style="fill: none; stroke: rgb(0, 0, 0); stroke-width: 2.0;" d="M173.00000,178.00000 L173.00000,173.00000 "/>
    <path  style="fill: none; stroke: rgb(0, 0, 0); stroke-width: 2.0;" d="M210.00000,31.00000 L210.00000,210.00000 "/>
    <path  style="fill: none; stroke: rgb(0, 0, 0); stroke-width: 2.0;" d="M174.00000,201.00000 L174.00000,174.00000 "/>
    <path  style="fill: none; stroke: rgb(0, 0, 0); stroke-width: 2.0;" d="M201.00000,6.00000 L201.00000,201.00000 "/>
    <path  style="fill: none; stroke: rgb(0, 0, 0); stroke-width: 2.0;" d="M42.00000,134.00000 L42.00000,42.00000 "/>
    <path  style="fill: none; stroke: rgb(0, 0, 0); stroke-width: 2.0;" d="M108.00000,154.00000 L108.00000,108.00000 "/>
    <path  style="fill: none; stroke: rgb(0, 0, 0); stroke-width: 2.0;" d="M224.00000,215.00000 L224.00000,224.00000 "/>
    <path  style="fill: none; stroke: rgb(0, 0, 0); stroke-width: 2.0;" d="M214.00000,115.00000 L214.00000,214.00000 "/>
    <path  style="fill: none; stroke: rgb(0, 0, 0); stroke-width: 2.0;" d="M50.00000,122.00000 L50.00000,50.00000 "/>
    <path  style="fill: none; stroke: rgb(0, 0, 0); stroke-width: 2.0;" d="M53.00000,121.00000 L53.00000,53.00000 "/>
    <path  style="fill: none; stroke: rgb(0, 0, 0); stroke-width: 2.0;" d="M83.00000,192.00000 L83.00000,83.00000 "/>
    <path  style="fill: none; stroke: rgb(0, 0, 0); stroke-width: 2.0;" d="M200.00000,130.00000 L200.00000,200.00000 "/>
    <path  style="fill: none; stroke: rgb(0, 0, 0); stroke-width: 2.0;" d="M175.00000,189.00000 L175.00000,175.00000 "/>
    <path  style="fill: none; stroke: rgb(0, 0, 0); stroke-width: 2.0;" d="M62.00000,196.00000 L62.00000,62.00000 "/>
    <path  style="fill: none; stroke: rgb(0, 0, 0); stroke-width: 2.0;" d="M251.00000,64.00000 L251.00000,251.00000 "/>
    <path  style="fill: none; stroke: rgb(0, 0, 0); stroke-width: 2.0;" d="M63.00000,49.00000 L63.00000,63.00000 "/>
    <path  style="fill: none; stroke: rgb(0, 0, 0); stroke-width: 2.0;" d="M119.00000,172.00000 L119.00000,119.00000 "/>
    <path  style="fill: none; stroke: rgb(0, 0, 0); stroke-width: 2.0;" d="M37.00000,224.00000 L37.00000,37.00000 "/>
    <path  style="fill: none; stroke: rgb(0, 0, 0); stroke-width: 2.0;" d="M240.00000,215.00000 L240.00000,240.00000 "/>
    <path  style="fill: none; stroke: rgb(0, 0, 0); stroke-width: 2.0;" d="M153.00000,225.00000 L153.00000,153.00000 "/>
    <path  style="fill: none; stroke: rgb(0, 0, 0); stroke-width: 2.0;" d="M117.00000,75.00000 L117.00000,117.00000 "/>
    <path  style="fill: none; stroke: rgb(0, 0, 0); stroke-width: 2.0;" d="M2.00000,57.00000 L2.00000,2.00000 "/>
    <path  style="fill: none; stroke: rgb(0, 0, 0); stroke-width: 2.0;" d="M111.00000,248.00000 L111.00000,111.00000 "/>
    <path  style="fill: none; stroke: rgb(0, 0, 0); stroke-width: 2.0;" d="M106.00000,75.00000 L106.00000,106.00000 "/>
    <path  style="fill: none; stroke: rgb(0, 0, 0); stroke-width: 2.0;" d="M194.00000,163.00000 L194.00000,194.00000 "/>
    <path  style="fill: none; stroke: rgb(0, 0, 0); stroke-width: 2.0;" d="M63.00000,71.00000 L63.00000,63.00000 "/>
    <path  style="fill: none; stroke: rgb(0, 0, 0); stroke-width: 2.0;" d="M22.00000,151.00000 L22.00000,22.00000 "/>
    <path  style="fill: none; stroke: rgb(0, 0, 0); stroke-width: 2.0;" d="M196.00000,167.00000 L196.00000,196.00000 "/>
    <path  style="fill: none; stroke: rgb(0, 0, 0); stroke-width: 2.0;" d="M5.00000,47.00000 L5.00000,5.00000 "/>
    <path  style="fill: none; stroke: rgb(0, 0, 0); stroke-width: 2.0;" d="M180.00000,243.00000 L180.00000,180.00000 "/>
    <path  style="fill: none; stroke: rgb(0, 0, 0); stroke-width: 2.0;" d="M146.00000,19.00000 L146.00000,146.00000 "/>
    <path  style="fill: none; stroke: rgb(0, 0, 0); stroke-width: 2.0;" d="M104.00000,116.00000 L104.00000,104.00000 "/>
    <path  style="fill: none; stroke: rgb(0, 0, 0); stroke-width: 2.0;" d="M166.00000,16.00000 L166.00000,166.00000 "/>
    <path  style="fill: none; stroke: rgb(0, 0, 0); stroke-width: 2.0;" d="M100.00000,121.00000 L100.00000,100.00000 "/>
    <path  style="fill: none; stroke: rgb(0, 0, 0); stroke-width: 2.0;" d="M248.00000,87.00000 L248.00000,248.00000 "/>
    <path  style="fill: none; stroke: rgb(0, 0, 0); stroke-width: 2.0;" d="M246.00000,41.00000 L246.00000,246.00000 "/>
    <path  style="fill: none; stroke: rgb(0, 0, 0); stroke-width: 2.0;" d="M192.00000,98.00000 L192.00000,192.00000 "/>
    <path  style="fill: none; stroke: rgb(0, 0, 0); stroke-width: 2.0;" d="M45.00000,224.00000 L45.00000,45.00000 "/>
    <path  style="fill: none; stroke: rgb(0, 0, 0); stroke-width: 2.0;" d="M2.00000,206.00000 L2.00000,2.00000 "/>
    <path  style="fill: none; stroke: rgb(0, 0, 0); stroke-width: 2.0;" d="M214.00000,57.00000 L214.00000,214.00000 "/>
    <path  style="fill: none; stroke: rgb(0, 0, 0); stroke-width: 2.0;" d="M85.00000,206.00000 L85.00000,85.00000 "/>
    <path  style="fill: none; stroke: rgb(0, 0, 0); stroke-width: 2.0;" d="M215.00000,130.00000 L215.00000,215.00000 "/>
    <path  style="fill: none; stroke: rgb(0, 0, 0); stroke-width: 2.0;" d="M169.00000,140.00000 L169.00000,169.00000 "/>
    <path  style="fill: none; stroke: rgb(0, 0, 0); stroke-width: 2.0;" d="M195.00000,228.00000 L195.00000,195.00000 "/>
    <path  style="fill: none; stroke: rgb(0, 0, 0); stroke-width: 2.0;" d="M63.00000,14.00000 L63.00000,63.00000 "/>
    <path  style="fill: none; stroke: rgb(0, 0, 0); stroke-width: 2.0;" d="M130.00000,100.00000 L130.00000,130.00000 "/>
    <path  style="fill: none; stroke: rgb(0, 0, 0); stroke-width: 2.0;" d="M142.00000,116.00000 L142.00000,142.00000 "/>
    <path  style="fill: none; stroke: rgb(0, 0, 0); stroke-width: 2.0;" d="M246.00000,105.00000 L246.00000,246.00000 "/>
    <path  style="fill: none; stroke: rgb(0, 0, 0); stroke-width: 2.0;" d="M94.00000,241.00000 L94.00000,94.00000 "/>
    <path  style="fill: none; stroke: rgb(0, 0, 0); stroke-width: 2.0;" d="M202.00000,35.00000 L202.00000,202.00000 "/>
    <path  style="fill: none; stroke: rgb(0, 0, 0); stroke-width: 2.0;" d="M135.00000,10.00000 L135.00000,135.00000 "/>
    <path  style="fill: none; stroke: rgb(0, 0, 0); stroke-width: 2.0;" d="M89.00000,98.00000 L89.00000,89.00000 "/>
    <path  style="fill: none; stroke: rgb(0, 0, 0); stroke-width: 2.0;" d="M104.00000,109.00000 L104.00000,104.00000 "/>
    <path  style="fill: none; stroke: rgb(0, 0, 0); stroke-width: 2.0;" d="M13.00000,35.00000 L13.00000,13.00000 "/>
    <path  style="fill: none; stroke: rgb(0, 0, 0); stroke-width: 2.0;" d="M253.00000,69.00000 L253.00000,253.00000 "/>
    <path  style="fill: none; stroke: rgb(0, 0, 0); stroke-width: 2.0;" d="M138.00000,1.00000 L138.00000,138.00000 "/>
    <path  style="fill: none; stroke: rgb(0, 0, 0); stroke-width: 2.0;" d="M75.00000,70.00000 L75.00000,75.00000 "/>
    <path  style="fill: none; stroke: rgb(0, 0, 0); stroke-width: 2.0;" d="M89.00000,109.00000 L89.00000,89.00000 "/>
    <path  style="fill: none; stroke: rgb(0, 0, 0); stroke-width: 2.0;" d="M15.00000,44.00000 L15.00000,15.00000 "/>
    <path  style="fill: none; stroke: rgb(0, 0, 0); stroke-width: 2.0;" d="M75.00000,68.00000 L75.00000,75.00000 "/>
    <path  style="fill: none; stroke: rgb(0, 0, 0); stroke-width: 2.0;" d="M128.00000,51.00000 L128.00000,128.00000 "/>
    <path  style="fill: none; stroke: rgb(0, 0, 0); stroke-width: 2.0;" d="M84.00000,169.00000 L84.00000,84.00000 "/>
    <path  style="fill: none; stroke: rgb(0, 0, 0); stroke-width: 2.0;" d="M159.00000,207.00000 L159.00000,159.00000 "/>
    <path  style="fill: none; stroke: rgb(0, 0, 0); stroke-width: 2.0;" d="M182.00000,137.00000 L182.00000,182.00000 "/>
    <path  style="fill: none; stroke: rgb(0, 0, 0); stroke-width: 2.0;" d="M153.00000,60.00000 L153.00000,153.00000 "/>
    <path  style="fill: none; stroke: rgb(0, 0, 0); stroke-width: 2.0;" d="M138.00000,3.00000 L138.00000,138.00000 "/>
    <path  style="fill: none; stroke: rgb(0, 0, 0); stroke-width: 2.0;" d="M121.00000,22.00000 L121.00000,121.00000 "/>
    <path  style="fill: none; stroke: rgb(0, 0, 0); stroke-width: 2.0;" d="M183.00000,180.00000 L183.00000,183.00000 "/>
    <path  style="fill: none; stroke: rgb(0, 0, 0); stroke-width: 2.0;" d="M184.00000,57.00000 L184.00000,184.00000 "/>
    <path  style="fill: none; stroke: rgb(0, 0, 0); stroke-width: 2.0;" d="M113.00000,244.00000 L113.00000,113.00000 "/>
    <path  style="fill: none; stroke: rgb(0, 0, 0); stroke-width: 2.0;" d="M247.00000,253.00000 L247.00000,247.00000 "/>
    <path  style="fill: none; stroke: rgb(0, 0, 0); stroke-width: 2.0;" d="M185.00000,147.00000 L185.00000,185.00000 "/>
    <path  style="fill: none; stroke: rgb(0, 0, 0); stroke-width: 2.0;" d="M213.00000,113.00000 L213.00000,213.00000 "/>
    <path  style="fill: none; stroke: rgb(0, 0, 0); stroke-width: 2.0;" d="M128.00000,83.00000 L128.00000,128.00000 "/>
    <path  style="fill: none; stroke: rgb(0, 0, 0); stroke-width: 2.0;" d="M225.00000,79.00000 L225.00000,225.00000 "/>
    <path  style="fill: none; stroke: rgb(0, 0, 0); stroke-width: 2.0;" d="M64.00000,195.00000 L64.00000,64.00000 "/>
    <path  style="fill: none; stroke: rgb(0, 0, 0); stroke-width: 2.0;" d="M207.00000,65.00000 L207.00000,207.00000 "/>
    <path  style="fill: none; stroke: rgb(0, 0, 0); stroke-width: 2.0;" d="M170.00000,40.00000 L170.00000,170.00000 "/>
    <path  style="fill: none; stroke: rgb(0, 0, 0); stroke-width: 2.0;" d="M199.00000,237.00000 L199.00000,199.00000 "/>
    <path  style="fill: none; stroke: rgb(0, 0, 0); stroke-width: 2.0;" d="M76.00000,104.00000 L76.00000,76.00000 "/>
    <path  style="fill: none; stroke: rgb(0, 0, 0); stroke-width: 2.0;" d="M77.00000,28.00000 L77.00000,77.00000 "/>
    <path  style="fill: none; stroke: rgb(0, 0, 0); stroke-width: 2.0;" d="M171.00000,121.00000 L171.00000,171.00000 "/>
    <path  style="fill: none; stroke: rgb(0, 0, 0); stroke-width: 2.0;" d="M161.00000,120.00000 L161.00000,161.00000 "/>
    <path  style="fill: none; stroke: rgb(0, 0, 0); stroke-width: 2.0;" d="M54.00000,237.00000 L54.00000,54.00000 "/>
    <path  style="fill: none; stroke: rgb(0, 0, 0); stroke-width: 2.0;" d="M18.00000,65.00000 L18.00000,18.00000 "/>
    <path  style="fill: none; stroke: rgb(0, 0, 0); stroke-width: 2.0;" d="M221.00000,113.00000 L221.00000,221.00000 "/>
    <path  style="fill: none; stroke: rgb(0, 0, 0); stroke-width: 2.0;" d="M57.00000,136.00000 L57.00000,57.00000 "/>
    <path  style="fill: none; stroke: rgb(0, 0, 0); stroke-width: 2.0;" d="M232.00000,162.00000 L232.00000,232.00000 "/>
    <path  style="fill: none; stroke: rgb(0, 0, 0); stroke-width: 2.0;" d="M10.00000,94.00000 L10.00000,10.00000 "/>
    <path  style="fill: none; stroke: rgb(0, 0, 0); stroke-width: 2.0;" d="M120.00000,244.00000 L120.00000,120.00000 "/>
    <path  style="fill: none; stroke: rgb(0, 0, 0); stroke-width: 2.0;" d="M19.00000,56.00000 L19.00000,19.00000 "/>
    <path  style="fill: none; stroke: rgb(0, 0, 0); stroke-width: 2.0;" d="M179.00000,69.00000 L179.00000,179.00000 "/>
    <path  style="fill: none; stroke: rgb(0, 0, 0); stroke-width: 2.0;" d="M89.00000,8.00000 L89.00000,89.00000 "/>
    <path  style="fill: none; stroke: rgb(0, 0, 0); stroke-width: 2.0;" d="M117.00000,140.00000 L117.00000,117.00000 "/>
    <path  style="fill: none; stroke: rgb(0, 0, 0); stroke-width: 2.0;" d="M205.00000,133.00000 L205.00000,205.00000 "/>
    <path  style="fill: none; stroke: rgb(0, 0, 0); stroke-width: 2.0;" d="M239.00000,159.00000 L239.00000,239.00000 "/>
    <path  style="fill: none; stroke: rgb(0, 0, 0); stroke-width: 2.0;" d="M171.00000,134.00000 L171.00000,171.00000 "/>
    <path  style="fill: none; stroke: rgb(0, 0, 0); stroke-width: 2.0;" d="M137.00000,60.00000 L137.00000,137.00000 "/>
    <path  style="fill: none; stroke: rgb(0, 0, 0); stroke-width: 2.0;" d="M244.00000,136.00000 L244.00000,244.00000 "/>
    <path  style="fill: none; stroke: rgb(0, 0, 0); stroke-width: 2.0;" d="M1.00000,73.00000 L1.00000,1.00000 "/>
    <path  style="fill: none; stroke: rgb(0, 0, 0); stroke-width: 2.0;" d="M254.00000,226.00000 L254.00000,254.00000 "/>
    <path  style="fill: none; stroke: rgb(0, 0, 0); stroke-width: 2.0;" d="M144.00000,44.00000 L144.00000,144.00000 "/>
    <path  style="fill: none; stroke: rgb(0, 0, 0); stroke-width: 2.0;" d="M192.00000,1.00000 L192.00000,192.00000 "/>
    <path  style="fill: none; stroke: rgb(0, 0, 0); stroke-width: 2.0;" d="M128.00000,139.00000 L128.00000,128.00000 "/>
    <path  style="fill: none; stroke: rgb(0, 0, 0); stroke-width: 2.0;" d="M208.00000,139.00000 L208.00000,208.00000 "/>
    <path  style="fill: none; stroke: rgb(0, 0, 0); stroke-width: 2.0;" d="M140.00000,143.00000 L140.00000,140.00000 "/>
    <path  style="fill: none; stroke: rgb(0, 0, 0); stroke-width: 2.0;" d="M30.00000,18.00000 L30.00000,30.00000 "/>
    <path  style="fill: none; stroke: rgb(0, 0, 0); stroke-width: 2.0;" d="M149.00000,75.00000 L149.00000,149.00000 "/>
    <path  style="fill: none; stroke: rgb(0, 0, 0); stroke-width: 2.0;" d="M13.00000,88.00000 L13.00000,13.00000 "/>
    <path  style="fill: none; stroke: rgb(0, 0, 0); stroke-width: 2.0;" d="M4.00000,217.00000 L4.00000,4.00000 "/>
    <path  style="fill: none; stroke: rgb(0, 0, 0); stroke-width: 2.0;" d="M158.00000,173.00000 L158.00000,158.00000 "/>
    <path  style="fill: none; stroke: rgb(0, 0, 0); stroke-width: 2.0;" d="M30.00000,0.00000 L30.00000,30.00000 "/>
    <path  style="fill: none; stroke: rgb(0, 0, 0); stroke-width: 2.0;" d="M59.00000,83.00000 L59.00000,59.00000 "/>
    <path  style="fill: none; stroke: rgb(0, 0, 0); stroke-width: 2.0;" d="M120.00000,120.00000 L120.00000,120.00000 "/>
    <path  style="fill: none; stroke: rgb(0, 0, 0); stroke-width: 2.0;" d="M111.00000,153.00000 L111.00000,111.00000 "/>
    <path  style="fill: none; stroke: rgb(0, 0, 0); stroke-width: 2.0;" d="M158.00000,39.00000 L158.00000,158.00000 "/>
    <path  style="fill: none; stroke: rgb(0, 0, 0); stroke-width: 2.0;" d="M123.00000,56.00000 L123.00000,123.00000 "/>
    <path  style="fill: none; stroke: rgb(0, 0, 0); stroke-width: 2.0;" d="M45.00000,142.00000 L45.00000,45.00000 "/>
    <path  style="fill: none; stroke: rgb(0, 0, 0); stroke-width: 2.0;" d="M95.00000,239.00000 L95.00000,95.00000 "/>
    <path  style="fill: none; stroke: rgb(0, 0, 0); stroke-width: 2.0;" d="M101.00000,148.00000 L101.00000,101.00000 "/>
    <path  style="fill: none; stroke: rgb(0, 0, 0); stroke-width: 2.0;" d="M151.00000,171.00000 L151.00000,151.00000 "/>
    <path  style="fill: none; stroke: rgb(0, 0, 0); stroke-width: 2.0;" d="M143.00000,51.00000 L143.00000,143.00000 "/>
    <path  style="fill: none; stroke: rgb(0, 0, 0); stroke-width: 2.0;" d="M74.00000,87.00000 L74.00000,74.00000 "/>
    <path  style="fill: none; stroke: rgb(0, 0, 0); stroke-width: 2.0;" d="M46.00000,202.00000 L46.00000,46.00000 "/>
    <path  style="fill: none; stroke: rgb(0, 0, 0); stroke-width: 2.0;" d="M176.00000,134.00000 L176.00000,176.00000 "/>
    <path  style="fill: none; stroke: rgb(0, 0, 0); stroke-width: 2.0;" d="M211.00000,116.00000 L211.00000,211.00000 "/>
    <path  style="fill: none; stroke: rgb(0, 0, 0); stroke-width: 2.0;" d="M9.00000,176.00000 L9.00000,9.00000 "/>
    <path  style="fill: none; stroke: rgb(0, 0, 0); stroke-width: 2.0;" d="M65.00000,209.00000 L65.00000,65.00000 "/>
    <path  style="fill: none; stroke: rgb(0, 0, 0); stroke-width: 2.0;" d="M53.00000,239.00000 L53.00000,53.00000 "/>
    <path  style="fill: none; stroke: rgb(0, 0, 0); stroke-width: 2.0;" d="M195.00000,28.00000 L195.00000,195.00000 "/>
    <path  style="fill: none; stroke: rgb(0, 0, 0); stroke-width: 2.0;" d="M211.00000,234.00000 L211.00000,211.00000 "/>
    <path  style="fill: none; stroke: rgb(0, 0, 0); stroke-width: 2.0;" d="M127.00000,158.00000 L127.00000,127.00000 "/>
    <path  style="fill: none; stroke: rgb(0, 0, 0); stroke-width: 2.0;" d="M224.00000,126.00000 L224.00000,224.00000 "/>
    <path  style="fill: none; stroke: rgb(0, 0, 0); stroke-width: 2.0;" d="M100.00000,100.00000 L100.00000,100.00000 "/>
    <path  style="fill: none; stroke: rgb(0, 0, 0); stroke-width: 2.0;" d="M94.00000,238.00000 L94.00000,94.00000 "/>
    <path  style="fill: none; stroke: rgb(0, 0, 0); stroke-width: 2.0;" d="M77.00000,65.00000 L77.00000,77.00000 "/>
    <path  style="fill: none; stroke: rgb(0, 0, 0); stroke-width: 2.0;" d="M236.00000,61.00000 L236.00000,236.00000 "/>
    <path  style="fill: none; stroke: rgb(0, 0, 0); stroke-width: 2.0;" d="M229.00000,203.00000 L229.00000,229.00000 "/>
    <path  style="fill: none; stroke: rgb(0, 0, 0); stroke-width: 2.0;" d="M66.00000,4.00000 L66.00000,66.00000 "/>
    <path  style="fill: none; stroke: rgb(0, 0, 0); stroke-width: 2.0;" d="M128.00000,43.00000 L128.00000,128.00000 "/>
    <path  style="fill: none; stroke: rgb(0, 0, 0); stroke-width: 2.0;" d="M252.00000,117.00000 L252.00000,252.00000 "/>
    <path  style="fill: none; stroke: rgb(0, 0, 0); stroke-width: 2.0;" d="M38.00000,147.00000 L38.00000,38.00000 "/>
    <path  style="fill: none; stroke: rgb(0, 0, 0); stroke-width: 2.0;" d="M114.00000,22.00000 L114.00000,114.00000 "/>
    <path  style="fill: none; stroke: rgb(0, 0, 0); stroke-width: 2.0;" d="M8.00000,9.00000 L8.00000,8.00000 "/>
    <path  style="fill: none; stroke: rgb(0, 0, 0); stroke-width: 2.0;" d="M118.00000,72.00000 L118.00000,118.00000 "/>
    <path  style="fill: none; stroke: rgb(0, 0, 0); stroke-width: 2.0;" d="M71.00000,205.00000 L71.00000,71.00000 "/>
    <path  style="fill: none; stroke: rgb(0, 0, 0); stroke-width: 2.0;" d="M134.00000,84.00000 L134.00000,134.00000 "/>
    <path  style="fill: none; stroke: rgb(0, 0, 0); stroke-width: 2.0;" d="M180.00000,225.00000 L180.00000,180.00000 "/>
    <path  style="fill: none; stroke: rgb(0, 0, 0); stroke-width: 2.0;" d="M5.00000,130.00000 L5.00000,5.00000 "/>
    <path  style="fill: none; stroke: rgb(0, 0, 0); stroke-width: 2.0;" d="M178.00000,219.00000 L178.00000,178.00000 "/>
    <path  style="fill: none; stroke: rgb(0, 0, 0); stroke-width: 2.0;" d="M223.00000,152.00000 L223.00000,223.00000 "/>
    <path  style="fill: none; stroke: rgb(0, 0, 0); stroke-width: 2.0;" d="M34.00000,252.00000 L34.00000,34.00000 "/>
    <path  style="fill: none; stroke: rgb(0, 0, 0); stroke-width: 2.0;" d="M225.00000,3.00000 L225.00000,225.00000 "/>
    <path  style="fill: none; stroke: rgb(0, 0, 0); stroke-width: 2.0;" d="M15.00000,191.00000 L15.00000,15.00000 "/>
    <path  style="fill: none; stroke: rgb(0, 0, 0); stroke-width: 2.0;" d="M109.00000,220.00000 L109.00000,109.00000 "/>
    <path  style="fill: none; stroke: rgb(0, 0, 0); stroke-width: 2.0;" d="M61.00000,213.00000 L61.00000,61.00000 "/>
    <path  style="fill: none; stroke: rgb(0, 0, 0); stroke-width: 2.0;" d="M50.00000,149.00000 L50.00000,50.00000 "/>
    <path  style="fill: none; stroke: rgb(0, 0, 0); stroke-width: 2.0;" d="M30.00000,162.00000 L30.00000,30.00000 "/>
    <path  style="fill: none; stroke: rgb(0, 0, 0); stroke-width: 2.0;" d="M68.00000,9.00000 L68.00000,68.00000 "/>
    <path  style="fill: none; stroke: rgb(0, 0, 0); stroke-width: 2.0;" d="M57.00000,168.00000 L57.00000,57.00000 "/>
    <path  style="fill: none; stroke: rgb(0, 0, 0); stroke-width: 2.0;" d="M136.00000,165.00000 L136.00000,136.00000 "/>
    <path  style="fill: none; stroke: rgb(0, 0, 0); stroke-width: 2.0;" d="M38.00000,67.00000 L38.00000,38.00000 "/>
    <path  style="fill: none; stroke: rgb(0, 0, 0); stroke-width: 2.0;" d="M161.00000,77.00000 L161.00000,161.00000 "/>
    <path  style="fill: none; stroke: rgb(0, 0, 0); stroke-width: 2.0;" d="M201.00000,178.00000 L201.00000,201.00000 "/>
    <path  style="fill: none; stroke: rgb(0, 0, 0); stroke-width: 2.0;" d="M238.00000,153.00000 L238.00000,238.00000 "/>
    <path  style="fill: none; stroke: rgb(0, 0, 0); stroke-width: 2.0;" d="M81.00000,155.00000 L81.00000,81.00000 "/>
    <path  style="fill: none; stroke: rgb(0, 0, 0); stroke-width: 2.0;" d="M60.00000,185.00000 L60.00000,60.00000 "/>
    <path  style="fill: none; stroke: rgb(0, 0, 0); stroke-width: 2.0;" d="M228.00000,168.00000 L228.00000,228.00000 "/>
    <path  style="fill: none; stroke: rgb(0, 0, 0); stroke-width: 2.0;" d="M235.00000,201.00000 L235.00000,235.00000 "/>
    <path  style="fill: none; stroke: rgb(0, 0, 0); stroke-width: 2.0;" d="M59.00000,90.00000 L59.00000,59.00000 "/>
    <path  style="fill: none; stroke: rgb(0, 0, 0); stroke-width: 2.0;" d="M252.00000,155.00000 L252.00000,252.00000 "/>
    <path  style="fill: none; stroke: rgb(0, 0, 0); stroke-width: 2.0;" d="M88.00000,1.00000 L88.00000,88.00000 "/>
    <path  style="fill: none; stroke: rgb(0, 0, 0); stroke-width: 2.0;" d="M113.00000,246.00000 L113.00000,113.00000 "/>
    <path  style="fill: none; stroke: rgb(0, 0, 0); stroke-width: 2.0;" d="M224.00000,2.00000 L224.00000,224.00000 "/>
    <path  style="fill: none; stroke: rgb(0, 0, 0); stroke-width: 2.0;" d="M241.00000,210.00000 L241.00000,241.00000 "/>
    <path  style="fill: none; stroke: rgb(0, 0, 0); stroke-width: 2.0;" d="M40.00000,33.00000 L40.00000,40.00000 "/>
    <path  style="fill: none; stroke: rgb(0, 0, 0); stroke-width: 2.0;" d="M3.00000,47.00000 L3.00000,3.00000 "/>
    <path  style="fill: none; stroke: rgb(0, 0, 0); stroke-width: 2.0;" d="M122.00000,215.00000 L122.00000,122.00000 "/>
    <path  style="fill: none; stroke: rgb(0, 0, 0); stroke-width: 2.0;" d="M29.00000,90.00000 L29.00000,29.00000 "/>
    <path  style="fill: none; stroke: rgb(0, 0, 0); stroke-width: 2.0;" d="M227.00000,54.00000 L227.00000,227.00000 "/>
    <path  style="fill: none; stroke: rgb(0, 0, 0); stroke-width: 2.0;" d="M172.00000,95.00000 L172.00000,172.00000 "/>
    <path  style="fill: none; stroke: rgb(0, 0, 0); stroke-width: 2.0;" d="M242.00000,220.00000 L242.00000,242.00000 "/>
    <path  style="fill: none; stroke: rgb(0, 0, 0); stroke-width: 2.0;" d="M182.00000,56.00000 L182.00000,182.00000 "/>
    <path  style="fill: none; stroke: rgb(0, 0, 0); stroke-width: 2.0;" d="M117.00000,231.00000 L117.00000,117.00000 "/>
    <path  style="fill: none; stroke: rgb(0, 0, 0); stroke-width: 2.0;" d="M216.00000,39.00000 L216.00000,216.00000 "/>
    <path  style="fill: none; stroke: rgb(0, 0, 0); stroke-width: 2.0;" d="M66.00000,13.00000 L66.00000,66.00000 "/>
    <path  style="fill: none; stroke: rgb(0, 0, 0); stroke-width: 2.0;" d="M103.00000,80.00000 L103.00000,103.00000 "/>
    <path  style="fill: none; stroke: rgb(0, 0, 0); stroke-width: 2.0;" d="M35.00000,173.00000 L35.00000,35.00000 "/>
    <path  style="fill: none; stroke: rgb(0, 0, 0); stroke-width: 2.0;" d="M205.00000,132.00000 L205.00000,205.00000 "/>
    <path  style="fill: none; stroke: rgb(0, 0, 0); stroke-width: 2.0;" d="M185.00000,37.00000 L185.00000,185.00000 "/>
    <path  style="fill: none; stroke: rgb(0, 0, 0); stroke-width: 2.0;" d="M89.00000,99.00000 L89.00000,89.00000 "/>
    <path  style="fill: none; stroke: rgb(0, 0, 0); stroke-width: 2.0;" d="M236.00000,40.00000 L236.00000,236.00000 "/>
    <path  style="fill: none; stroke: rgb(0, 0, 0); stroke-width: 2.0;" d="M88.00000,148.00000 L88.00000,88.00000 "/>
    <path  style="fill: none; stroke: rgb(0, 0, 0); stroke-width: 2.0;" d="M239.00000,238.00000 L239.00000,239.00000 "/>
    <path  style="fill: none; stroke: rgb(0, 0, 0); stroke-width: 2.0;" d="M106.00000,125.00000 L106.00000,106.00000 "/>
    <path  style="fill: none; stroke: rgb(0, 0, 0); stroke-width: 2.0;" d="M135.00000,173.00000 L135.00000,135.00000 "/>
    <path  style="fill: none; stroke: rgb(0, 0, 0); stroke-width: 2.0;" d="M95.00000,116.00000 L95.00000,95.00000 "/>
    <path  style="fill: none; stroke: rgb(0, 0, 0); stroke-width: 2.0;" d="M92.00000,204.00000 L92.00000,92.00000 "/>
    <path  style="fill: none; stroke: rgb(0, 0, 0); stroke-width: 2.0;" d="M254.00000,31.00000 L254.00000,254.00000 "/>
    <path  style="fill: none; stroke: rgb(0, 0, 0); stroke-width: 2.0;" d="M158.00000,183.00000 L158.00000,158.00000 "/>
    <path  style="fill: none; stroke: rgb(0, 0, 0); stroke-width: 2.0;" d="M97.00000,246.00000 L97.00000,97.00000 "/>
    <path  style="fill: none; stroke: rgb(0, 0, 0); stroke-width: 2.0;" d="M14.00000,38.00000 L14.00000,14.00000 "/>
    <path  style="fill: none; stroke: rgb(0, 0, 0); stroke-width: 2.0;" d="M74.00000,11.00000 L74.00000,74.00000 "/>
    <path  style="fill: none; stroke: rgb(0, 0, 0); stroke-width: 2.0;" d="M68.00000,120.00000 L68.00000,68.00000 "/>
    <path  style="fill: none; stroke: rgb(0, 0, 0); stroke-width: 2.0;" d="M115.00000,22.00000 L115.00000,115.00000 "/>
    <path  style="fill: none; stroke: rgb(0, 0, 0); stroke-width: 2.0;" d="M75.00000,61.00000 L75.00000,75.00000 "/>
    <path  style="fill: none; stroke: rgb(0, 0, 0); stroke-width: 2.0;" d="M31.00000,97.00000 L31.00000,31.00000 "/>
    <path  style="fill: none; stroke: rgb(0, 0, 0); stroke-width: 2.0;" d="M26.00000,147.00000 L26.00000,26.00000 "/>
    <path  style="fill: none; stroke: rgb(0, 0, 0); stroke-width: 2.0;" d="M226.00000,170.00000 L226.00000,226.00000 "/>
    <path  style="fill: none; stroke: rgb(0, 0, 0); stroke-width: 2.0;" d="M63.00000,31.00000 L63.00000,63.00000 "/>

<script>
let svgs = document.children[0];
let paths = Array.from(svgs.children).filter(function(c) {
    var orig = c.style.stroke;
    c.onmouseover = function() {
        c.style.stroke = "rgb(0, 0, 255)";
    };
    c.onmouseout = function () {
        c.style.stroke = orig;
    };
    c.onclick = function () {
        svgs.removeChild()
    }
});

for (let path of paths) {
    console.log(path);
}
</script></svg>