<svg xmlns="http://www.w3.org/2000/svg" viewBox="0 0 255 255">
    <path  style="fill: none; stroke: rgb(0, 0, 0); stroke-width: 1.0;" d="M194.00000,165.00000 L194.00000,194.00000 "/>
    <path  style="fill: none; stroke: rgb(0, 0, 0); stroke-width: 1.0;" d="M244.00000,12.00000 L244.00000,244.00000 "/>
    <path  style="fill: none; stroke: rgb(0, 0, 0); stroke-width: 1.0;" d="M222.00000,116.00000 L222.00000,222.00000 "/>
    <path  style="fill: none; stroke: rgb(0, 0, 0); stroke-width: 1.0;" d="M51.00000,0.00000 L51.00000,51.00000 "/>
    <path  style="fill: none; stroke: rgb(0, 0, 0); stroke-width: 1.0;" d="M96.00000,26.00000 L96.00000,96.00000 "/>
    <path  style="fill: none; stroke: rgb(0, 0, 0); stroke-width: 1.0;" d="M217.00000,1.00000 L217.00000,217.00000 "/>
    <path  style="fill: none; stroke: rgb(0, 0, 0); stroke-width: 1.0;" d="M91.00000,247.00000 L91.00000,91.00000 "/>
    <path  style="fill: none; stroke: rgb(0, 0, 0); stroke-width: 1.0;" d="M244.00000,186.00000 L244.00000,244.00000 "/>
    <path  style="fill: none; stroke: rgb(0, 0, 0); stroke-width: 1.0;" d="M231.00000,12.00000 L231.00000,231.00000 "/>
    <path  style="fill: none; stroke: rgb(0, 0, 0); stroke-width: 1.0;" d="M16.00000,104.00000 L16.00000,16.00000 "/>
    <path  style="fill: none; stroke: rgb(0, 0, 0); stroke-width: 1.0;" d="M159.00000,13.00000 L159.00000,159.00000 "/>
    <path  style="fill: none; stroke: rgb(0, 0, 0); stroke-width: 1.0;" d="M93.00000,27.00000 L93.00000,93.00000 "/>
    <path  style="fill: none; stroke: rgb(0, 0, 0); stroke-width: 1.0;" d="M78.00000,167.00000 L78.00000,78.00000 "/>
    <path  style="fill: none; stroke: rgb(0, 0, 0); stroke-width: 1.0;" d="M161.00000,181.00000 L161.00000,161.00000 "/>
    <path  style="fill: none; stroke: rgb(0, 0, 0); stroke-width: 1.0;" d="M228.00000,140.00000 L228.00000,228.00000 "/>
    <path  style="fill: none; stroke: rgb(0, 0, 0); stroke-width: 1.0;" d="M119.00000,48.00000 L119.00000,119.00000 "/>
    <path  style="fill: none; stroke: rgb(0, 0, 0); stroke-width: 1.0;" d="M138.00000,145.00000 L138.00000,138.00000 "/>
    <path  style="fill: none; stroke: rgb(0, 0, 0); stroke-width: 1.0;" d="M25.00000,222.00000 L25.00000,25.00000 "/>
    <path  style="fill: none; stroke: rgb(0, 0, 0); stroke-width: 1.0;" d="M9.00000,26.00000 L9.00000,9.00000 "/>
    <path  style="fill: none; stroke: rgb(0, 0, 0); stroke-width: 1.0;" d="M156.00000,194.00000 L156.00000,156.00000 "/>
    <path  style="fill: none; stroke: rgb(0, 0, 0); stroke-width: 1.0;" d="M210.00000,108.00000 L210.00000,210.00000 "/>
    <path  style="fill: none; stroke: rgb(0, 0, 0); stroke-width: 1.0;" d="M206.00000,112.00000 L206.00000,206.00000 "/>
    <path  style="fill: none; stroke: rgb(0, 0, 0); stroke-width: 1.0;" d="M141.00000,46.00000 L141.00000,141.00000 "/>
    <path  style="fill: none; stroke: rgb(0, 0, 0); stroke-width: 1.0;" d="M174.00000,215.00000 L174.00000,174.00000 "/>
    <path  style="fill: none; stroke: rgb(0, 0, 0); stroke-width: 1.0;" d="M216.00000,28.00000 L216.00000,216.00000 "/>
    <path  style="fill: none; stroke: rgb(0, 0, 0); stroke-width: 1.0;" d="M134.00000,16.00000 L134.00000,134.00000 "/>
    <path  style="fill: none; stroke: rgb(0, 0, 0); stroke-width: 1.0;" d="M159.00000,95.00000 L159.00000,159.00000 "/>
    <path  style="fill: none; stroke: rgb(0, 0, 0); stroke-width: 1.0;" d="M151.00000,248.00000 L151.00000,151.00000 "/>
    <path  style="fill: none; stroke: rgb(0, 0, 0); stroke-width: 1.0;" d="M50.00000,212.00000 L50.00000,50.00000 "/>
    <path  style="fill: none; stroke: rgb(0, 0, 0); stroke-width: 1.0;" d="M33.00000,236.00000 L33.00000,33.00000 "/>
    <path  style="fill: none; stroke: rgb(0, 0, 0); stroke-width: 1.0;" d="M241.00000,179.00000 L241.00000,241.00000 "/>
    <path  style="fill: none; stroke: rgb(0, 0, 0); stroke-width: 1.0;" d="M99.00000,223.00000 L99.00000,99.00000 "/>
    <path  style="fill: none; stroke: rgb(0, 0, 0); stroke-width: 1.0;" d="M177.00000,231.00000 L177.00000,177.00000 "/>
    <path  style="fill: none; stroke: rgb(0, 0, 0); stroke-width: 1.0;" d="M173.00000,253.00000 L173.00000,173.00000 "/>
    <path  style="fill: none; stroke: rgb(0, 0, 0); stroke-width: 1.0;" d="M183.00000,248.00000 L183.00000,183.00000 "/>
    <path  style="fill: none; stroke: rgb(0, 0, 0); stroke-width: 1.0;" d="M77.00000,215.00000 L77.00000,77.00000 "/>
    <path  style="fill: none; stroke: rgb(0, 0, 0); stroke-width: 1.0;" d="M13.00000,204.00000 L13.00000,13.00000 "/>
    <path  style="fill: none; stroke: rgb(0, 0, 0); stroke-width: 1.0;" d="M243.00000,173.00000 L243.00000,243.00000 "/>
    <path  style="fill: none; stroke: rgb(0, 0, 0); stroke-width: 1.0;" d="M73.00000,159.00000 L73.00000,73.00000 "/>
    <path  style="fill: none; stroke: rgb(0, 0, 0); stroke-width: 1.0;" d="M47.00000,27.00000 L47.00000,47.00000 "/>
    <path  style="fill: none; stroke: rgb(0, 0, 0); stroke-width: 1.0;" d="M182.00000,57.00000 L182.00000,182.00000 "/>
    <path  style="fill: none; stroke: rgb(0, 0, 0); stroke-width: 1.0;" d="M57.00000,37.00000 L57.00000,57.00000 "/>
    <path  style="fill: none; stroke: rgb(0, 0, 0); stroke-width: 1.0;" d="M79.00000,214.00000 L79.00000,79.00000 "/>
    <path  style="fill: none; stroke: rgb(0, 0, 0); stroke-width: 1.0;" d="M195.00000,185.00000 L195.00000,195.00000 "/>
    <path  style="fill: none; stroke: rgb(0, 0, 0); stroke-width: 1.0;" d="M63.00000,254.00000 L63.00000,63.00000 "/>
    <path  style="fill: none; stroke: rgb(0, 0, 0); stroke-width: 1.0;" d="M145.00000,17.00000 L145.00000,145.00000 "/>
    <path  style="fill: none; stroke: rgb(0, 0, 0); stroke-width: 1.0;" d="M176.00000,127.00000 L176.00000,176.00000 "/>
    <path  style="fill: none; stroke: rgb(0, 0, 0); stroke-width: 1.0;" d="M117.00000,84.00000 L117.00000,117.00000 "/>
    <path  style="fill: none; stroke: rgb(0, 0, 0); stroke-width: 1.0;" d="M138.00000,74.00000 L138.00000,138.00000 "/>
    <path  style="fill: none; stroke: rgb(0, 0, 0); stroke-width: 1.0;" d="M234.00000,50.00000 L234.00000,234.00000 "/>
    <path  style="fill: none; stroke: rgb(0, 0, 0); stroke-width: 1.0;" d="M30.00000,78.00000 L30.00000,30.00000 "/>
    <path  style="fill: none; stroke: rgb(0, 0, 0); stroke-width: 1.0;" d="M147.00000,198.00000 L147.00000,147.00000 "/>
    <path  style="fill: none; stroke: rgb(0, 0, 0); stroke-width: 1.0;" d="M38.00000,32.00000 L38.00000,38.00000 "/>
    <path  style="fill: none; stroke: rgb(0, 0, 0); stroke-width: 1.0;" d="M76.00000,208.00000 L76.00000,76.00000 "/>
    <path  style="fill: none; stroke: rgb(0, 0, 0); stroke-width: 1.0;" d="M215.00000,21.00000 L215.00000,215.00000 "/>
    <path  style="fill: none; stroke: rgb(0, 0, 0); stroke-width: 1.0;" d="M132.00000,71.00000 L132.00000,132.00000 "/>
    <path  style="fill: none; stroke: rgb(0, 0, 0); stroke-width: 1.0;" d="M22.00000,126.00000 L22.00000,22.00000 "/>
    <path  style="fill: none; stroke: rgb(0, 0, 0); stroke-width: 1.0;" d="M238.00000,222.00000 L238.00000,238.00000 "/>
    <path  style="fill: none; stroke: rgb(0, 0, 0); stroke-width: 1.0;" d="M81.00000,174.00000 L81.00000,81.00000 "/>
    <path  style="fill: none; stroke: rgb(0, 0, 0); stroke-width: 1.0;" d="M157.00000,220.00000 L157.00000,157.00000 "/>
    <path  style="fill: none; stroke: rgb(0, 0, 0); stroke-width: 1.0;" d="M44.00000,202.00000 L44.00000,44.00000 "/>
    <path  style="fill: none; stroke: rgb(0, 0, 0); stroke-width: 1.0;" d="M211.00000,18.00000 L211.00000,211.00000 "/>
    <path  style="fill: none; stroke: rgb(0, 0, 0); stroke-width: 1.0;" d="M203.00000,1.00000 L203.00000,203.00000 "/>
    <path  style="fill: none; stroke: rgb(0, 0, 0); stroke-width: 1.0;" d="M215.00000,162.00000 L215.00000,215.00000 "/>
    <path  style="fill: none; stroke: rgb(0, 0, 0); stroke-width: 1.0;" d="M161.00000,118.00000 L161.00000,161.00000 "/>
    <path  style="fill: none; stroke: rgb(0, 0, 0); stroke-width: 1.0;" d="M249.00000,251.00000 L249.00000,249.00000 "/>
    <path  style="fill: none; stroke: rgb(0, 0, 0); stroke-width: 1.0;" d="M160.00000,196.00000 L160.00000,160.00000 "/>
    <path  style="fill: none; stroke: rgb(0, 0, 0); stroke-width: 1.0;" d="M46.00000,35.00000 L46.00000,46.00000 "/>
    <path  style="fill: none; stroke: rgb(0, 0, 0); stroke-width: 1.0;" d="M82.00000,29.00000 L82.00000,82.00000 "/>
    <path  style="fill: none; stroke: rgb(0, 0, 0); stroke-width: 1.0;" d="M175.00000,211.00000 L175.00000,175.00000 "/>
    <path  style="fill: none; stroke: rgb(0, 0, 0); stroke-width: 1.0;" d="M166.00000,86.00000 L166.00000,166.00000 "/>
    <path  style="fill: none; stroke: rgb(0, 0, 0); stroke-width: 1.0;" d="M178.00000,182.00000 L178.00000,178.00000 "/>
    <path  style="fill: none; stroke: rgb(0, 0, 0); stroke-width: 1.0;" d="M214.00000,54.00000 L214.00000,214.00000 "/>
    <path  style="fill: none; stroke: rgb(0, 0, 0); stroke-width: 1.0;" d="M231.00000,127.00000 L231.00000,231.00000 "/>
    <path  style="fill: none; stroke: rgb(0, 0, 0); stroke-width: 1.0;" d="M109.00000,139.00000 L109.00000,109.00000 "/>
    <path  style="fill: none; stroke: rgb(0, 0, 0); stroke-width: 1.0;" d="M59.00000,131.00000 L59.00000,59.00000 "/>
    <path  style="fill: none; stroke: rgb(0, 0, 0); stroke-width: 1.0;" d="M197.00000,196.00000 L197.00000,197.00000 "/>
    <path  style="fill: none; stroke: rgb(0, 0, 0); stroke-width: 1.0;" d="M38.00000,199.00000 L38.00000,38.00000 "/>
    <path  style="fill: none; stroke: rgb(0, 0, 0); stroke-width: 1.0;" d="M108.00000,118.00000 L108.00000,108.00000 "/>
    <path  style="fill: none; stroke: rgb(0, 0, 0); stroke-width: 1.0;" d="M51.00000,71.00000 L51.00000,51.00000 "/>
    <path  style="fill: none; stroke: rgb(0, 0, 0); stroke-width: 1.0;" d="M19.00000,19.00000 L19.00000,19.00000 "/>
    <path  style="fill: none; stroke: rgb(0, 0, 0); stroke-width: 1.0;" d="M151.00000,17.00000 L151.00000,151.00000 "/>
    <path  style="fill: none; stroke: rgb(0, 0, 0); stroke-width: 1.0;" d="M201.00000,161.00000 L201.00000,201.00000 "/>
    <path  style="fill: none; stroke: rgb(0, 0, 0); stroke-width: 1.0;" d="M105.00000,65.00000 L105.00000,105.00000 "/>
    <path  style="fill: none; stroke: rgb(0, 0, 0); stroke-width: 1.0;" d="M100.00000,183.00000 L100.00000,100.00000 "/>
    <path  style="fill: none; stroke: rgb(0, 0, 0); stroke-width: 1.0;" d="M79.00000,244.00000 L79.00000,79.00000 "/>
    <path  style="fill: none; stroke: rgb(0, 0, 0); stroke-width: 1.0;" d="M230.00000,146.00000 L230.00000,230.00000 "/>
    <path  style="fill: none; stroke: rgb(0, 0, 0); stroke-width: 1.0;" d="M118.00000,69.00000 L118.00000,118.00000 "/>
    <path  style="fill: none; stroke: rgb(0, 0, 0); stroke-width: 1.0;" d="M144.00000,84.00000 L144.00000,144.00000 "/>
    <path  style="fill: none; stroke: rgb(0, 0, 0); stroke-width: 1.0;" d="M220.00000,171.00000 L220.00000,220.00000 "/>
    <path  style="fill: none; stroke: rgb(0, 0, 0); stroke-width: 1.0;" d="M57.00000,245.00000 L57.00000,57.00000 "/>
    <path  style="fill: none; stroke: rgb(0, 0, 0); stroke-width: 1.0;" d="M5.00000,6.00000 L5.00000,5.00000 "/>
    <path  style="fill: none; stroke: rgb(0, 0, 0); stroke-width: 1.0;" d="M45.00000,13.00000 L45.00000,45.00000 "/>
    <path  style="fill: none; stroke: rgb(0, 0, 0); stroke-width: 1.0;" d="M155.00000,6.00000 L155.00000,155.00000 "/>
    <path  style="fill: none; stroke: rgb(0, 0, 0); stroke-width: 1.0;" d="M183.00000,203.00000 L183.00000,183.00000 "/>
    <path  style="fill: none; stroke: rgb(0, 0, 0); stroke-width: 1.0;" d="M170.00000,8.00000 L170.00000,170.00000 "/>
    <path  style="fill: none; stroke: rgb(0, 0, 0); stroke-width: 1.0;" d="M207.00000,91.00000 L207.00000,207.00000 "/>
    <path  style="fill: none; stroke: rgb(0, 0, 0); stroke-width: 1.0;" d="M226.00000,254.00000 L226.00000,226.00000 "/>
    <path  style="fill: none; stroke: rgb(0, 0, 0); stroke-width: 1.0;" d="M131.00000,82.00000 L131.00000,131.00000 "/>
    <path  style="fill: none; stroke: rgb(0, 0, 0); stroke-width: 1.0;" d="M162.00000,248.00000 L162.00000,162.00000 "/>
    <path  style="fill: none; stroke: rgb(0, 0, 0); stroke-width: 1.0;" d="M162.00000,9.00000 L162.00000,162.00000 "/>
    <path  style="fill: none; stroke: rgb(0, 0, 0); stroke-width: 1.0;" d="M37.00000,82.00000 L37.00000,37.00000 "/>
    <path  style="fill: none; stroke: rgb(0, 0, 0); stroke-width: 1.0;" d="M110.00000,75.00000 L110.00000,110.00000 "/>
    <path  style="fill: none; stroke: rgb(0, 0, 0); stroke-width: 1.0;" d="M155.00000,58.00000 L155.00000,155.00000 "/>
    <path  style="fill: none; stroke: rgb(0, 0, 0); stroke-width: 1.0;" d="M3.00000,184.00000 L3.00000,3.00000 "/>
    <path  style="fill: none; stroke: rgb(0, 0, 0); stroke-width: 1.0;" d="M128.00000,106.00000 L128.00000,128.00000 "/>
    <path  style="fill: none; stroke: rgb(0, 0, 0); stroke-width: 1.0;" d="M179.00000,93.00000 L179.00000,179.00000 "/>
    <path  style="fill: none; stroke: rgb(0, 0, 0); stroke-width: 1.0;" d="M36.00000,89.00000 L36.00000,36.00000 "/>
    <path  style="fill: none; stroke: rgb(0, 0, 0); stroke-width: 1.0;" d="M114.00000,46.00000 L114.00000,114.00000 "/>
    <path  style="fill: none; stroke: rgb(0, 0, 0); stroke-width: 1.0;" d="M182.00000,158.00000 L182.00000,182.00000 "/>
    <path  style="fill: none; stroke: rgb(0, 0, 0); stroke-width: 1.0;" d="M151.00000,64.00000 L151.00000,151.00000 "/>
    <path  style="fill: none; stroke: rgb(0, 0, 0); stroke-width: 1.0;" d="M249.00000,38.00000 L249.00000,249.00000 "/>
    <path  style="fill: none; stroke: rgb(0, 0, 0); stroke-width: 1.0;" d="M2.00000,50.00000 L2.00000,2.00000 "/>
    <path  style="fill: none; stroke: rgb(0, 0, 0); stroke-width: 1.0;" d="M217.00000,141.00000 L217.00000,217.00000 "/>
    <path  style="fill: none; stroke: rgb(0, 0, 0); stroke-width: 1.0;" d="M190.00000,154.00000 L190.00000,190.00000 "/>
    <path  style="fill: none; stroke: rgb(0, 0, 0); stroke-width: 1.0;" d="M98.00000,221.00000 L98.00000,98.00000 "/>
    <path  style="fill: none; stroke: rgb(0, 0, 0); stroke-width: 1.0;" d="M75.00000,123.00000 L75.00000,75.00000 "/>
    <path  style="fill: none; stroke: rgb(0, 0, 0); stroke-width: 1.0;" d="M40.00000,211.00000 L40.00000,40.00000 "/>
    <path  style="fill: none; stroke: rgb(0, 0, 0); stroke-width: 1.0;" d="M222.00000,183.00000 L222.00000,222.00000 "/>
    <path  style="fill: none; stroke: rgb(0, 0, 0); stroke-width: 1.0;" d="M108.00000,153.00000 L108.00000,108.00000 "/>
    <path  style="fill: none; stroke: rgb(0, 0, 0); stroke-width: 1.0;" d="M61.00000,227.00000 L61.00000,61.00000 "/>
    <path  style="fill: none; stroke: rgb(0, 0, 0); stroke-width: 1.0;" d="M56.00000,145.00000 L56.00000,56.00000 "/>
    <path  style="fill: none; stroke: rgb(0, 0, 0); stroke-width: 1.0;" d="M51.00000,110.00000 L51.00000,51.00000 "/>
    <path  style="fill: none; stroke: rgb(0, 0, 0); stroke-width: 1.0;" d="M20.00000,231.00000 L20.00000,20.00000 "/>
    <path  style="fill: none; stroke: rgb(0, 0, 0); stroke-width: 1.0;" d="M56.00000,205.00000 L56.00000,56.00000 "/>
    <path  style="fill: none; stroke: rgb(0, 0, 0); stroke-width: 1.0;" d="M127.00000,132.00000 L127.00000,127.00000 "/>
    <path  style="fill: none; stroke: rgb(0, 0, 0); stroke-width: 1.0;" d="M186.00000,178.00000 L186.00000,186.00000 "/>
    <path  style="fill: none; stroke: rgb(0, 0, 0); stroke-width: 1.0;" d="M6.00000,135.00000 L6.00000,6.00000 "/>
    <path  style="fill: none; stroke: rgb(0, 0, 0); stroke-width: 1.0;" d="M200.00000,144.00000 L200.00000,200.00000 "/>
    <path  style="fill: none; stroke: rgb(0, 0, 0); stroke-width: 1.0;" d="M138.00000,236.00000 L138.00000,138.00000 "/>
    <path  style="fill: none; stroke: rgb(0, 0, 0); stroke-width: 1.0;" d="M69.00000,19.00000 L69.00000,69.00000 "/>
    <path  style="fill: none; stroke: rgb(0, 0, 0); stroke-width: 1.0;" d="M126.00000,75.00000 L126.00000,126.00000 "/>
    <path  style="fill: none; stroke: rgb(0, 0, 0); stroke-width: 1.0;" d="M98.00000,253.00000 L98.00000,98.00000 "/>
    <path  style="fill: none; stroke: rgb(0, 0, 0); stroke-width: 1.0;" d="M139.00000,57.00000 L139.00000,139.00000 "/>
    <path  style="fill: none; stroke: rgb(0, 0, 0); stroke-width: 1.0;" d="M202.00000,250.00000 L202.00000,202.00000 "/>
    <path  style="fill: none; stroke: rgb(0, 0, 0); stroke-width: 1.0;" d="M22.00000,109.00000 L22.00000,22.00000 "/>
    <path  style="fill: none; stroke: rgb(0, 0, 0); stroke-width: 1.0;" d="M217.00000,182.00000 L217.00000,217.00000 "/>
    <path  style="fill: none; stroke: rgb(0, 0, 0); stroke-width: 1.0;" d="M214.00000,181.00000 L214.00000,214.00000 "/>
    <path  style="fill: none; stroke: rgb(0, 0, 0); stroke-width: 1.0;" d="M212.00000,81.00000 L212.00000,212.00000 "/>
    <path  style="fill: none; stroke: rgb(0, 0, 0); stroke-width: 1.0;" d="M75.00000,38.00000 L75.00000,75.00000 "/>
    <path  style="fill: none; stroke: rgb(0, 0, 0); stroke-width: 1.0;" d="M12.00000,99.00000 L12.00000,12.00000 "/>
    <path  style="fill: none; stroke: rgb(0, 0, 0); stroke-width: 1.0;" d="M78.00000,27.00000 L78.00000,78.00000 "/>
    <path  style="fill: none; stroke: rgb(0, 0, 0); stroke-width: 1.0;" d="M123.00000,102.00000 L123.00000,123.00000 "/>
    <path  style="fill: none; stroke: rgb(0, 0, 0); stroke-width: 1.0;" d="M171.00000,188.00000 L171.00000,171.00000 "/>
    <path  style="fill: none; stroke: rgb(0, 0, 0); stroke-width: 1.0;" d="M211.00000,5.00000 L211.00000,211.00000 "/>
    <path  style="fill: none; stroke: rgb(0, 0, 0); stroke-width: 1.0;" d="M42.00000,43.00000 L42.00000,42.00000 "/>
    <path  style="fill: none; stroke: rgb(0, 0, 0); stroke-width: 1.0;" d="M28.00000,20.00000 L28.00000,28.00000 "/>
    <path  style="fill: none; stroke: rgb(0, 0, 0); stroke-width: 1.0;" d="M85.00000,167.00000 L85.00000,85.00000 "/>
    <path  style="fill: none; stroke: rgb(0, 0, 0); stroke-width: 1.0;" d="M119.00000,217.00000 L119.00000,119.00000 "/>
    <path  style="fill: none; stroke: rgb(0, 0, 0); stroke-width: 1.0;" d="M233.00000,112.00000 L233.00000,233.00000 "/>
    <path  style="fill: none; stroke: rgb(0, 0, 0); stroke-width: 1.0;" d="M149.00000,242.00000 L149.00000,149.00000 "/>
    <path  style="fill: none; stroke: rgb(0, 0, 0); stroke-width: 1.0;" d="M230.00000,140.00000 L230.00000,230.00000 "/>
    <path  style="fill: none; stroke: rgb(0, 0, 0); stroke-width: 1.0;" d="M40.00000,134.00000 L40.00000,40.00000 "/>
    <path  style="fill: none; stroke: rgb(0, 0, 0); stroke-width: 1.0;" d="M207.00000,159.00000 L207.00000,207.00000 "/>
    <path  style="fill: none; stroke: rgb(0, 0, 0); stroke-width: 1.0;" d="M118.00000,169.00000 L118.00000,118.00000 "/>
    <path  style="fill: none; stroke: rgb(0, 0, 0); stroke-width: 1.0;" d="M138.00000,133.00000 L138.00000,138.00000 "/>
    <path  style="fill: none; stroke: rgb(0, 0, 0); stroke-width: 1.0;" d="M122.00000,204.00000 L122.00000,122.00000 "/>
    <path  style="fill: none; stroke: rgb(0, 0, 0); stroke-width: 1.0;" d="M248.00000,36.00000 L248.00000,248.00000 "/>
    <path  style="fill: none; stroke: rgb(0, 0, 0); stroke-width: 1.0;" d="M242.00000,137.00000 L242.00000,242.00000 "/>
    <path  style="fill: none; stroke: rgb(0, 0, 0); stroke-width: 1.0;" d="M106.00000,10.00000 L106.00000,106.00000 "/>
    <path  style="fill: none; stroke: rgb(0, 0, 0); stroke-width: 1.0;" d="M13.00000,87.00000 L13.00000,13.00000 "/>
    <path  style="fill: none; stroke: rgb(0, 0, 0); stroke-width: 1.0;" d="M202.00000,165.00000 L202.00000,202.00000 "/>
    <path  style="fill: none; stroke: rgb(0, 0, 0); stroke-width: 1.0;" d="M140.00000,28.00000 L140.00000,140.00000 "/>
    <path  style="fill: none; stroke: rgb(0, 0, 0); stroke-width: 1.0;" d="M49.00000,171.00000 L49.00000,49.00000 "/>
    <path  style="fill: none; stroke: rgb(0, 0, 0); stroke-width: 1.0;" d="M139.00000,9.00000 L139.00000,139.00000 "/>
    <path  style="fill: none; stroke: rgb(0, 0, 0); stroke-width: 1.0;" d="M138.00000,129.00000 L138.00000,138.00000 "/>
    <path  style="fill: none; stroke: rgb(0, 0, 0); stroke-width: 1.0;" d="M232.00000,119.00000 L232.00000,232.00000 "/>
    <path  style="fill: none; stroke: rgb(0, 0, 0); stroke-width: 1.0;" d="M232.00000,134.00000 L232.00000,232.00000 "/>
    <path  style="fill: none; stroke: rgb(0, 0, 0); stroke-width: 1.0;" d="M208.00000,54.00000 L208.00000,208.00000 "/>
    <path  style="fill: none; stroke: rgb(0, 0, 0); stroke-width: 1.0;" d="M119.00000,239.00000 L119.00000,119.00000 "/>
    <path  style="fill: none; stroke: rgb(0, 0, 0); stroke-width: 1.0;" d="M149.00000,164.00000 L149.00000,149.00000 "/>
    <path  style="fill: none; stroke: rgb(0, 0, 0); stroke-width: 1.0;" d="M52.00000,196.00000 L52.00000,52.00000 "/>
    <path  style="fill: none; stroke: rgb(0, 0, 0); stroke-width: 1.0;" d="M10.00000,125.00000 L10.00000,10.00000 "/>
    <path  style="fill: none; stroke: rgb(0, 0, 0); stroke-width: 1.0;" d="M221.00000,110.00000 L221.00000,221.00000 "/>
    <path  style="fill: none; stroke: rgb(0, 0, 0); stroke-width: 1.0;" d="M76.00000,248.00000 L76.00000,76.00000 "/>
    <path  style="fill: none; stroke: rgb(0, 0, 0); stroke-width: 1.0;" d="M194.00000,71.00000 L194.00000,194.00000 "/>
    <path  style="fill: none; stroke: rgb(0, 0, 0); stroke-width: 1.0;" d="M109.00000,127.00000 L109.00000,109.00000 "/>
    <path  style="fill: none; stroke: rgb(0, 0, 0); stroke-width: 1.0;" d="M67.00000,142.00000 L67.00000,67.00000 "/>
    <path  style="fill: none; stroke: rgb(0, 0, 0); stroke-width: 1.0;" d="M18.00000,156.00000 L18.00000,18.00000 "/>
    <path  style="fill: none; stroke: rgb(0, 0, 0); stroke-width: 1.0;" d="M60.00000,179.00000 L60.00000,60.00000 "/>
    <path  style="fill: none; stroke: rgb(0, 0, 0); stroke-width: 1.0;" d="M87.00000,180.00000 L87.00000,87.00000 "/>
    <path  style="fill: none; stroke: rgb(0, 0, 0); stroke-width: 1.0;" d="M72.00000,220.00000 L72.00000,72.00000 "/>
    <path  style="fill: none; stroke: rgb(0, 0, 0); stroke-width: 1.0;" d="M22.00000,29.00000 L22.00000,22.00000 "/>
    <path  style="fill: none; stroke: rgb(0, 0, 0); stroke-width: 1.0;" d="M9.00000,79.00000 L9.00000,9.00000 "/>
    <path  style="fill: none; stroke: rgb(0, 0, 0); stroke-width: 1.0;" d="M98.00000,40.00000 L98.00000,98.00000 "/>
    <path  style="fill: none; stroke: rgb(0, 0, 0); stroke-width: 1.0;" d="M69.00000,107.00000 L69.00000,69.00000 "/>
    <path  style="fill: none; stroke: rgb(0, 0, 0); stroke-width: 1.0;" d="M78.00000,104.00000 L78.00000,78.00000 "/>
    <path  style="fill: none; stroke: rgb(0, 0, 0); stroke-width: 1.0;" d="M189.00000,138.00000 L189.00000,189.00000 "/>
    <path  style="fill: none; stroke: rgb(0, 0, 0); stroke-width: 1.0;" d="M66.00000,230.00000 L66.00000,66.00000 "/>
    <path  style="fill: none; stroke: rgb(0, 0, 0); stroke-width: 1.0;" d="M30.00000,78.00000 L30.00000,30.00000 "/>
    <path  style="fill: none; stroke: rgb(0, 0, 0); stroke-width: 1.0;" d="M23.00000,131.00000 L23.00000,23.00000 "/>
    <path  style="fill: none; stroke: rgb(0, 0, 0); stroke-width: 1.0;" d="M18.00000,203.00000 L18.00000,18.00000 "/>
    <path  style="fill: none; stroke: rgb(0, 0, 0); stroke-width: 1.0;" d="M245.00000,72.00000 L245.00000,245.00000 "/>
    <path  style="fill: none; stroke: rgb(0, 0, 0); stroke-width: 1.0;" d="M162.00000,35.00000 L162.00000,162.00000 "/>
    <path  style="fill: none; stroke: rgb(0, 0, 0); stroke-width: 1.0;" d="M41.00000,77.00000 L41.00000,41.00000 "/>
    <path  style="fill: none; stroke: rgb(0, 0, 0); stroke-width: 1.0;" d="M8.00000,18.00000 L8.00000,8.00000 "/>
    <path  style="fill: none; stroke: rgb(0, 0, 0); stroke-width: 1.0;" d="M80.00000,41.00000 L80.00000,80.00000 "/>
    <path  style="fill: none; stroke: rgb(0, 0, 0); stroke-width: 1.0;" d="M253.00000,106.00000 L253.00000,253.00000 "/>
    <path  style="fill: none; stroke: rgb(0, 0, 0); stroke-width: 1.0;" d="M124.00000,109.00000 L124.00000,124.00000 "/>
    <path  style="fill: none; stroke: rgb(0, 0, 0); stroke-width: 1.0;" d="M118.00000,116.00000 L118.00000,118.00000 "/>
    <path  style="fill: none; stroke: rgb(0, 0, 0); stroke-width: 1.0;" d="M37.00000,194.00000 L37.00000,37.00000 "/>
    <path  style="fill: none; stroke: rgb(0, 0, 0); stroke-width: 1.0;" d="M126.00000,223.00000 L126.00000,126.00000 "/>
    <path  style="fill: none; stroke: rgb(0, 0, 0); stroke-width: 1.0;" d="M81.00000,223.00000 L81.00000,81.00000 "/>
    <path  style="fill: none; stroke: rgb(0, 0, 0); stroke-width: 1.0;" d="M166.00000,234.00000 L166.00000,166.00000 "/>
    <path  style="fill: none; stroke: rgb(0, 0, 0); stroke-width: 1.0;" d="M42.00000,69.00000 L42.00000,42.00000 "/>
    <path  style="fill: none; stroke: rgb(0, 0, 0); stroke-width: 1.0;" d="M237.00000,222.00000 L237.00000,237.00000 "/>
    <path  style="fill: none; stroke: rgb(0, 0, 0); stroke-width: 1.0;" d="M5.00000,101.00000 L5.00000,5.00000 "/>
    <path  style="fill: none; stroke: rgb(0, 0, 0); stroke-width: 1.0;" d="M41.00000,75.00000 L41.00000,41.00000 "/>
    <path  style="fill: none; stroke: rgb(0, 0, 0); stroke-width: 1.0;" d="M222.00000,181.00000 L222.00000,222.00000 "/>
    <path  style="fill: none; stroke: rgb(0, 0, 0); stroke-width: 1.0;" d="M150.00000,88.00000 L150.00000,150.00000 "/>
    <path  style="fill: none; stroke: rgb(0, 0, 0); stroke-width: 1.0;" d="M183.00000,9.00000 L183.00000,183.00000 "/>
    <path  style="fill: none; stroke: rgb(0, 0, 0); stroke-width: 1.0;" d="M1.00000,239.00000 L1.00000,1.00000 "/>
    <path  style="fill: none; stroke: rgb(0, 0, 0); stroke-width: 1.0;" d="M215.00000,58.00000 L215.00000,215.00000 "/>
    <path  style="fill: none; stroke: rgb(0, 0, 0); stroke-width: 1.0;" d="M190.00000,141.00000 L190.00000,190.00000 "/>
    <path  style="fill: none; stroke: rgb(0, 0, 0); stroke-width: 1.0;" d="M92.00000,141.00000 L92.00000,92.00000 "/>
    <path  style="fill: none; stroke: rgb(0, 0, 0); stroke-width: 1.0;" d="M235.00000,161.00000 L235.00000,235.00000 "/>
    <path  style="fill: none; stroke: rgb(0, 0, 0); stroke-width: 1.0;" d="M111.00000,27.00000 L111.00000,111.00000 "/>
    <path  style="fill: none; stroke: rgb(0, 0, 0); stroke-width: 1.0;" d="M44.00000,132.00000 L44.00000,44.00000 "/>
    <path  style="fill: none; stroke: rgb(0, 0, 0); stroke-width: 1.0;" d="M219.00000,105.00000 L219.00000,219.00000 "/>
    <path  style="fill: none; stroke: rgb(0, 0, 0); stroke-width: 1.0;" d="M203.00000,141.00000 L203.00000,203.00000 "/>
    <path  style="fill: none; stroke: rgb(0, 0, 0); stroke-width: 1.0;" d="M254.00000,89.00000 L254.00000,254.00000 "/>
    <path  style="fill: none; stroke: rgb(0, 0, 0); stroke-width: 1.0;" d="M52.00000,5.00000 L52.00000,52.00000 "/>
    <path  style="fill: none; stroke: rgb(0, 0, 0); stroke-width: 1.0;" d="M145.00000,145.00000 L145.00000,145.00000 "/>
    <path  style="fill: none; stroke: rgb(0, 0, 0); stroke-width: 1.0;" d="M134.00000,14.00000 L134.00000,134.00000 "/>
    <path  style="fill: none; stroke: rgb(0, 0, 0); stroke-width: 1.0;" d="M78.00000,168.00000 L78.00000,78.00000 "/>
    <path  style="fill: none; stroke: rgb(0, 0, 0); stroke-width: 1.0;" d="M78.00000,1.00000 L78.00000,78.00000 "/>
    <path  style="fill: none; stroke: rgb(0, 0, 0); stroke-width: 1.0;" d="M107.00000,66.00000 L107.00000,107.00000 "/>
    <path  style="fill: none; stroke: rgb(0, 0, 0); stroke-width: 1.0;" d="M63.00000,202.00000 L63.00000,63.00000 "/>
    <path  style="fill: none; stroke: rgb(0, 0, 0); stroke-width: 1.0;" d="M62.00000,144.00000 L62.00000,62.00000 "/>
    <path  style="fill: none; stroke: rgb(0, 0, 0); stroke-width: 1.0;" d="M74.00000,196.00000 L74.00000,74.00000 "/>
    <path  style="fill: none; stroke: rgb(0, 0, 0); stroke-width: 1.0;" d="M177.00000,55.00000 L177.00000,177.00000 "/>
    <path  style="fill: none; stroke: rgb(0, 0, 0); stroke-width: 1.0;" d="M159.00000,79.00000 L159.00000,159.00000 "/>
    <path  style="fill: none; stroke: rgb(0, 0, 0); stroke-width: 1.0;" d="M174.00000,229.00000 L174.00000,174.00000 "/>
    <path  style="fill: none; stroke: rgb(0, 0, 0); stroke-width: 1.0;" d="M235.00000,133.00000 L235.00000,235.00000 "/>
    <path  style="fill: none; stroke: rgb(0, 0, 0); stroke-width: 1.0;" d="M125.00000,86.00000 L125.00000,125.00000 "/>
    <path  style="fill: none; stroke: rgb(0, 0, 0); stroke-width: 1.0;" d="M8.00000,167.00000 L8.00000,8.00000 "/>
    <path  style="fill: none; stroke: rgb(0, 0, 0); stroke-width: 1.0;" d="M254.00000,154.00000 L254.00000,254.00000 "/>
    <path  style="fill: none; stroke: rgb(0, 0, 0); stroke-width: 1.0;" d="M48.00000,107.00000 L48.00000,48.00000 "/>
    <path  style="fill: none; stroke: rgb(0, 0, 0); stroke-width: 1.0;" d="M6.00000,216.00000 L6.00000,6.00000 "/>
    <path  style="fill: none; stroke: rgb(0, 0, 0); stroke-width: 1.0;" d="M185.00000,208.00000 L185.00000,185.00000 "/>
    <path  style="fill: none; stroke: rgb(0, 0, 0); stroke-width: 1.0;" d="M127.00000,44.00000 L127.00000,127.00000 "/>
    <path  style="fill: none; stroke: rgb(0, 0, 0); stroke-width: 1.0;" d="M108.00000,105.00000 L108.00000,108.00000 "/>
    <path  style="fill: none; stroke: rgb(0, 0, 0); stroke-width: 1.0;" d="M2.00000,163.00000 L2.00000,2.00000 "/>
    <path  style="fill: none; stroke: rgb(0, 0, 0); stroke-width: 1.0;" d="M168.00000,120.00000 L168.00000,168.00000 "/>
    <path  style="fill: none; stroke: rgb(0, 0, 0); stroke-width: 1.0;" d="M140.00000,223.00000 L140.00000,140.00000 "/>
    <path  style="fill: none; stroke: rgb(0, 0, 0); stroke-width: 1.0;" d="M226.00000,10.00000 L226.00000,226.00000 "/>
    <path  style="fill: none; stroke: rgb(0, 0, 0); stroke-width: 1.0;" d="M224.00000,58.00000 L224.00000,224.00000 "/>
    <path  style="fill: none; stroke: rgb(0, 0, 0); stroke-width: 1.0;" d="M0.00000,71.00000 L0.00000,0.00000 "/>
    <path  style="fill: none; stroke: rgb(0, 0, 0); stroke-width: 1.0;" d="M102.00000,252.00000 L102.00000,102.00000 "/>
    <path  style="fill: none; stroke: rgb(0, 0, 0); stroke-width: 1.0;" d="M192.00000,12.00000 L192.00000,192.00000 "/>
    <path  style="fill: none; stroke: rgb(0, 0, 0); stroke-width: 1.0;" d="M253.00000,2.00000 L253.00000,253.00000 "/>
    <path  style="fill: none; stroke: rgb(0, 0, 0); stroke-width: 1.0;" d="M245.00000,100.00000 L245.00000,245.00000 "/>
    <path  style="fill: none; stroke: rgb(0, 0, 0); stroke-width: 1.0;" d="M166.00000,62.00000 L166.00000,166.00000 "/>
    <path  style="fill: none; stroke: rgb(0, 0, 0); stroke-width: 1.0;" d="M31.00000,61.00000 L31.00000,31.00000 "/>
    <path  style="fill: none; stroke: rgb(0, 0, 0); stroke-width: 1.0;" d="M51.00000,183.00000 L51.00000,51.00000 "/>

<script>
let svgs = document.children[0];
let paths = Array.from(svgs.children).filter(function(c) {
    var orig = c.style.stroke;
    c.onmouseover = function() {
        c.style.stroke = "rgb(0, 0, 255)";
    };
    c.onmouseout = function () {
        c.style.stroke = orig;
    };
    c.onclick = function () {
        svgs.removeChild()
    }
});

for (let path of paths) {
    console.log(path);
}
</script></svg>