<svg xmlns="http://www.w3.org/2000/svg">
    <path fill-rule="evenodd" style="fill: none; stroke: rgb(0, 0, 0); stroke-width: 2;" d="M10.00000,10.00000 L10.00000,20.00000 L10.00000,30.00000 L10.00000,40.00000 L10.00000,50.00000 L10.00000,60.00000 L10.00000,70.00000 L10.00000,80.00000 L10.00000,90.00000 L10.00000,100.00000 "/>
    <path fill-rule="evenodd" style="fill: none; stroke: rgb(0, 0, 0); stroke-width: 2;" d="M20.00000,10.00000 L20.00000,20.00000 L20.00000,30.00000 L20.00000,40.00000 L20.00000,50.00000 L20.00000,60.00000 L20.00000,70.00000 L20.00000,80.00000 L20.00000,90.00000 L20.00000,100.00000 "/>
    <path fill-rule="evenodd" style="fill: none; stroke: rgb(0, 0, 0); stroke-width: 2;" d="M30.00000,10.00000 L30.00000,20.00000 L30.00000,30.00000 L30.00000,40.00000 L30.00000,50.00000 L30.00000,60.00000 L30.00000,70.00000 L30.00000,80.00000 L30.00000,90.00000 L30.00000,100.00000 "/>
    <path fill-rule="evenodd" style="fill: none; stroke: rgb(0, 0, 0); stroke-width: 2;" d="M40.00000,10.00000 L40.00000,20.00000 L40.00000,30.00000 L40.00000,40.00000 L40.00000,50.00000 L40.00000,60.00000 L40.00000,70.00000 L40.00000,80.00000 L40.00000,90.00000 L40.00000,100.00000 "/>
    <path fill-rule="evenodd" style="fill: none; stroke: rgb(0, 0, 0); stroke-width: 2;" d="M50.00000,10.00000 L50.00000,20.00000 L50.00000,30.00000 L50.00000,40.00000 L50.00000,50.00000 L50.00000,60.00000 L50.00000,70.00000 L50.00000,80.00000 L50.00000,90.00000 L50.00000,100.00000 "/>
    <path fill-rule="evenodd" style="fill: none; stroke: rgb(0, 0, 0); stroke-width: 2;" d="M60.00000,10.00000 L60.00000,20.00000 L60.00000,30.00000 L60.00000,40.00000 L60.00000,50.00000 L60.00000,60.00000 L60.00000,70.00000 L60.00000,80.00000 L60.00000,90.00000 L60.00000,100.00000 "/>
    <path fill-rule="evenodd" style="fill: none; stroke: rgb(0, 0, 0); stroke-width: 2;" d="M70.00000,10.00000 L70.00000,20.00000 L70.00000,30.00000 L70.00000,40.00000 L70.00000,50.00000 L70.00000,60.00000 L70.00000,70.00000 L70.00000,80.00000 L70.00000,90.00000 L70.00000,100.00000 "/>
    <path fill-rule="evenodd" style="fill: none; stroke: rgb(0, 0, 0); stroke-width: 2;" d="M80.00000,10.00000 L80.00000,20.00000 L80.00000,30.00000 L80.00000,40.00000 L80.00000,50.00000 L80.00000,60.00000 L80.00000,70.00000 L80.00000,80.00000 L80.00000,90.00000 L80.00000,100.00000 "/>
    <path fill-rule="evenodd" style="fill: none; stroke: rgb(0, 0, 0); stroke-width: 2;" d="M90.00000,10.00000 L90.00000,20.00000 L90.00000,30.00000 L90.00000,40.00000 L90.00000,50.00000 L90.00000,60.00000 L90.00000,70.00000 L90.00000,80.00000 L90.00000,90.00000 L90.00000,100.00000 "/>
    <path fill-rule="evenodd" style="fill: none; stroke: rgb(0, 0, 0); stroke-width: 2;" d="M100.00000,10.00000 L100.00000,20.00000 L100.00000,30.00000 L100.00000,40.00000 L100.00000,50.00000 L100.00000,60.00000 L100.00000,70.00000 L100.00000,80.00000 L100.00000,90.00000 L100.00000,100.00000 "/>
    <path fill-rule="evenodd" style="fill: none; stroke: rgb(0, 0, 0); stroke-width: 2;" d="M10.00000,10.00000 L20.00000,10.00000 L30.00000,10.00000 L40.00000,10.00000 L50.00000,10.00000 L60.00000,10.00000 L70.00000,10.00000 L80.00000,10.00000 L90.00000,10.00000 L100.00000,10.00000 "/>
    <path fill-rule="evenodd" style="fill: none; stroke: rgb(0, 0, 0); stroke-width: 2;" d="M10.00000,20.00000 L20.00000,20.00000 L30.00000,20.00000 L40.00000,20.00000 L50.00000,20.00000 L60.00000,20.00000 L70.00000,20.00000 L80.00000,20.00000 L90.00000,20.00000 L100.00000,20.00000 "/>
    <path fill-rule="evenodd" style="fill: none; stroke: rgb(0, 0, 0); stroke-width: 2;" d="M10.00000,30.00000 L20.00000,30.00000 L30.00000,30.00000 L40.00000,30.00000 L50.00000,30.00000 L60.00000,30.00000 L70.00000,30.00000 L80.00000,30.00000 L90.00000,30.00000 L100.00000,30.00000 "/>
    <path fill-rule="evenodd" style="fill: none; stroke: rgb(0, 0, 0); stroke-width: 2;" d="M10.00000,40.00000 L20.00000,40.00000 L30.00000,40.00000 L40.00000,40.00000 L50.00000,40.00000 L60.00000,40.00000 L70.00000,40.00000 L80.00000,40.00000 L90.00000,40.00000 L100.00000,40.00000 "/>
    <path fill-rule="evenodd" style="fill: none; stroke: rgb(0, 0, 0); stroke-width: 2;" d="M10.00000,50.00000 L20.00000,50.00000 L30.00000,50.00000 L40.00000,50.00000 L50.00000,50.00000 L60.00000,50.00000 L70.00000,50.00000 L80.00000,50.00000 L90.00000,50.00000 L100.00000,50.00000 "/>
    <path fill-rule="evenodd" style="fill: none; stroke: rgb(0, 0, 0); stroke-width: 2;" d="M10.00000,60.00000 L20.00000,60.00000 L30.00000,60.00000 L40.00000,60.00000 L50.00000,60.00000 L60.00000,60.00000 L70.00000,60.00000 L80.00000,60.00000 L90.00000,60.00000 L100.00000,60.00000 "/>
    <path fill-rule="evenodd" style="fill: none; stroke: rgb(0, 0, 0); stroke-width: 2;" d="M10.00000,70.00000 L20.00000,70.00000 L30.00000,70.00000 L40.00000,70.00000 L50.00000,70.00000 L60.00000,70.00000 L70.00000,70.00000 L80.00000,70.00000 L90.00000,70.00000 L100.00000,70.00000 "/>
    <path fill-rule="evenodd" style="fill: none; stroke: rgb(0, 0, 0); stroke-width: 2;" d="M10.00000,80.00000 L20.00000,80.00000 L30.00000,80.00000 L40.00000,80.00000 L50.00000,80.00000 L60.00000,80.00000 L70.00000,80.00000 L80.00000,80.00000 L90.00000,80.00000 L100.00000,80.00000 "/>
    <path fill-rule="evenodd" style="fill: none; stroke: rgb(0, 0, 0); stroke-width: 2;" d="M10.00000,90.00000 L20.00000,90.00000 L30.00000,90.00000 L40.00000,90.00000 L50.00000,90.00000 L60.00000,90.00000 L70.00000,90.00000 L80.00000,90.00000 L90.00000,90.00000 L100.00000,90.00000 "/>
    <path fill-rule="evenodd" style="fill: none; stroke: rgb(0, 0, 0); stroke-width: 2;" d="M10.00000,100.00000 L20.00000,100.00000 L30.00000,100.00000 L40.00000,100.00000 L50.00000,100.00000 L60.00000,100.00000 L70.00000,100.00000 L80.00000,100.00000 L90.00000,100.00000 L100.00000,100.00000 "/>

<script>
let svgs = document.children[0];
let paths = Array.from(svgs.children).filter(function(c) {
    var orig = c.style.stroke;
    c.onmouseover = function() {
        c.style.stroke = "rgb(0, 0, 255)";
    };
    c.onmouseout = function () {
        c.style.stroke = orig;
    };
    c.onclick = function () {
        svgs.removeChild()
    }
});

for (let path of paths) {
    console.log(path);
}
</script></svg>