<svg xmlns="http://www.w3.org/2000/svg" viewBox="-100 -100 1250 1250">
    <path  style="fill: none; stroke: rgb(0, 0, 0); stroke-width: 1;" d="M93.98181,34.16751 L-96.41547,26.53409 "/>
    <path  style="fill: none; stroke: rgb(0, 0, 0); stroke-width: 1;" d="M-96.29529,23.53650 L94.10199,31.16992 "/>
    <path  style="fill: none; stroke: rgb(0, 0, 0); stroke-width: 1;" d="M94.22217,28.17233 L-96.17511,20.53891 "/>
    <path  style="fill: none; stroke: rgb(0, 0, 0); stroke-width: 1;" d="M-96.05493,17.54132 L94.34235,25.17474 "/>
    <path  style="fill: none; stroke: rgb(0, 0, 0); stroke-width: 1;" d="M94.46252,22.17715 L-95.93475,14.54373 "/>
    <path  style="fill: none; stroke: rgb(0, 0, 0); stroke-width: 1;" d="M87.19881,-48.95271 L-24.30582,17.41548 "/>
    <path  style="fill: none; stroke: rgb(0, 0, 0); stroke-width: 1;" d="M-29.80120,17.19516 L85.66441,-51.53063 "/>
    <path  style="fill: none; stroke: rgb(0, 0, 0); stroke-width: 1;" d="M84.13002,-54.10854 L-35.29655,16.97484 "/>
    <path  style="fill: none; stroke: rgb(0, 0, 0); stroke-width: 1;" d="M98.14911,-19.15079 L39.98703,19.99311 "/>
    <path  style="fill: none; stroke: rgb(0, 0, 0); stroke-width: 1;" d="M34.91605,19.78980 L96.47409,-21.63963 "/>
    <path  style="fill: none; stroke: rgb(0, 0, 0); stroke-width: 1;" d="M94.79907,-24.12847 L29.84506,19.58650 "/>
    <path  style="fill: none; stroke: rgb(0, 0, 0); stroke-width: 1;" d="M12.06661,99.26931 L22.67227,31.30856 "/>
    <path  style="fill: none; stroke: rgb(0, 0, 0); stroke-width: 1;" d="M25.68970,31.42954 L15.03074,99.73188 "/>
    <path  style="fill: none; stroke: rgb(0, 0, 0); stroke-width: 1;" d="M17.99486,100.19445 L28.70712,31.55051 "/>
    <path  style="fill: none; stroke: rgb(0, 0, 0); stroke-width: 1;" d="M-67.89844,176.58473 L94.15628,283.68375 "/>
    <path  style="fill: none; stroke: rgb(0, 0, 0); stroke-width: 1;" d="M92.50222,286.18655 L-69.55250,179.08754 "/>
    <path  style="fill: none; stroke: rgb(0, 0, 0); stroke-width: 1;" d="M-71.20656,181.59035 L90.84816,288.68936 "/>
    <path  style="fill: none; stroke: rgb(0, 0, 0); stroke-width: 1;" d="M89.19410,291.19217 L-72.86062,184.09315 "/>
    <path  style="fill: none; stroke: rgb(0, 0, 0); stroke-width: 1;" d="M-74.51468,186.59596 L87.54004,293.69498 "/>
    <path  style="fill: none; stroke: rgb(0, 0, 0); stroke-width: 1;" d="M-11.44201,150.65675 L38.94898,247.19824 "/>
    <path  style="fill: none; stroke: rgb(0, 0, 0); stroke-width: 1;" d="M33.78282,243.78403 L-14.10152,152.04492 "/>
    <path  style="fill: none; stroke: rgb(0, 0, 0); stroke-width: 1;" d="M-16.76103,153.43309 L28.61664,240.36978 "/>
    <path  style="fill: none; stroke: rgb(0, 0, 0); stroke-width: 1;" d="M-99.92143,253.96313 L8.14607,241.22495 "/>
    <path  style="fill: none; stroke: rgb(0, 0, 0); stroke-width: 1;" d="M12.02504,243.78848 L-99.57024,256.94250 "/>
    <path  style="fill: none; stroke: rgb(0, 0, 0); stroke-width: 1;" d="M-99.21906,259.92188 L15.90401,246.35204 "/>
    <path  style="fill: none; stroke: rgb(0, 0, 0); stroke-width: 1;" d="M-99.75054,257.05902 L52.46487,270.51443 "/>
    <path  style="fill: none; stroke: rgb(0, 0, 0); stroke-width: 1;" d="M57.72559,273.99115 L-100.01470,260.04736 "/>
    <path  style="fill: none; stroke: rgb(0, 0, 0); stroke-width: 1;" d="M-100.27886,263.03571 L62.98634,277.46790 "/>
    <path  style="fill: none; stroke: rgb(0, 0, 0); stroke-width: 1;" d="M-83.31834,444.70032 L99.39466,489.01361 "/>
    <path  style="fill: none; stroke: rgb(0, 0, 0); stroke-width: 1;" d="M98.68757,491.92908 L-84.02544,447.61578 "/>
    <path  style="fill: none; stroke: rgb(0, 0, 0); stroke-width: 1;" d="M-84.73253,450.53125 L97.98048,494.84454 "/>
    <path  style="fill: none; stroke: rgb(0, 0, 0); stroke-width: 1;" d="M97.27338,497.76001 L-85.43962,453.44672 "/>
    <path  style="fill: none; stroke: rgb(0, 0, 0); stroke-width: 1;" d="M-86.14671,456.36218 L96.56629,500.67548 "/>
    <path  style="fill: none; stroke: rgb(0, 0, 0); stroke-width: 1;" d="M-74.57885,566.61829 L-72.52193,459.66660 "/>
    <path  style="fill: none; stroke: rgb(0, 0, 0); stroke-width: 1;" d="M-69.53531,460.39093 L-71.57941,566.67596 "/>
    <path  style="fill: none; stroke: rgb(0, 0, 0); stroke-width: 1;" d="M-68.57996,566.73364 L-66.54868,461.11530 "/>
    <path  style="fill: none; stroke: rgb(0, 0, 0); stroke-width: 1;" d="M30.95333,595.08887 L8.37673,479.28690 "/>
    <path  style="fill: none; stroke: rgb(0, 0, 0); stroke-width: 1;" d="M11.58489,480.06497 L33.89790,594.51477 "/>
    <path  style="fill: none; stroke: rgb(0, 0, 0); stroke-width: 1;" d="M36.84246,593.94067 L14.79307,480.84305 "/>
    <path  style="fill: none; stroke: rgb(0, 0, 0); stroke-width: 1;" d="M37.71820,407.38608 L-46.46870,453.63745 "/>
    <path  style="fill: none; stroke: rgb(0, 0, 0); stroke-width: 1;" d="M-50.79103,452.58914 L36.27368,404.75674 "/>
    <path  style="fill: none; stroke: rgb(0, 0, 0); stroke-width: 1;" d="M34.82915,402.12741 L-55.11337,451.54086 "/>
    <path  style="fill: none; stroke: rgb(0, 0, 0); stroke-width: 1;" d="M59.25887,830.55054 L-4.08378,650.08344 "/>
    <path  style="fill: none; stroke: rgb(0, 0, 0); stroke-width: 1;" d="M-1.25309,649.08990 L62.08957,829.55701 "/>
    <path  style="fill: none; stroke: rgb(0, 0, 0); stroke-width: 1;" d="M64.92027,828.56348 L1.57761,648.09637 "/>
    <path  style="fill: none; stroke: rgb(0, 0, 0); stroke-width: 1;" d="M4.40831,647.10284 L67.75096,827.56995 "/>
    <path  style="fill: none; stroke: rgb(0, 0, 0); stroke-width: 1;" d="M70.58166,826.57642 L7.23901,646.10931 "/>
    <path  style="fill: none; stroke: rgb(0, 0, 0); stroke-width: 1;" d="M-66.02956,674.89941 L3.35024,671.26343 "/>
    <path  style="fill: none; stroke: rgb(0, 0, 0); stroke-width: 1;" d="M4.38563,674.21332 L-65.87256,677.89532 "/>
    <path  style="fill: none; stroke: rgb(0, 0, 0); stroke-width: 1;" d="M-65.71555,680.89124 L5.42102,677.16321 "/>
    <path  style="fill: none; stroke: rgb(0, 0, 0); stroke-width: 1;" d="M95.96770,721.88953 L58.03407,790.82758 "/>
    <path  style="fill: none; stroke: rgb(0, 0, 0); stroke-width: 1;" d="M56.70052,787.02820 L93.33934,720.44324 "/>
    <path  style="fill: none; stroke: rgb(0, 0, 0); stroke-width: 1;" d="M90.71098,718.99695 L55.36696,783.22882 "/>
    <path  style="fill: none; stroke: rgb(0, 0, 0); stroke-width: 1;" d="M-54.94769,666.44910 L2.35070,668.41565 "/>
    <path  style="fill: none; stroke: rgb(0, 0, 0); stroke-width: 1;" d="M3.41714,671.45404 L-55.05059,669.44733 "/>
    <path  style="fill: none; stroke: rgb(0, 0, 0); stroke-width: 1;" d="M-55.15350,672.44556 L4.48358,674.49237 "/>
    <path  style="fill: none; stroke: rgb(0, 0, 0); stroke-width: 1;" d="M95.95292,971.83905 L-65.30256,924.26642 "/>
    <path  style="fill: none; stroke: rgb(0, 0, 0); stroke-width: 1;" d="M-64.45369,921.38904 L96.80179,968.96167 "/>
    <path  style="fill: none; stroke: rgb(0, 0, 0); stroke-width: 1;" d="M97.65066,966.08429 L-63.60482,918.51166 "/>
    <path  style="fill: none; stroke: rgb(0, 0, 0); stroke-width: 1;" d="M-62.75594,915.63428 L98.49953,963.20691 "/>
    <path  style="fill: none; stroke: rgb(0, 0, 0); stroke-width: 1;" d="M99.34840,960.32953 L-61.90707,912.75690 "/>
    <path  style="fill: none; stroke: rgb(0, 0, 0); stroke-width: 1;" d="M-93.97627,1034.18274 L-27.05493,935.54999 "/>
    <path  style="fill: none; stroke: rgb(0, 0, 0); stroke-width: 1;" d="M-24.03420,936.44116 L-91.49375,1035.86707 "/>
    <path  style="fill: none; stroke: rgb(0, 0, 0); stroke-width: 1;" d="M-89.01123,1037.55139 L-21.01349,937.33234 "/>
    <path  style="fill: none; stroke: rgb(0, 0, 0); stroke-width: 1;" d="M21.44342,1097.67383 L77.49168,966.39270 "/>
    <path  style="fill: none; stroke: rgb(0, 0, 0); stroke-width: 1;" d="M80.38875,967.24738 L24.20249,1098.85181 "/>
    <path  style="fill: none; stroke: rgb(0, 0, 0); stroke-width: 1;" d="M26.96156,1100.02979 L83.28583,968.10205 "/>
    <path  style="fill: none; stroke: rgb(0, 0, 0); stroke-width: 1;" d="M-92.37134,961.69159 L30.10561,952.41315 "/>
    <path  style="fill: none; stroke: rgb(0, 0, 0); stroke-width: 1;" d="M38.22013,954.80707 L-92.14471,964.68304 "/>
    <path  style="fill: none; stroke: rgb(0, 0, 0); stroke-width: 1;" d="M-91.91809,967.67450 L46.33464,957.20099 "/>
    <path  style="fill: none; stroke: rgb(0, 0, 0); stroke-width: 1;" d="M179.15648,70.57758 L186.90231,-77.58017 "/>
    <path  style="fill: none; stroke: rgb(0, 0, 0); stroke-width: 1;" d="M189.89822,-77.42354 L182.15239,70.73421 "/>
    <path  style="fill: none; stroke: rgb(0, 0, 0); stroke-width: 1;" d="M185.14830,70.89085 L192.89413,-77.26691 "/>
    <path  style="fill: none; stroke: rgb(0, 0, 0); stroke-width: 1;" d="M195.89005,-77.11028 L188.14421,71.04748 "/>
    <path  style="fill: none; stroke: rgb(0, 0, 0); stroke-width: 1;" d="M191.14012,71.20411 L198.88596,-76.95364 "/>
    <path  style="fill: none; stroke: rgb(0, 0, 0); stroke-width: 1;" d="M321.19934,70.21861 L195.27820,-7.94646 "/>
    <path  style="fill: none; stroke: rgb(0, 0, 0); stroke-width: 1;" d="M195.45700,-11.36648 L322.78152,67.66975 "/>
    <path  style="fill: none; stroke: rgb(0, 0, 0); stroke-width: 1;" d="M324.36371,65.12089 L195.63580,-14.78649 "/>
    <path  style="fill: none; stroke: rgb(0, 0, 0); stroke-width: 1;" d="M342.11084,38.93060 L197.95297,-59.10806 "/>
    <path  style="fill: none; stroke: rgb(0, 0, 0); stroke-width: 1;" d="M198.13614,-62.61150 L343.79791,36.44991 "/>
    <path  style="fill: none; stroke: rgb(0, 0, 0); stroke-width: 1;" d="M345.48499,33.96922 L198.31931,-66.11497 "/>
    <path  style="fill: none; stroke: rgb(0, 0, 0); stroke-width: 1;" d="M347.88144,-20.47493 L194.18481,12.96702 "/>
    <path  style="fill: none; stroke: rgb(0, 0, 0); stroke-width: 1;" d="M194.34717,9.86150 L347.24362,-23.40634 "/>
    <path  style="fill: none; stroke: rgb(0, 0, 0); stroke-width: 1;" d="M346.60580,-26.33775 L194.50954,6.75598 "/>
    <path  style="fill: none; stroke: rgb(0, 0, 0); stroke-width: 1;" d="M151.70871,268.40717 L349.34491,238.57256 "/>
    <path  style="fill: none; stroke: rgb(0, 0, 0); stroke-width: 1;" d="M349.79269,241.53894 L152.15651,271.37357 "/>
    <path  style="fill: none; stroke: rgb(0, 0, 0); stroke-width: 1;" d="M152.60431,274.33997 L350.24048,244.50533 "/>
    <path  style="fill: none; stroke: rgb(0, 0, 0); stroke-width: 1;" d="M350.68826,247.47171 L153.05211,277.30637 "/>
    <path  style="fill: none; stroke: rgb(0, 0, 0); stroke-width: 1;" d="M153.49991,280.27277 L351.13605,250.43810 "/>
    <path  style="fill: none; stroke: rgb(0, 0, 0); stroke-width: 1;" d="M264.63351,348.92352 L264.23102,263.55707 "/>
    <path  style="fill: none; stroke: rgb(0, 0, 0); stroke-width: 1;" d="M267.22891,263.10452 L267.63348,348.90939 "/>
    <path  style="fill: none; stroke: rgb(0, 0, 0); stroke-width: 1;" d="M270.63345,348.89526 L270.22681,262.65195 "/>
    <path  style="fill: none; stroke: rgb(0, 0, 0); stroke-width: 1;" d="M316.53195,324.65588 L318.44336,255.37331 "/>
    <path  style="fill: none; stroke: rgb(0, 0, 0); stroke-width: 1;" d="M321.45709,254.91837 L319.53082,324.73862 "/>
    <path  style="fill: none; stroke: rgb(0, 0, 0); stroke-width: 1;" d="M322.52969,324.82135 L324.47076,254.46342 "/>
    <path  style="fill: none; stroke: rgb(0, 0, 0); stroke-width: 1;" d="M280.55893,345.21634 L277.28238,261.58685 "/>
    <path  style="fill: none; stroke: rgb(0, 0, 0); stroke-width: 1;" d="M280.26703,261.13632 L283.55664,345.09888 "/>
    <path  style="fill: none; stroke: rgb(0, 0, 0); stroke-width: 1;" d="M286.55435,344.98141 L283.25168,260.68576 "/>
    <path  style="fill: none; stroke: rgb(0, 0, 0); stroke-width: 1;" d="M348.49765,517.26892 L160.48003,455.43350 "/>
    <path  style="fill: none; stroke: rgb(0, 0, 0); stroke-width: 1;" d="M161.41728,452.58368 L349.43491,514.41907 "/>
    <path  style="fill: none; stroke: rgb(0, 0, 0); stroke-width: 1;" d="M350.37216,511.56924 L162.35454,449.73386 "/>
    <path  style="fill: none; stroke: rgb(0, 0, 0); stroke-width: 1;" d="M163.29179,446.88403 L351.30942,508.71942 "/>
    <path  style="fill: none; stroke: rgb(0, 0, 0); stroke-width: 1;" d="M352.24667,505.86960 L164.22905,444.03421 "/>
    <path  style="fill: none; stroke: rgb(0, 0, 0); stroke-width: 1;" d="M327.49872,436.80231 L287.73221,484.65204 "/>
    <path  style="fill: none; stroke: rgb(0, 0, 0); stroke-width: 1;" d="M284.66873,483.64450 L325.19150,434.88483 "/>
    <path  style="fill: none; stroke: rgb(0, 0, 0); stroke-width: 1;" d="M322.88428,432.96735 L281.60529,482.63699 "/>
    <path  style="fill: none; stroke: rgb(0, 0, 0); stroke-width: 1;" d="M150.01648,501.81516 L210.96997,472.03870 "/>
    <path  style="fill: none; stroke: rgb(0, 0, 0); stroke-width: 1;" d="M215.05470,473.38208 L151.33328,504.51071 "/>
    <path  style="fill: none; stroke: rgb(0, 0, 0); stroke-width: 1;" d="M152.65009,507.20627 L219.13945,474.72546 "/>
    <path  style="fill: none; stroke: rgb(0, 0, 0); stroke-width: 1;" d="M325.99716,435.00436 L264.90121,477.14334 "/>
    <path  style="fill: none; stroke: rgb(0, 0, 0); stroke-width: 1;" d="M261.32339,475.96667 L324.29385,432.53479 "/>
    <path  style="fill: none; stroke: rgb(0, 0, 0); stroke-width: 1;" d="M322.59055,430.06522 L257.74557,474.79001 "/>
    <path  style="fill: none; stroke: rgb(0, 0, 0); stroke-width: 1;" d="M236.40759,849.07190 L186.35966,672.86438 "/>
    <path  style="fill: none; stroke: rgb(0, 0, 0); stroke-width: 1;" d="M189.24551,672.04474 L239.29344,848.25226 "/>
    <path  style="fill: none; stroke: rgb(0, 0, 0); stroke-width: 1;" d="M242.17929,847.43262 L192.13136,671.22510 "/>
    <path  style="fill: none; stroke: rgb(0, 0, 0); stroke-width: 1;" d="M195.01721,670.40546 L245.06514,846.61298 "/>
    <path  style="fill: none; stroke: rgb(0, 0, 0); stroke-width: 1;" d="M247.95099,845.79333 L197.90306,669.58582 "/>
    <path  style="fill: none; stroke: rgb(0, 0, 0); stroke-width: 1;" d="M344.29514,783.29303 L235.28494,801.19904 "/>
    <path  style="fill: none; stroke: rgb(0, 0, 0); stroke-width: 1;" d="M234.45993,798.29437 L343.80887,780.33270 "/>
    <path  style="fill: none; stroke: rgb(0, 0, 0); stroke-width: 1;" d="M343.32260,777.37238 L233.63492,795.38965 "/>
    <path  style="fill: none; stroke: rgb(0, 0, 0); stroke-width: 1;" d="M164.63622,802.08667 L230.66962,828.86981 "/>
    <path  style="fill: none; stroke: rgb(0, 0, 0); stroke-width: 1;" d="M231.70885,832.52869 L163.50864,804.86670 "/>
    <path  style="fill: none; stroke: rgb(0, 0, 0); stroke-width: 1;" d="M162.38106,807.64673 L232.74808,836.18756 "/>
    <path  style="fill: none; stroke: rgb(0, 0, 0); stroke-width: 1;" d="M280.30487,845.29749 L217.18469,737.47211 "/>
    <path  style="fill: none; stroke: rgb(0, 0, 0); stroke-width: 1;" d="M213.90843,725.93713 L282.89389,843.78192 "/>
    <path  style="fill: none; stroke: rgb(0, 0, 0); stroke-width: 1;" d="M285.48291,842.26636 L210.63219,714.40222 "/>
    <path  style="fill: none; stroke: rgb(0, 0, 0); stroke-width: 1;" d="M257.39975,900.27417 L195.67883,1083.95959 "/>
    <path  style="fill: none; stroke: rgb(0, 0, 0); stroke-width: 1;" d="M192.83508,1083.00403 L254.55600,899.31860 "/>
    <path  style="fill: none; stroke: rgb(0, 0, 0); stroke-width: 1;" d="M251.71225,898.36304 L189.99133,1082.04846 "/>
    <path  style="fill: none; stroke: rgb(0, 0, 0); stroke-width: 1;" d="M187.14758,1081.09290 L248.86850,897.40747 "/>
    <path  style="fill: none; stroke: rgb(0, 0, 0); stroke-width: 1;" d="M246.02475,896.45190 L184.30383,1080.13733 "/>
    <path  style="fill: none; stroke: rgb(0, 0, 0); stroke-width: 1;" d="M314.91394,923.93304 L225.91351,993.97925 "/>
    <path  style="fill: none; stroke: rgb(0, 0, 0); stroke-width: 1;" d="M227.65752,988.78900 L313.05856,921.57562 "/>
    <path  style="fill: none; stroke: rgb(0, 0, 0); stroke-width: 1;" d="M311.20319,919.21820 L229.40150,983.59875 "/>
    <path  style="fill: none; stroke: rgb(0, 0, 0); stroke-width: 1;" d="M340.33289,957.10510 L214.94995,1026.60742 "/>
    <path  style="fill: none; stroke: rgb(0, 0, 0); stroke-width: 1;" d="M216.36635,1022.39221 L338.87842,954.48126 "/>
    <path  style="fill: none; stroke: rgb(0, 0, 0); stroke-width: 1;" d="M337.42398,951.85742 L217.78271,1018.17700 "/>
    <path  style="fill: none; stroke: rgb(0, 0, 0); stroke-width: 1;" d="M319.65314,928.24738 L237.35794,959.91986 "/>
    <path  style="fill: none; stroke: rgb(0, 0, 0); stroke-width: 1;" d="M238.59850,956.22791 L318.57559,925.44757 "/>
    <path  style="fill: none; stroke: rgb(0, 0, 0); stroke-width: 1;" d="M317.49805,922.64777 L239.83904,952.53595 "/>
    <path  style="fill: none; stroke: rgb(0, 0, 0); stroke-width: 1;" d="M561.62982,-78.75128 L580.61591,59.16986 "/>
    <path  style="fill: none; stroke: rgb(0, 0, 0); stroke-width: 1;" d="M577.64392,59.57898 L558.65784,-78.34216 "/>
    <path  style="fill: none; stroke: rgb(0, 0, 0); stroke-width: 1;" d="M555.68585,-77.93304 L574.67194,59.98810 "/>
    <path  style="fill: none; stroke: rgb(0, 0, 0); stroke-width: 1;" d="M571.69995,60.39722 L552.71387,-77.52393 "/>
    <path  style="fill: none; stroke: rgb(0, 0, 0); stroke-width: 1;" d="M549.74188,-77.11481 L568.72797,60.80634 "/>
    <path  style="fill: none; stroke: rgb(0, 0, 0); stroke-width: 1;" d="M434.43777,75.50891 L555.33215,-36.50512 "/>
    <path  style="fill: none; stroke: rgb(0, 0, 0); stroke-width: 1;" d="M555.83148,-32.87796 L436.47675,77.70952 "/>
    <path  style="fill: none; stroke: rgb(0, 0, 0); stroke-width: 1;" d="M438.51572,79.91013 L556.33081,-29.25082 "/>
    <path  style="fill: none; stroke: rgb(0, 0, 0); stroke-width: 1;" d="M407.42151,-37.80508 L567.13306,49.22017 "/>
    <path  style="fill: none; stroke: rgb(0, 0, 0); stroke-width: 1;" d="M567.64148,52.91367 L405.98608,-35.17076 "/>
    <path  style="fill: none; stroke: rgb(0, 0, 0); stroke-width: 1;" d="M404.55066,-32.53645 L568.14990,56.60718 "/>
    <path  style="fill: none; stroke: rgb(0, 0, 0); stroke-width: 1;" d="M531.15692,95.02235 L566.72449,46.25221 "/>
    <path  style="fill: none; stroke: rgb(0, 0, 0); stroke-width: 1;" d="M567.31403,50.53513 L533.58081,96.79006 "/>
    <path  style="fill: none; stroke: rgb(0, 0, 0); stroke-width: 1;" d="M536.00470,98.55777 L567.90363,54.81802 "/>
    <path  style="fill: none; stroke: rgb(0, 0, 0); stroke-width: 1;" d="M562.50031,171.93774 L521.16418,347.73474 "/>
    <path  style="fill: none; stroke: rgb(0, 0, 0); stroke-width: 1;" d="M518.24384,347.04807 L559.57996,171.25107 "/>
    <path  style="fill: none; stroke: rgb(0, 0, 0); stroke-width: 1;" d="M556.65961,170.56439 L515.32349,346.36139 "/>
    <path  style="fill: none; stroke: rgb(0, 0, 0); stroke-width: 1;" d="M512.40314,345.67471 L553.73926,169.87772 "/>
    <path  style="fill: none; stroke: rgb(0, 0, 0); stroke-width: 1;" d="M550.81891,169.19104 L509.48279,344.98804 "/>
    <path  style="fill: none; stroke: rgb(0, 0, 0); stroke-width: 1;" d="M530.11469,154.64223 L537.88477,224.19835 "/>
    <path  style="fill: none; stroke: rgb(0, 0, 0); stroke-width: 1;" d="M535.83832,232.90152 L527.13324,154.97528 "/>
    <path  style="fill: none; stroke: rgb(0, 0, 0); stroke-width: 1;" d="M524.15179,155.30833 L533.79187,241.60471 "/>
    <path  style="fill: none; stroke: rgb(0, 0, 0); stroke-width: 1;" d="M569.94019,321.47284 L538.70361,273.14197 "/>
    <path  style="fill: none; stroke: rgb(0, 0, 0); stroke-width: 1;" d="M539.65649,269.08945 L572.45978,319.84442 "/>
    <path  style="fill: none; stroke: rgb(0, 0, 0); stroke-width: 1;" d="M574.97937,318.21600 L540.60938,265.03696 "/>
    <path  style="fill: none; stroke: rgb(0, 0, 0); stroke-width: 1;" d="M484.65567,151.18427 L550.74048,169.52455 "/>
    <path  style="fill: none; stroke: rgb(0, 0, 0); stroke-width: 1;" d="M550.05328,172.44722 L483.85342,154.07501 "/>
    <path  style="fill: none; stroke: rgb(0, 0, 0); stroke-width: 1;" d="M483.05118,156.96576 L549.36603,175.36989 "/>
    <path  style="fill: none; stroke: rgb(0, 0, 0); stroke-width: 1;" d="M489.12119,400.59351 L400.20697,506.43045 "/>
    <path  style="fill: none; stroke: rgb(0, 0, 0); stroke-width: 1;" d="M397.90997,504.50073 L486.82419,398.66379 "/>
    <path  style="fill: none; stroke: rgb(0, 0, 0); stroke-width: 1;" d="M484.52719,396.73407 L395.61298,502.57101 "/>
    <path  style="fill: none; stroke: rgb(0, 0, 0); stroke-width: 1;" d="M393.31598,500.64130 L482.23019,394.80435 "/>
    <path  style="fill: none; stroke: rgb(0, 0, 0); stroke-width: 1;" d="M479.93320,392.87463 L391.01898,498.71158 "/>
    <path  style="fill: none; stroke: rgb(0, 0, 0); stroke-width: 1;" d="M417.24411,443.86212 L454.65781,422.96060 "/>
    <path  style="fill: none; stroke: rgb(0, 0, 0); stroke-width: 1;" d="M449.21759,429.43625 L418.70724,446.48114 "/>
    <path  style="fill: none; stroke: rgb(0, 0, 0); stroke-width: 1;" d="M420.17038,449.10016 L443.77734,435.91190 "/>
    <path  style="fill: none; stroke: rgb(0, 0, 0); stroke-width: 1;" d="M591.78986,460.31851 L480.43726,410.93024 "/>
    <path  style="fill: none; stroke: rgb(0, 0, 0); stroke-width: 1;" d="M482.44589,408.53928 L593.00616,457.57614 "/>
    <path  style="fill: none; stroke: rgb(0, 0, 0); stroke-width: 1;" d="M594.22247,454.83377 L484.45453,406.14835 "/>
    <path  style="fill: none; stroke: rgb(0, 0, 0); stroke-width: 1;" d="M523.71631,597.14697 L418.45920,484.70435 "/>
    <path  style="fill: none; stroke: rgb(0, 0, 0); stroke-width: 1;" d="M420.40283,482.39078 L525.90643,595.09680 "/>
    <path  style="fill: none; stroke: rgb(0, 0, 0); stroke-width: 1;" d="M528.09656,593.04663 L422.34644,480.07724 "/>
    <path  style="fill: none; stroke: rgb(0, 0, 0); stroke-width: 1;" d="M400.08752,745.81732 L460.02594,658.33716 "/>
    <path  style="fill: none; stroke: rgb(0, 0, 0); stroke-width: 1;" d="M462.50076,660.03284 L402.56235,747.51300 "/>
    <path  style="fill: none; stroke: rgb(0, 0, 0); stroke-width: 1;" d="M405.03717,749.20868 L464.97559,661.72852 "/>
    <path  style="fill: none; stroke: rgb(0, 0, 0); stroke-width: 1;" d="M467.45041,663.42419 L407.51199,750.90436 "/>
    <path  style="fill: none; stroke: rgb(0, 0, 0); stroke-width: 1;" d="M409.98682,752.60004 L469.92523,665.11987 "/>
    <path  style="fill: none; stroke: rgb(0, 0, 0); stroke-width: 1;" d="M556.70215,667.62970 L445.88724,700.20337 "/>
    <path  style="fill: none; stroke: rgb(0, 0, 0); stroke-width: 1;" d="M448.57001,696.28784 L555.85608,664.75146 "/>
    <path  style="fill: none; stroke: rgb(0, 0, 0); stroke-width: 1;" d="M555.01001,661.87323 L451.25281,692.37231 "/>
    <path  style="fill: none; stroke: rgb(0, 0, 0); stroke-width: 1;" d="M587.96680,702.44122 L442.32108,705.40814 "/>
    <path  style="fill: none; stroke: rgb(0, 0, 0); stroke-width: 1;" d="M444.40613,702.36505 L587.90570,699.44183 "/>
    <path  style="fill: none; stroke: rgb(0, 0, 0); stroke-width: 1;" d="M587.84460,696.44244 L446.49115,699.32196 "/>
    <path  style="fill: none; stroke: rgb(0, 0, 0); stroke-width: 1;" d="M415.47437,803.43610 L441.52332,706.57245 "/>
    <path  style="fill: none; stroke: rgb(0, 0, 0); stroke-width: 1;" d="M446.63702,699.10907 L418.37143,804.21521 "/>
    <path  style="fill: none; stroke: rgb(0, 0, 0); stroke-width: 1;" d="M421.26849,804.99432 L451.75070,691.64563 "/>
    <path  style="fill: none; stroke: rgb(0, 0, 0); stroke-width: 1;" d="M400.14249,1005.33636 L482.62552,901.52094 "/>
    <path  style="fill: none; stroke: rgb(0, 0, 0); stroke-width: 1;" d="M484.97440,903.38715 L402.49136,1007.20258 "/>
    <path  style="fill: none; stroke: rgb(0, 0, 0); stroke-width: 1;" d="M404.84024,1009.06879 L487.32327,905.25336 "/>
    <path  style="fill: none; stroke: rgb(0, 0, 0); stroke-width: 1;" d="M489.67215,907.11957 L407.18912,1010.93500 "/>
    <path  style="fill: none; stroke: rgb(0, 0, 0); stroke-width: 1;" d="M409.53799,1012.80121 L492.02103,908.98578 "/>
    <path  style="fill: none; stroke: rgb(0, 0, 0); stroke-width: 1;" d="M540.00861,908.35223 L490.06271,911.45056 "/>
    <path  style="fill: none; stroke: rgb(0, 0, 0); stroke-width: 1;" d="M476.45364,909.28900 L539.82288,905.35797 "/>
    <path  style="fill: none; stroke: rgb(0, 0, 0); stroke-width: 1;" d="M539.63715,902.36371 L478.96561,906.12738 "/>
    <path  style="fill: none; stroke: rgb(0, 0, 0); stroke-width: 1;" d="M410.98138,1045.55969 L446.62137,966.12708 "/>
    <path  style="fill: none; stroke: rgb(0, 0, 0); stroke-width: 1;" d="M454.17554,956.61920 L413.71851,1046.78784 "/>
    <path  style="fill: none; stroke: rgb(0, 0, 0); stroke-width: 1;" d="M416.45563,1048.01599 L461.72968,947.11127 "/>
    <path  style="fill: none; stroke: rgb(0, 0, 0); stroke-width: 1;" d="M547.40302,911.94916 L478.44617,906.78119 "/>
    <path  style="fill: none; stroke: rgb(0, 0, 0); stroke-width: 1;" d="M480.70209,903.94177 L547.62720,908.95752 "/>
    <path  style="fill: none; stroke: rgb(0, 0, 0); stroke-width: 1;" d="M547.85138,905.96588 L466.69925,899.88391 "/>
    <path  style="fill: none; stroke: rgb(0, 0, 0); stroke-width: 1;" d="M764.21234,98.98489 L800.78217,-86.14622 "/>
    <path  style="fill: none; stroke: rgb(0, 0, 0); stroke-width: 1;" d="M803.72528,-85.56485 L767.15546,99.56626 "/>
    <path  style="fill: none; stroke: rgb(0, 0, 0); stroke-width: 1;" d="M770.09857,100.14763 L806.66840,-84.98348 "/>
    <path  style="fill: none; stroke: rgb(0, 0, 0); stroke-width: 1;" d="M809.61151,-84.40211 L773.04169,100.72900 "/>
    <path  style="fill: none; stroke: rgb(0, 0, 0); stroke-width: 1;" d="M775.98480,101.31036 L812.55463,-83.82075 "/>
    <path  style="fill: none; stroke: rgb(0, 0, 0); stroke-width: 1;" d="M662.58630,-48.56800 L798.94690,-76.85524 "/>
    <path  style="fill: none; stroke: rgb(0, 0, 0); stroke-width: 1;" d="M798.31580,-73.66045 L663.19568,-45.63054 "/>
    <path  style="fill: none; stroke: rgb(0, 0, 0); stroke-width: 1;" d="M663.80505,-42.69308 L797.68469,-70.46567 "/>
    <path  style="fill: none; stroke: rgb(0, 0, 0); stroke-width: 1;" d="M849.12585,13.19364 L792.89813,15.68822 "/>
    <path  style="fill: none; stroke: rgb(0, 0, 0); stroke-width: 1;" d="M793.49658,12.65873 L848.99286,10.19659 "/>
    <path  style="fill: none; stroke: rgb(0, 0, 0); stroke-width: 1;" d="M848.85986,7.19954 L794.09503,9.62923 "/>
    <path  style="fill: none; stroke: rgb(0, 0, 0); stroke-width: 1;" d="M651.15295,15.14122 L796.71283,-65.54567 "/>
    <path  style="fill: none; stroke: rgb(0, 0, 0); stroke-width: 1;" d="M795.95197,-61.69383 L652.60742,17.76506 "/>
    <path  style="fill: none; stroke: rgb(0, 0, 0); stroke-width: 1;" d="M654.06189,20.38891 L795.19110,-57.84196 "/>
    <path  style="fill: none; stroke: rgb(0, 0, 0); stroke-width: 1;" d="M653.34436,275.64529 L682.21753,176.47763 "/>
    <path  style="fill: none; stroke: rgb(0, 0, 0); stroke-width: 1;" d="M685.09790,177.31627 L656.22473,276.48395 "/>
    <path  style="fill: none; stroke: rgb(0, 0, 0); stroke-width: 1;" d="M659.10510,277.32260 L687.97827,178.15491 "/>
    <path  style="fill: none; stroke: rgb(0, 0, 0); stroke-width: 1;" d="M690.85864,178.99355 L661.98547,278.16125 "/>
    <path  style="fill: none; stroke: rgb(0, 0, 0); stroke-width: 1;" d="M664.86584,278.99991 L693.73901,179.83218 "/>
    <path  style="fill: none; stroke: rgb(0, 0, 0); stroke-width: 1;" d="M811.83264,328.59216 L686.29651,205.39423 "/>
    <path  style="fill: none; stroke: rgb(0, 0, 0); stroke-width: 1;" d="M687.24835,202.12503 L813.93390,326.45099 "/>
    <path  style="fill: none; stroke: rgb(0, 0, 0); stroke-width: 1;" d="M816.03516,324.30981 L688.20020,198.85583 "/>
    <path  style="fill: none; stroke: rgb(0, 0, 0); stroke-width: 1;" d="M807.96075,168.51042 L682.25592,219.27190 "/>
    <path  style="fill: none; stroke: rgb(0, 0, 0); stroke-width: 1;" d="M683.32343,215.60547 L806.83746,165.72867 "/>
    <path  style="fill: none; stroke: rgb(0, 0, 0); stroke-width: 1;" d="M805.71417,162.94691 L684.39093,211.93906 "/>
    <path  style="fill: none; stroke: rgb(0, 0, 0); stroke-width: 1;" d="M802.89270,334.86676 L678.48029,232.23988 "/>
    <path  style="fill: none; stroke: rgb(0, 0, 0); stroke-width: 1;" d="M679.39325,229.10406 L804.80170,332.55252 "/>
    <path  style="fill: none; stroke: rgb(0, 0, 0); stroke-width: 1;" d="M806.71069,330.23828 L680.30627,225.96823 "/>
    <path  style="fill: none; stroke: rgb(0, 0, 0); stroke-width: 1;" d="M761.67853,400.68427 L842.14325,538.85388 "/>
    <path  style="fill: none; stroke: rgb(0, 0, 0); stroke-width: 1;" d="M839.55084,540.36359 L759.08612,402.19400 "/>
    <path  style="fill: none; stroke: rgb(0, 0, 0); stroke-width: 1;" d="M756.49371,403.70374 L836.95844,541.87329 "/>
    <path  style="fill: none; stroke: rgb(0, 0, 0); stroke-width: 1;" d="M834.36603,543.38300 L753.90131,405.21347 "/>
    <path  style="fill: none; stroke: rgb(0, 0, 0); stroke-width: 1;" d="M751.30890,406.72321 L831.77362,544.89270 "/>
    <path  style="fill: none; stroke: rgb(0, 0, 0); stroke-width: 1;" d="M764.68109,598.91644 L781.01257,457.72867 "/>
    <path  style="fill: none; stroke: rgb(0, 0, 0); stroke-width: 1;" d="M783.53210,462.05508 L767.66119,599.26117 "/>
    <path  style="fill: none; stroke: rgb(0, 0, 0); stroke-width: 1;" d="M770.64130,599.60590 L786.05164,466.38147 "/>
    <path  style="fill: none; stroke: rgb(0, 0, 0); stroke-width: 1;" d="M662.96350,450.75925 L771.69220,441.72427 "/>
    <path  style="fill: none; stroke: rgb(0, 0, 0); stroke-width: 1;" d="M773.36438,444.59564 L663.21191,453.74893 "/>
    <path  style="fill: none; stroke: rgb(0, 0, 0); stroke-width: 1;" d="M663.46033,456.73862 L775.03656,447.46704 "/>
    <path  style="fill: none; stroke: rgb(0, 0, 0); stroke-width: 1;" d="M691.22491,419.09583 L787.55048,468.95520 "/>
    <path  style="fill: none; stroke: rgb(0, 0, 0); stroke-width: 1;" d="M790.36664,473.79092 L689.84589,421.76007 "/>
    <path  style="fill: none; stroke: rgb(0, 0, 0); stroke-width: 1;" d="M688.46686,424.42432 L793.18274,478.62665 "/>
    <path  style="fill: none; stroke: rgb(0, 0, 0); stroke-width: 1;" d="M720.12750,654.56610 L678.11646,819.51807 "/>
    <path  style="fill: none; stroke: rgb(0, 0, 0); stroke-width: 1;" d="M675.20929,818.77765 L717.22034,653.82568 "/>
    <path  style="fill: none; stroke: rgb(0, 0, 0); stroke-width: 1;" d="M714.31317,653.08527 L672.30212,818.03723 "/>
    <path  style="fill: none; stroke: rgb(0, 0, 0); stroke-width: 1;" d="M669.39496,817.29681 L711.40601,652.34485 "/>
    <path  style="fill: none; stroke: rgb(0, 0, 0); stroke-width: 1;" d="M708.49884,651.60443 L666.48779,816.55640 "/>
    <path  style="fill: none; stroke: rgb(0, 0, 0); stroke-width: 1;" d="M659.14923,708.21320 L682.53931,753.53186 "/>
    <path  style="fill: none; stroke: rgb(0, 0, 0); stroke-width: 1;" d="M681.42383,757.91168 L656.48334,709.58911 "/>
    <path  style="fill: none; stroke: rgb(0, 0, 0); stroke-width: 1;" d="M653.81744,710.96503 L680.30835,762.29150 "/>
    <path  style="fill: none; stroke: rgb(0, 0, 0); stroke-width: 1;" d="M838.89258,704.19482 L701.19220,728.91364 "/>
    <path  style="fill: none; stroke: rgb(0, 0, 0); stroke-width: 1;" d="M702.00568,725.71960 L838.36249,701.24200 "/>
    <path  style="fill: none; stroke: rgb(0, 0, 0); stroke-width: 1;" d="M837.83240,698.28918 L702.81915,722.52563 "/>
    <path  style="fill: none; stroke: rgb(0, 0, 0); stroke-width: 1;" d="M818.40997,822.93884 L712.98724,682.60150 "/>
    <path  style="fill: none; stroke: rgb(0, 0, 0); stroke-width: 1;" d="M713.93732,678.87134 L820.80859,821.13696 "/>
    <path  style="fill: none; stroke: rgb(0, 0, 0); stroke-width: 1;" d="M823.20721,819.33508 L714.88733,675.14111 "/>
    <path  style="fill: none; stroke: rgb(0, 0, 0); stroke-width: 1;" d="M815.08740,924.08142 L655.43445,1032.51697 "/>
    <path  style="fill: none; stroke: rgb(0, 0, 0); stroke-width: 1;" d="M653.74890,1030.03528 L813.40186,921.59973 "/>
    <path  style="fill: none; stroke: rgb(0, 0, 0); stroke-width: 1;" d="M811.71631,919.11804 L652.06335,1027.55359 "/>
    <path  style="fill: none; stroke: rgb(0, 0, 0); stroke-width: 1;" d="M650.37781,1025.07190 L810.03076,916.63635 "/>
    <path  style="fill: none; stroke: rgb(0, 0, 0); stroke-width: 1;" d="M808.34521,914.15466 L648.69226,1022.59021 "/>
    <path  style="fill: none; stroke: rgb(0, 0, 0); stroke-width: 1;" d="M658.02460,960.75049 L704.99438,984.35004 "/>
    <path  style="fill: none; stroke: rgb(0, 0, 0); stroke-width: 1;" d="M702.15314,986.27985 L656.67773,963.43115 "/>
    <path  style="fill: none; stroke: rgb(0, 0, 0); stroke-width: 1;" d="M655.33087,966.11182 L699.31183,988.20966 "/>
    <path  style="fill: none; stroke: rgb(0, 0, 0); stroke-width: 1;" d="M799.34937,913.02509 L788.88617,927.37115 "/>
    <path  style="fill: none; stroke: rgb(0, 0, 0); stroke-width: 1;" d="M781.52802,932.36877 L796.92554,911.25726 "/>
    <path  style="fill: none; stroke: rgb(0, 0, 0); stroke-width: 1;" d="M794.50171,909.48944 L774.16986,937.36639 "/>
    <path  style="fill: none; stroke: rgb(0, 0, 0); stroke-width: 1;" d="M684.33673,924.57898 L706.03418,983.64386 "/>
    <path  style="fill: none; stroke: rgb(0, 0, 0); stroke-width: 1;" d="M703.47632,985.38110 L681.52075,925.61346 "/>
    <path  style="fill: none; stroke: rgb(0, 0, 0); stroke-width: 1;" d="M678.70477,926.64795 L700.91852,987.11835 "/>
    <path  style="fill: none; stroke: rgb(0, 0, 0); stroke-width: 1;" d="M1028.79297,-95.76515 L1099.67310,-8.07899 "/>
    <path  style="fill: none; stroke: rgb(0, 0, 0); stroke-width: 1;" d="M1097.33997,-6.19307 L1026.45984,-93.87923 "/>
    <path  style="fill: none; stroke: rgb(0, 0, 0); stroke-width: 1;" d="M1024.12671,-91.99330 L1095.00684,-4.30715 "/>
    <path  style="fill: none; stroke: rgb(0, 0, 0); stroke-width: 1;" d="M1092.67371,-2.42122 L1021.79364,-90.10738 "/>
    <path  style="fill: none; stroke: rgb(0, 0, 0); stroke-width: 1;" d="M1019.46057,-88.22145 L1090.34058,-0.53530 "/>
    <path  style="fill: none; stroke: rgb(0, 0, 0); stroke-width: 1;" d="M973.06104,-96.30312 L1022.42480,-84.55437 "/>
    <path  style="fill: none; stroke: rgb(0, 0, 0); stroke-width: 1;" d="M1025.51135,-80.73597 L972.36646,-93.38464 "/>
    <path  style="fill: none; stroke: rgb(0, 0, 0); stroke-width: 1;" d="M971.67188,-90.46616 L1028.59790,-76.91756 "/>
    <path  style="fill: none; stroke: rgb(0, 0, 0); stroke-width: 1;" d="M904.41736,-29.39318 L1067.55286,-28.72614 "/>
    <path  style="fill: none; stroke: rgb(0, 0, 0); stroke-width: 1;" d="M1069.98596,-25.71616 L904.40509,-26.39321 "/>
    <path  style="fill: none; stroke: rgb(0, 0, 0); stroke-width: 1;" d="M904.39282,-23.39323 L1072.41907,-22.70619 "/>
    <path  style="fill: none; stroke: rgb(0, 0, 0); stroke-width: 1;" d="M937.15149,-77.78217 L1029.05859,-76.34762 "/>
    <path  style="fill: none; stroke: rgb(0, 0, 0); stroke-width: 1;" d="M1031.51489,-73.30891 L937.10468,-74.78253 "/>
    <path  style="fill: none; stroke: rgb(0, 0, 0); stroke-width: 1;" d="M937.05786,-71.78290 L1033.97119,-70.27021 "/>
    <path  style="fill: none; stroke: rgb(0, 0, 0); stroke-width: 1;" d="M1061.70471,328.69260 L999.31226,150.00237 "/>
    <path  style="fill: none; stroke: rgb(0, 0, 0); stroke-width: 1;" d="M1002.14459,149.01341 L1064.53699,327.70364 "/>
    <path  style="fill: none; stroke: rgb(0, 0, 0); stroke-width: 1;" d="M1067.36926,326.71469 L1004.97693,148.02448 "/>
    <path  style="fill: none; stroke: rgb(0, 0, 0); stroke-width: 1;" d="M1007.80927,147.03554 L1070.20154,325.72574 "/>
    <path  style="fill: none; stroke: rgb(0, 0, 0); stroke-width: 1;" d="M1073.03381,324.73679 L1010.64160,146.04660 "/>
    <path  style="fill: none; stroke: rgb(0, 0, 0); stroke-width: 1;" d="M1075.25000,184.14082 L1048.14978,253.46945 "/>
    <path  style="fill: none; stroke: rgb(0, 0, 0); stroke-width: 1;" d="M1046.63013,249.11707 L1072.45593,183.04861 "/>
    <path  style="fill: none; stroke: rgb(0, 0, 0); stroke-width: 1;" d="M1069.66187,181.95641 L1045.11035,244.76465 "/>
    <path  style="fill: none; stroke: rgb(0, 0, 0); stroke-width: 1;" d="M1044.09241,160.24554 L1028.46252,197.08533 "/>
    <path  style="fill: none; stroke: rgb(0, 0, 0); stroke-width: 1;" d="M1026.99133,192.87186 L1041.33069,159.07384 "/>
    <path  style="fill: none; stroke: rgb(0, 0, 0); stroke-width: 1;" d="M1038.56897,157.90213 L1025.52014,188.65839 "/>
    <path  style="fill: none; stroke: rgb(0, 0, 0); stroke-width: 1;" d="M934.69189,325.72879 L1044.92981,280.64978 "/>
    <path  style="fill: none; stroke: rgb(0, 0, 0); stroke-width: 1;" d="M1045.92017,283.48596 L935.82739,328.50558 "/>
    <path  style="fill: none; stroke: rgb(0, 0, 0); stroke-width: 1;" d="M936.96289,331.28238 L1046.91040,286.32211 "/>
    <path  style="fill: none; stroke: rgb(0, 0, 0); stroke-width: 1;" d="M1097.97717,479.98822 L900.80432,512.65741 "/>
    <path  style="fill: none; stroke: rgb(0, 0, 0); stroke-width: 1;" d="M900.31396,509.69775 L1097.48682,477.02856 "/>
    <path  style="fill: none; stroke: rgb(0, 0, 0); stroke-width: 1;" d="M1096.99646,474.06891 L899.82361,506.73810 "/>
    <path  style="fill: none; stroke: rgb(0, 0, 0); stroke-width: 1;" d="M899.33325,503.77844 L1096.50610,471.10925 "/>
    <path  style="fill: none; stroke: rgb(0, 0, 0); stroke-width: 1;" d="M1096.01575,468.14960 L898.84290,500.81879 "/>
    <path  style="fill: none; stroke: rgb(0, 0, 0); stroke-width: 1;" d="M927.06036,431.59085 L968.10956,489.34213 "/>
    <path  style="fill: none; stroke: rgb(0, 0, 0); stroke-width: 1;" d="M964.81671,489.88770 L924.61511,433.32892 "/>
    <path  style="fill: none; stroke: rgb(0, 0, 0); stroke-width: 1;" d="M922.16986,435.06699 L961.52393,490.43329 "/>
    <path  style="fill: none; stroke: rgb(0, 0, 0); stroke-width: 1;" d="M1064.02832,423.18610 L1045.15454,476.57669 "/>
    <path  style="fill: none; stroke: rgb(0, 0, 0); stroke-width: 1;" d="M1041.77454,477.13672 L1061.19983,422.18622 "/>
    <path  style="fill: none; stroke: rgb(0, 0, 0); stroke-width: 1;" d="M1058.37134,421.18634 L1038.39465,477.69672 "/>
    <path  style="fill: none; stroke: rgb(0, 0, 0); stroke-width: 1;" d="M1072.94775,431.59952 L1040.56970,477.33636 "/>
    <path  style="fill: none; stroke: rgb(0, 0, 0); stroke-width: 1;" d="M1036.40552,478.02631 L1070.49915,429.86615 "/>
    <path  style="fill: none; stroke: rgb(0, 0, 0); stroke-width: 1;" d="M1068.05054,428.13278 L1032.24146,478.71625 "/>
    <path  style="fill: none; stroke: rgb(0, 0, 0); stroke-width: 1;" d="M1089.15967,795.28314 L942.96796,667.85779 "/>
    <path  style="fill: none; stroke: rgb(0, 0, 0); stroke-width: 1;" d="M944.93915,665.59631 L1091.13086,793.02167 "/>
    <path  style="fill: none; stroke: rgb(0, 0, 0); stroke-width: 1;" d="M1093.10205,790.76019 L946.91034,663.33484 "/>
    <path  style="fill: none; stroke: rgb(0, 0, 0); stroke-width: 1;" d="M948.88153,661.07336 L1095.07324,788.49872 "/>
    <path  style="fill: none; stroke: rgb(0, 0, 0); stroke-width: 1;" d="M1097.04443,786.23724 L950.85272,658.81189 "/>
    <path  style="fill: none; stroke: rgb(0, 0, 0); stroke-width: 1;" d="M1008.30725,650.34564 L1036.59863,733.55072 "/>
    <path  style="fill: none; stroke: rgb(0, 0, 0); stroke-width: 1;" d="M1032.09534,729.62549 L1005.46698,651.31140 "/>
    <path  style="fill: none; stroke: rgb(0, 0, 0); stroke-width: 1;" d="M1002.62671,652.27716 L1027.59192,725.70026 "/>
    <path  style="fill: none; stroke: rgb(0, 0, 0); stroke-width: 1;" d="M912.68329,701.25787 L1070.08606,778.65802 "/>
    <path  style="fill: none; stroke: rgb(0, 0, 0); stroke-width: 1;" d="M1078.88611,786.32843 L911.35950,703.95001 "/>
    <path  style="fill: none; stroke: rgb(0, 0, 0); stroke-width: 1;" d="M910.03571,706.64215 L1087.68616,793.99878 "/>
    <path  style="fill: none; stroke: rgb(0, 0, 0); stroke-width: 1;" d="M924.99835,683.85809 L1056.94214,767.20129 "/>
    <path  style="fill: none; stroke: rgb(0, 0, 0); stroke-width: 1;" d="M1071.72864,780.08972 L923.39624,686.39447 "/>
    <path  style="fill: none; stroke: rgb(0, 0, 0); stroke-width: 1;" d="M921.79413,688.93085 L1086.51526,792.97821 "/>
    <path  style="fill: none; stroke: rgb(0, 0, 0); stroke-width: 1;" d="M1033.56763,1094.19775 L1098.03137,980.25549 "/>
    <path  style="fill: none; stroke: rgb(0, 0, 0); stroke-width: 1;" d="M1100.64246,981.73273 L1036.17871,1095.67505 "/>
    <path  style="fill: none; stroke: rgb(0, 0, 0); stroke-width: 1;" d="M1038.78979,1097.15234 L1103.25354,983.20996 "/>
    <path  style="fill: none; stroke: rgb(0, 0, 0); stroke-width: 1;" d="M1105.86462,984.68719 L1041.40088,1098.62964 "/>
    <path  style="fill: none; stroke: rgb(0, 0, 0); stroke-width: 1;" d="M1044.01196,1100.10693 L1108.47571,986.16443 "/>
    <path  style="fill: none; stroke: rgb(0, 0, 0); stroke-width: 1;" d="M1077.13000,936.35278 L1073.62634,1023.39240 "/>
    <path  style="fill: none; stroke: rgb(0, 0, 0); stroke-width: 1;" d="M1070.39392,1029.10583 L1074.13245,936.23212 "/>
    <path  style="fill: none; stroke: rgb(0, 0, 0); stroke-width: 1;" d="M1071.13489,936.11145 L1067.16150,1034.81921 "/>
    <path  style="fill: none; stroke: rgb(0, 0, 0); stroke-width: 1;" d="M925.14703,933.68988 L1040.73254,1081.53357 "/>
    <path  style="fill: none; stroke: rgb(0, 0, 0); stroke-width: 1;" d="M1039.13379,1084.35938 L922.78363,935.53766 "/>
    <path  style="fill: none; stroke: rgb(0, 0, 0); stroke-width: 1;" d="M920.42023,937.38544 L1037.53503,1087.18530 "/>
    <path  style="fill: none; stroke: rgb(0, 0, 0); stroke-width: 1;" d="M1008.01251,900.32153 L1097.94482,980.40857 "/>
    <path  style="fill: none; stroke: rgb(0, 0, 0); stroke-width: 1;" d="M1096.09229,982.77600 L1006.01740,902.56195 "/>
    <path  style="fill: none; stroke: rgb(0, 0, 0); stroke-width: 1;" d="M1004.02228,904.80237 L1094.09717,985.01642 "/>

<script>
let svgs = document.children[0];
let paths = Array.from(svgs.children).filter(function(c) {
    var orig = c.style.stroke;
    c.onmouseover = function() {
        c.style.stroke = "rgb(0, 0, 255)";
    };
    c.onmouseout = function () {
        c.style.stroke = orig;
    };
    c.onclick = function () {
        svgs.removeChild()
    }
});

for (let path of paths) {
    console.log(path);
}
</script></svg>